SplineFontDB: 3.0
FontName: StickNoBills-Light
FullName: Stick No Bills
FamilyName: Stick No Bills
Weight: Light
Copyright: Copyright (c) 2013 STICK NO BILLS, Copyright (c) 2015 mooniak\n
UComments: "2015-2-15: Created with FontForge (http://fontforge.org) The  Free Font Editor"
Version: 1.0
ItalicAngle: 0
UnderlinePosition: -102
UnderlineWidth: 51
Ascent: 819
Descent: 205
InvalidEm: 0
UFOAscent: 819
UFODescent: -205
LayerCount: 4
Layer: 0 0 "Back" 1
Layer: 1 0 "Fore" 0
Layer: 2 0 "Regular" 1
Layer: 3 0 "Back 2" 1
PreferredKerning: 4
FSType: 0
OS2Version: 0
OS2_WeightWidthSlopeOnly: 0
OS2_UseTypoMetrics: 0
CreationTime: 1429518268
ModificationTime: 1445632656
PfmFamily: 16
TTFWeight: 400
TTFWidth: 5
LineGap: 94
VLineGap: 0
OS2TypoAscent: 819
OS2TypoAOffset: 0
OS2TypoDescent: -205
OS2TypoDOffset: 0
OS2TypoLinegap: 94
OS2WinAscent: 918
OS2WinAOffset: 0
OS2WinDescent: 205
OS2WinDOffset: 0
HheadAscent: 918
HheadAOffset: 0
HheadDescent: -205
HheadDOffset: 0
OS2CapHeight: 0
OS2XHeight: 0
OS2Vendor: 'PfEd'
OS2UnicodeRanges: 00000002.00000000.00000000.00000000
Lookup: 258 0 0 "'kern' Horizontal Kerning lookup 0" { "'kern' Horizontal Kerning lookup 0-1" [153,15,0] } ['kern' ('DFLT' <'dflt' > 'hani' <'dflt' > 'latn' <'dflt' > ) ]
MarkAttachClasses: 1
DEI: 91125
KernClass2: 7 7 "'kern' Horizontal Kerning lookup 0-1"
 1 A
 7 T Y P F
 9 f r v w y
 1 L
 3 W V
 0 
 7 W V T Y
 12 period comma
 17 a e s o q d c g u
 1 A
 5 w v t
 15 semicolon colon
 0 {} 0 {} 0 {} 0 {} 0 {} 0 {} 0 {} 0 {} -70 {} 61 {} -23 {} 0 {} -68 {} 45 {} 0 {} 16 {} -80 {} -30 {} -100 {} -23 {} -63 {} 0 {} 0 {} -41 {} 0 {} 0 {} 0 {} 0 {} 0 {} -82 {} 0 {} 84 {} 0 {} -77 {} 62 {} 0 {} 0 {} -109 {} -55 {} -130 {} 0 {} -75 {} 0 {} 0 {} 0 {} 0 {} 0 {} 0 {} 0 {}

StartChar: A
Encoding: 65 65 0
GlifName: A_
Width: 433
VWidth: 0
GlyphClass: 2
Flags: MW
LayerCount: 4
Back
Fore
SplineSet
32 0 m 261
 169 599 l 261
 186 599 l 261
 196 554 l 261
 72 0 l 261
 32 0 l 261
146 135 m 261
 154 173 l 261
 324 173 l 261
 209 699 l 261
 249 699 l 261
 401 0 l 261
 361 0 l 261
 333 135 l 261
 146 135 l 261
EndSplineSet
Layer: 2
SplineSet
113 582 m 257
 128 582 l 257
 188 302 l 257
 122 0 l 257
 -16 0 l 257
 113 582 l 257
158 699 m 257
 297 699 l 257
 448 0 l 257
 311 0 l 257
 291 85 l 257
 197 85 l 257
 227 223 l 257
 263 223 l 257
 158 699 l 257
EndSplineSet
Layer: 3
EndChar

StartChar: AE
Encoding: 256 198 1
GlifName: A_E_
Width: 727
VWidth: 0
GlyphClass: 2
Flags: MW
LayerCount: 4
Back
Fore
SplineSet
81 0 m 261
 261 700 l 261
 701 700 l 257
 701 661 l 257
 427 661 l 257
 427 367 l 257
 607 367 l 257
 607 329 l 257
 427 329 l 257
 427 38 l 257
 701 38 l 257
 701 0 l 257
 387 0 l 257
 387 188 l 257
 218 188 l 261
 228 228 l 261
 387 228 l 257
 387 661 l 257
 293 661 l 261
 125 0 l 261
 81 0 l 261
EndSplineSet
Layer: 2
SplineSet
701 141 m 257
 701 0 l 257
 337 0 l 257
 337 148 l 257
 272 148 l 257
 301 268 l 257
 337 268 l 257
 337 560 l 257
 320 560 l 257
 182 0 l 257
 26 0 l 257
 206 700 l 257
 701 700 l 257
 701 560 l 257
 483 560 l 257
 478 560 l 257
 478 418 l 257
 607 418 l 257
 607 277 l 257
 478 277 l 257
 478 141 l 257
 701 141 l 257
EndSplineSet
Layer: 3
EndChar

StartChar: Aring
Encoding: 257 197 6
GlifName: A_ring
Width: 516
VWidth: 0
GlyphClass: 2
Flags: MW
LayerCount: 4
Back
Fore
SplineSet
74 0 m 1
 211 599 l 1
 228 599 l 1
 238 554 l 1
 114 0 l 1
 74 0 l 1
188 135 m 1
 196 173 l 1
 366 173 l 1
 252 694 l 1
 220 701 196 731 196 765 c 0
 196 805 228 837 268 837 c 0
 308 837 341 805 341 765 c 0
 341 733 321 706 292 696 c 1
 443 0 l 1
 403 0 l 1
 375 135 l 1
 188 135 l 1
230 765 m 0
 230 744 247 727 268 727 c 0
 290 727 307 744 307 765 c 0
 307 787 290 804 268 804 c 0
 247 804 230 787 230 765 c 0
EndSplineSet
Layer: 2
SplineSet
155 582 m 257
 170 582 l 257
 230 302 l 257
 164 0 l 257
 26 0 l 257
 155 582 l 257
173 765 m 256
 173 818 216 861 269 861 c 256
 322 861 365 818 365 765 c 256
 365 739 355 716 339 699 c 257
 339 699 l 257
 490 0 l 257
 353 0 l 257
 333 85 l 257
 239 85 l 257
 269 223 l 257
 305 223 l 257
 200 698 l 257
 183 715 173 739 173 765 c 256
237 765 m 256
 237 747 251 733 269 733 c 256
 287 733 301 747 301 765 c 256
 301 783 287 797 269 797 c 256
 251 797 237 783 237 765 c 256
EndSplineSet
Layer: 3
EndChar

StartChar: B
Encoding: 66 66 8
GlifName: B_
Width: 496
VWidth: 0
GlyphClass: 2
Flags: HMW
LayerCount: 4
Back
Fore
SplineSet
42 0 m 257
 42 700 l 257
 82 700 l 257
 82 0 l 257
 42 0 l 257
127 -1 m 257
 127 37 l 257
 151 37 223 37 223 37 c 2
 386 37 434 132 434 205 c 256
 434 277 397 333 288 333 c 2
 288 333 147 333 127 333 c 257
 127 371 l 257
 142 371 288 371 288 371 c 2
 399 371 430 426 430 497 c 256
 430 567 381 662 256 662 c 2
 256 662 150 662 127 662 c 257
 127 700 l 257
 135 700 258 700 258 700 c 258
 410 700 470 588 470 497 c 256
 470 427 436 378 401 352 c 257
 439 322 474 289 474 205 c 256
 474 85 383 -1 262 -1 c 258
 262 -1 137 -1 127 -1 c 257
EndSplineSet
Layer: 2
SplineSet
42 700 m 261
 183 700 l 261
 183 0 l 261
 42 0 l 261
 42 700 l 261
237 122 m 261
 324 122 340 179 340 205 c 260
 340 227 327 289 237 289 c 261
 237 411 l 261
 297 411 338 446 338 497 c 260
 338 547 296 576 237 577 c 261
 237 700 l 261
 245 701 253 701 261 701 c 260
 413 701 470 574 470 514 c 262
 470 513 l 262
 469 421 436 378 401 352 c 261
 439 322 474 285 474 201 c 260
 474 199 474 198 474 197 c 260
 473 86 382 -2 265 -2 c 260
 256 -2 246 -1 237 0 c 261
 237 122 l 261
EndSplineSet
Layer: 3
EndChar

StartChar: C
Encoding: 67 67 9
GlifName: C_
Width: 494
VWidth: 0
GlyphClass: 2
Flags: MW
LayerCount: 4
Back
Fore
SplineSet
38 181 m 257
 38 518 l 257
 38 578 92 706 239 705 c 257
 239 667 l 257
 125 667 78 568 78 518 c 257
 78 181 l 257
 78 131 126 33 239 33 c 257
 239 -5 l 257
 91 -5 38 121 38 181 c 257
284 -5 m 257
 284 33 l 257
 284 33 400 35 431 139 c 256
 434.091462181 149.304873937 436.386496161 161.202604276 437.885101939 170.999999521 c 4
 439.29503398 180.217674825 440 187.576218484 440 190 c 257
 474 182 l 257
 474 76 381 -5 284 -5 c 257
284 667 m 257
 284 705 l 257
 381 706 474 612 474 516 c 257
 438 507 l 257
 438 512.465166501 437.823266007 518.107066996 437.172603958 524 c 0
 436.275535187 532.124595836 434.477615461 540.726358771 431 550 c 256
 390 666 284 667 284 667 c 257
EndSplineSet
Layer: 2
SplineSet
235 705 m 257
 235 564 l 257
 189 563 179 523 179 518 c 257
 179 181 l 257
 179 176 189 136 235 136 c 257
 235 -5 l 257
 92 -5 38 121 38 181 c 257
 38 518 l 257
 38 578 92 705 235 705 c 257
289 136 m 257
 289 136 321 143 331 166 c 256
 336 178 336 189 336 203 c 258
 336 215 l 257
 474 182 l 257
 474 76 381 -5 289 -5 c 257
 289 136 l 257
289 564 m 257
 289 705 l 257
 381 705 474 612 474 516 c 257
 336 480 l 257
 336 495 l 258
 336 509 336 520 331 532 c 256
 321 555 289 564 289 564 c 257
EndSplineSet
Layer: 3
EndChar

StartChar: D
Encoding: 68 68 11
GlifName: D_
Width: 472
VWidth: 0
GlyphClass: 2
Flags: MW
LayerCount: 4
Back
Fore
SplineSet
42 0 m 261
 42 700 l 261
 82 700 l 261
 82 0 l 261
 42 0 l 261
127 0 m 261
 127 38 l 261
 270 38 394 41 394 197 c 262
 394 503 l 261
 394 669 263 662 127 662 c 261
 127 700 l 261
 281 700 434 706 434 503 c 261
 434 197 l 261
 434 0 287 0 127 0 c 261
EndSplineSet
Layer: 2
SplineSet
42 0 m 257
 42 700 l 257
 183 700 l 257
 183 0 l 257
 42 0 l 257
237 0 m 257
 237 141 l 257
 243 141 292 149 293 197 c 258
 293 503 l 257
 293 508 285 558 237 559 c 257
 237 700 l 257
 380 700 434 566 434 503 c 257
 434 197 l 257
 434 50 297 0 237 0 c 257
EndSplineSet
Layer: 3
EndChar

StartChar: E
Encoding: 69 69 12
GlifName: E_
Width: 444
VWidth: 0
GlyphClass: 2
Flags: MW
LayerCount: 4
Back
Fore
SplineSet
42 0 m 261
 42 700 l 261
 406 700 l 261
 406 662 l 261
 82 662 l 261
 82 368 l 261
 312 368 l 261
 312 330 l 261
 82 330 l 261
 82 38 l 261
 406 38 l 261
 406 0 l 261
 42 0 l 261
EndSplineSet
Layer: 2
SplineSet
406 141 m 257
 406 0 l 257
 42 0 l 257
 42 700 l 257
 406 700 l 257
 406 560 l 257
 183 560 l 257
 183 418 l 257
 312 418 l 257
 312 277 l 257
 183 277 l 257
 183 141 l 257
 406 141 l 257
EndSplineSet
Layer: 3
EndChar

StartChar: Euro
Encoding: 259 8364 13
GlifName: E_U_R_O_
Width: 494
VWidth: 0
GlyphClass: 2
Flags: MW
LayerCount: 4
Back
Fore
SplineSet
51 292 m 1
 51 317 l 1
 89 317 l 1
 89 377 l 1
 51 377 l 1
 51 402 l 1
 89 402 l 1
 89 518 l 2
 89 578 143 706 290 705 c 1
 290 667 l 1
 176 667 129 568 129 518 c 2
 129 402 l 1
 409 402 l 1
 409 377 l 1
 129 377 l 1
 129 317 l 1
 409 317 l 1
 409 292 l 1
 129 292 l 1
 129 181 l 2
 129 131 177 33 290 33 c 1
 290 -5 l 1
 142 -5 89 121 89 181 c 2
 89 292 l 1
 51 292 l 1
335 -5 m 1
 335 33 l 1
 335 33 451 35 482 139 c 0
 488 159 491 185 491 190 c 1
 525 182 l 1
 525 76 432 -5 335 -5 c 1
335 667 m 1
 335 705 l 1
 432 706 525 612 525 516 c 1
 489 507 l 1
 489 520 488 534 482 550 c 0
 441 666 335 667 335 667 c 1
EndSplineSet
Layer: 2
SplineSet
278 698 m 257
 278 558 l 257
 239 543 236 532 236 488 c 258
 236 436 l 257
 408 436 l 257
 408 376 l 257
 236 376 l 257
 236 317 l 257
 408 317 l 257
 408 258 l 257
 236 258 l 257
 236 202 l 258
 236 155 254 154 278 141 c 257
 278 2 l 257
 197 8 168 45 134 90 c 256
 113 118 101 149 99 182 c 258
 99 258 l 257
 50 258 l 257
 50 317 l 257
 99 317 l 257
 99 377 l 257
 50 377 l 257
 50 436 l 257
 99 436 l 257
 99 496 l 258
 99 540 106 576 134 613 c 256
 172 666 217 696 278 698 c 257
338 2 m 257
 338 142 l 257
 366 151 381 165 381 199 c 258
 380 237 l 257
 517 186 l 257
 517 156 501 102 464 64 c 256
 426 25 387 3 338 2 c 257
338 698 m 257
 387 697 426 675 464 636 c 256
 501 598 517 544 517 514 c 257
 380 463 l 257
 381 501 l 258
 381 535 366 549 338 558 c 257
 338 698 l 257
EndSplineSet
Layer: 3
EndChar

StartChar: Eth
Encoding: 260 208 18
GlifName: E_th
Width: 452
VWidth: 0
GlyphClass: 2
Flags: MW
LayerCount: 4
Back
Fore
SplineSet
26 335 m 1
 26 373 l 1
 82 373 l 1
 82 700 l 1
 122 700 l 1
 122 373 l 1
 178 373 l 1
 178 335 l 1
 122 335 l 1
 122 0 l 1
 82 0 l 1
 82 335 l 1
 26 335 l 1
167 0 m 1
 167 38 l 1
 310 38 434 41 434 197 c 2
 434 503 l 2
 434 669 303 662 167 662 c 1
 167 700 l 1
 321 700 474 706 474 503 c 2
 474 197 l 2
 474 0 327 0 167 0 c 1
EndSplineSet
Layer: 2
SplineSet
224 420 m 257
 280 420 l 257
 280 292 l 257
 224 292 l 257
 224 0 l 257
 83 0 l 257
 83 292 l 257
 26 292 l 257
 26 420 l 257
 83 420 l 257
 83 700 l 257
 224 700 l 257
 224 420 l 257
278 0 m 257
 278 141 l 257
 284 141 333 149 334 197 c 258
 334 503 l 258
 334 508 326 558 278 559 c 257
 278 700 l 257
 421 700 475 566 475 503 c 258
 475 197 l 258
 475 50 338 0 278 0 c 257
EndSplineSet
Layer: 3
EndChar

StartChar: F
Encoding: 70 70 19
GlifName: F_
Width: 432
VWidth: 0
GlyphClass: 2
Flags: MW
LayerCount: 4
Back
Fore
SplineSet
42 1 m 257
 42 700 l 257
 406 700 l 257
 406 662 l 261
 82 662 l 261
 82 368 l 257
 312 368 l 257
 312 330 l 257
 82 330 l 257
 82 1 l 257
 42 1 l 257
EndSplineSet
Layer: 2
SplineSet
312 418 m 257
 312 277 l 257
 183 277 l 257
 183 1 l 257
 42 1 l 257
 42 700 l 257
 406 700 l 257
 406 560 l 257
 183 560 l 257
 183 418 l 257
 312 418 l 257
EndSplineSet
Layer: 3
EndChar

StartChar: G
Encoding: 71 71 20
GlifName: G_
Width: 507
VWidth: 0
GlyphClass: 2
Flags: MW
LayerCount: 4
Back
Fore
SplineSet
38 192 m 257
 38 524 l 257
 38 586 102 706 238 705 c 257
 238 667 l 257
 155 667 78 596 78 508 c 257
 78 192 l 258
 78 77 198 33 238 33 c 257
 238 -5 l 257
 173 -5 38 48 38 192 c 257
283 -5 m 257
 283 33 l 257
 336 33 433 102 433 190 c 258
 433 315 l 257
 283 315 l 257
 283 353 l 257
 473 353 l 257
 473 176 l 258
 473 95 370 -5 283 -5 c 257
283 667 m 257
 283 705 l 257
 381 706 473 612 473 516 c 257
 434 502 l 257
 434 507.492350742 433.777059202 512.824589457 433.347509943 518.00000086 c 6
 424.235605639 627.784507496 322.154209996 667 283 667 c 257
EndSplineSet
Layer: 2
SplineSet
234 -5 m 257
 174 -5 38 48 38 192 c 257
 38 524 l 257
 46 589 102 705 234 705 c 257
 234 564 l 257
 188 563 179 513 179 508 c 257
 179 192 l 258
 180 146 229 136 234 136 c 257
 234 -5 l 257
473 353 m 257
 473 176 l 258
 473 95 370 -4 288 -5 c 257
 288 136 l 257
 294 136 331 155 331 190 c 258
 331 223 l 257
 288 223 l 257
 288 353 l 257
 473 353 l 257
288 564 m 257
 288 705 l 257
 381 705 473 612 473 516 c 257
 335 465 l 257
 335 495 l 258
 335 509 335 520 330 532 c 256
 320 555 288 564 288 564 c 257
EndSplineSet
Layer: 3
EndChar

StartChar: H
Encoding: 72 72 21
GlifName: H_
Width: 478
VWidth: 0
GlyphClass: 2
Flags: MW
LayerCount: 4
Back
Fore
SplineSet
42 0 m 257
 42 700 l 257
 82 700 l 257
 82 371 l 257
 216 371 l 257
 216 333 l 257
 82 333 l 257
 82 0 l 257
 42 0 l 257
262 333 m 257
 262 371 l 257
 396 371 l 257
 396 700 l 257
 436 700 l 257
 436 0 l 257
 396 0 l 257
 396 333 l 257
 262 333 l 257
EndSplineSet
Layer: 2
SplineSet
212 421 m 257
 212 283 l 257
 183 283 l 257
 183 0 l 257
 42 0 l 257
 42 700 l 257
 183 700 l 257
 183 421 l 257
 212 421 l 257
295 700 m 257
 436 700 l 257
 436 0 l 257
 295 0 l 257
 295 283 l 257
 266 283 l 257
 266 421 l 257
 295 421 l 257
 295 700 l 257
EndSplineSet
Layer: 3
EndChar

StartChar: uni5713
Encoding: 261 22291 22
GlifName: H_K_D_
Width: 843
VWidth: 0
GlyphClass: 2
Flags: MW
LayerCount: 4
Back
Fore
SplineSet
50 488 m 257
 50 698 l 257
 92 698 l 257
 92 614 l 257
 101 614 l 257
 101 573 l 257
 92 573 l 257
 92 488 l 257
 50 488 l 257
117 573 m 257
 117 614 l 257
 126 614 l 257
 126 698 l 257
 169 698 l 257
 169 488 l 257
 126 488 l 257
 126 573 l 257
 117 573 l 257
198 488 m 257
 198 698 l 257
 241 698 l 257
 241 488 l 257
 198 488 l 257
257 611 m 257
 283 698 l 257
 325 698 l 257
 299 611 l 257
 326 488 l 257
 284 488 l 257
 257 611 l 257
EndSplineSet
Refer: 105 36 N 1 0 0 1 322 0 2
Layer: 2
SplineSet
101 614 m 257
 101 573 l 257
 92 573 l 257
 92 488 l 257
 50 488 l 257
 50 698 l 257
 92 698 l 257
 92 614 l 257
 101 614 l 257
126 698 m 257
 169 698 l 257
 169 488 l 257
 126 488 l 257
 126 573 l 257
 117 573 l 257
 117 614 l 257
 126 614 l 257
 126 698 l 257
198 698 m 257
 241 698 l 257
 241 488 l 257
 198 488 l 257
 198 698 l 257
283 698 m 257
 325 698 l 257
 299 611 l 257
 326 488 l 257
 284 488 l 257
 257 611 l 257
 283 698 l 257
EndSplineSet
Refer: 105 36 N 1 0 0 1 322 0 2
Layer: 3
EndChar

StartChar: I
Encoding: 73 73 23
GlifName: I_
Width: 124
VWidth: 0
GlyphClass: 2
Flags: MW
LayerCount: 4
Back
Fore
SplineSet
42 0 m 261
 42 700 l 261
 82 700 l 257
 82 0 l 257
 42 0 l 261
EndSplineSet
Layer: 2
SplineSet
-8 700 m 257
 133 700 l 257
 133 0 l 257
 -8 0 l 257
 -8 700 l 257
EndSplineSet
Layer: 3
EndChar

StartChar: J
Encoding: 74 74 28
GlifName: J_
Width: 484
VWidth: 0
GlyphClass: 2
Flags: MW
LayerCount: 4
Back
Fore
SplineSet
15 193 m 257
 15 242 l 257
 55 242 l 257
 55 200 l 258
 55 86 155 33 206 33 c 257
 206 -5 l 257
 146 -5 15 54 15 193 c 257
252 -5 m 261
 252 33 l 261
 295 33 412 84 412 193 c 262
 412 700 l 257
 452 700 l 257
 452 193 l 257
 452 49 312 -5 252 -5 c 261
EndSplineSet
Layer: 2
SplineSet
202 -5 m 257
 142 -5 15 54 15 193 c 257
 15 242 l 257
 156 242 l 257
 156 193 l 258
 157 147 197 137 202 137 c 257
 202 -5 l 257
256 -5 m 257
 256 137 l 257
 261 137 311 147 312 193 c 258
 312 700 l 257
 452 700 l 257
 452 193 l 257
 452 49 316 -5 256 -5 c 257
EndSplineSet
Layer: 3
EndChar

StartChar: K
Encoding: 75 75 29
GlifName: K_
Width: 488
VWidth: 0
GlyphClass: 2
Flags: MW
LayerCount: 4
Back
Fore
SplineSet
42 0 m 257
 42 700 l 257
 82 700 l 257
 82 0 l 257
 42 0 l 257
127 341 m 257
 419 700 l 257
 469 700 l 257
 177 341 l 257
 473 0 l 257
 423 0 l 261
 127 341 l 257
EndSplineSet
Layer: 2
SplineSet
42 700 m 257
 183 700 l 257
 183 0 l 257
 42 0 l 257
 42 700 l 257
330 700 m 257
 469 700 l 257
 363 341 l 257
 473 0 l 257
 335 0 l 257
 223 341 l 257
 330 700 l 257
EndSplineSet
Layer: 3
EndChar

StartChar: L
Encoding: 76 76 30
GlifName: L_
Width: 433
VWidth: 0
GlyphClass: 2
Flags: MW
LayerCount: 4
Back
Fore
SplineSet
42 0 m 261
 42 700 l 261
 82 700 l 261
 82 38 l 261
 418 38 l 261
 418 0 l 261
 42 0 l 261
EndSplineSet
Layer: 2
SplineSet
418 139 m 257
 418 0 l 257
 42 0 l 257
 42 700 l 257
 183 700 l 257
 183 139 l 257
 418 139 l 257
EndSplineSet
Layer: 3
EndChar

StartChar: Lslash
Encoding: 262 321 31
GlifName: L_slash
Width: 428
VWidth: 0
GlyphClass: 2
Flags: MW
LayerCount: 4
Back
Fore
SplineSet
51 271 m 1
 129 331 l 1
 129 700 l 1
 169 700 l 1
 169 361 l 1
 237 414 l 1
 262 382 l 1
 169 311 l 1
 169 38 l 1
 505 38 l 1
 505 0 l 1
 129 0 l 1
 129 280 l 1
 76 239 l 1
 51 271 l 1
EndSplineSet
Layer: 2
SplineSet
348 553 m 257
 420 460 l 257
 270 343 l 257
 270 139 l 257
 505 139 l 257
 505 0 l 257
 129 0 l 257
 129 233 l 257
 98 209 l 257
 26 302 l 257
 129 382 l 257
 129 700 l 257
 270 700 l 257
 270 492 l 257
 348 553 l 257
EndSplineSet
Layer: 3
EndChar

StartChar: M
Encoding: 77 77 32
GlifName: M_
Width: 696
VWidth: 0
GlyphClass: 2
Flags: MW
LayerCount: 4
Back
Fore
SplineSet
42 0 m 257
 42 549 l 261
 51 549 l 261
 82 472 l 261
 82 0 l 257
 42 0 l 257
42 678 m 257
 42 700 l 257
 79 700 l 257
 343 59 l 257
 559 547 l 257
 569 547 l 257
 569 469 l 257
 362 0 l 257
 324 0 l 257
 42 678 l 257
614 0 m 257
 614 700 l 257
 654 700 l 257
 654 0 l 257
 614 0 l 257
EndSplineSet
Layer: 2
SplineSet
42 0 m 257
 42 444 l 257
 51 444 l 257
 183 127 l 257
 183 0 l 257
 42 0 l 257
42 700 m 257
 152 700 l 257
 343 237 l 257
 449 476 l 257
 459 476 l 257
 459 151 l 257
 392 0 l 257
 295 0 l 257
 42 608 l 257
 42 700 l 257
513 700 m 257
 654 700 l 257
 654 0 l 257
 513 0 l 257
 513 700 l 257
EndSplineSet
Layer: 3
EndChar

StartChar: N
Encoding: 78 78 33
GlifName: N_
Width: 529
VWidth: 0
GlyphClass: 2
Flags: MW
LayerCount: 4
Back
Fore
SplineSet
42 0 m 257
 42 596 l 257
 50 596 l 257
 82 544 l 257
 82 0 l 257
 42 0 l 257
42 676 m 257
 42 700 l 257
 81 700 l 257
 487 53 l 257
 487 0 l 257
 466 0 l 257
 42 676 l 257
447 189 m 261
 447 700 l 257
 487 700 l 257
 487 136 l 261
 479 136 l 261
 447 189 l 261
EndSplineSet
Layer: 2
SplineSet
42 0 m 257
 42 492 l 257
 50 492 l 257
 183 278 l 257
 183 0 l 257
 42 0 l 257
42 700 m 257
 157 700 l 257
 487 168 l 257
 487 0 l 257
 420 0 l 257
 42 608 l 261
 42 700 l 257
487 700 m 257
 487 284 l 257
 479 284 l 257
 346 498 l 257
 346 700 l 257
 487 700 l 257
EndSplineSet
Layer: 3
EndChar

StartChar: O
Encoding: 79 79 35
GlifName: O_
Width: 524
VWidth: 0
GlyphClass: 2
Flags: MW
LayerCount: 4
Back
Fore
SplineSet
38 195 m 262
 38 524 l 262
 38 584 103 705 235 705 c 261
 235 666 l 261
 137 666 78 566 78 508 c 262
 78 195 l 262
 78 93 180 34 234 34 c 261
 234 -5 l 261
 174 -5 38 51 38 195 c 262
289 -5 m 257
 289 34 l 257
 345 34 446 90 446 195 c 258
 446 508 l 258
 446 571 388 666 289 666 c 257
 289 705 l 257
 420 705 486 583 486 524 c 258
 486 195 l 258
 486 51 349 -5 289 -5 c 257
EndSplineSet
Layer: 2
SplineSet
234 -5 m 257
 174 -5 38 51 38 195 c 258
 38 524 l 258
 38 584 103 705 235 705 c 257
 235 564 l 257
 189 563 179 513 179 508 c 258
 179 195 l 258
 179 149 229 137 234 137 c 257
 234 -5 l 257
289 -5 m 257
 289 137 l 257
 294 137 344 149 345 195 c 258
 345 508 l 258
 345 513 335 563 289 564 c 257
 289 705 l 257
 420 705 486 583 486 524 c 258
 486 195 l 258
 486 51 349 -5 289 -5 c 257
EndSplineSet
Layer: 3
EndChar

StartChar: OE
Encoding: 263 338 36
GlifName: O_E_
Width: 422
VWidth: 0
GlyphClass: 2
Flags: MW
LayerCount: 4
Back
Fore
SplineSet
-27 197 m 6
 -27 503 l 6
 -27 706 104 700 258 700 c 5
 258 662 l 5
 122 662 13 669 13 503 c 6
 13 197 l 6
 13 41 115 38 258 38 c 5
 258 0 l 5
 98 0 -27 0 -27 197 c 6
303 0 m 1
 303 38 l 1
 334 38 l 1
 334 662 l 1
 303 662 l 1
 303 700 l 1
 698 700 l 1
 698 662 l 1
 374 662 l 1
 374 368 l 1
 604 368 l 1
 604 330 l 1
 374 330 l 1
 374 38 l 1
 698 38 l 1
 698 0 l 1
 303 0 l 1
EndSplineSet
Layer: 2
SplineSet
222 0 m 257
 162 0 26 56 26 200 c 258
 26 519 l 258
 26 579 91 700 223 700 c 257
 223 559 l 257
 177 558 167 508 167 503 c 258
 167 200 l 258
 167 154 217 142 222 142 c 257
 222 0 l 257
698 141 m 257
 698 0 l 257
 277 0 l 257
 277 142 l 257
 334 142 l 257
 334 559 l 257
 277 559 l 257
 277 700 l 257
 698 700 l 257
 698 560 l 257
 475 560 l 257
 475 418 l 257
 604 418 l 257
 604 277 l 257
 475 277 l 257
 475 141 l 257
 698 141 l 257
EndSplineSet
Layer: 3
EndChar

StartChar: Oslash
Encoding: 264 216 41
GlifName: O_slash
Width: 674
VWidth: 0
GlyphClass: 2
Flags: MW
LayerCount: 4
Back
Fore
SplineSet
24 100 m 1
 108 177 l 1
 108 524 l 0
 108 584 173 705 305 705 c 1
 305 666 l 1
 207 666 148 566 148 508 c 2
 148 212 l 1
 512 539 l 1
 497 598 443 666 359 666 c 1
 359 705 l 1
 461 705 523 631 546 570 c 1
 610 627 l 1
 636 600 l 1
 556 528 l 1
 556 195 l 2
 556 51 419 -5 359 -5 c 1
 359 34 l 1
 415 34 516 90 516 195 c 2
 516 492 l 1
 151 164 l 1
 169 81 256 34 304 34 c 1
 304 -5 l 1
 253 -5 149 35 117 134 c 1
 51 74 l 1
 24 100 l 1
EndSplineSet
Layer: 2
SplineSet
584 658 m 257
 662 570 l 257
 556 474 l 257
 556 195 l 258
 556 51 419 -5 359 -5 c 257
 359 137 l 257
 364 137 414 149 415 195 c 258
 415 347 l 257
 249 197 l 257
 249 195 l 258
 249 149 299 137 304 137 c 257
 304 -5 l 257
 261 -5 178 24 135 94 c 257
 78 43 l 257
 0 131 l 257
 108 228 l 257
 108 524 l 258
 108 584 173 705 305 705 c 257
 305 564 l 257
 259 563 249 513 249 508 c 258
 249 356 l 257
 415 505 l 257
 415 508 l 258
 415 513 405 563 359 564 c 257
 359 705 l 257
 441 705 497 658 528 607 c 257
 584 658 l 257
EndSplineSet
Layer: 3
EndChar

StartChar: P
Encoding: 80 80 43
GlifName: P_
Width: 479
VWidth: 0
GlyphClass: 2
Flags: MW
LayerCount: 4
Back
Fore
SplineSet
42 0 m 257
 42 700 l 257
 82 700 l 257
 82 0 l 257
 42 0 l 257
127 318 m 257
 127 356 l 257
 237 356 l 258
 354 356 423 390 423 508 c 260
 423 632 360 662 236 662 c 258
 127 662 l 257
 127 700 l 257
 333 700 464 706 464 512 c 256
 464 306 322 318 127 318 c 257
EndSplineSet
Layer: 2
SplineSet
42 700 m 257
 183 700 l 257
 183 0 l 257
 42 0 l 257
 42 700 l 257
237 457 m 257
 270 457 l 258
 277 457 321 458 321 508 c 256
 321 559 279 561 270 561 c 258
 237 561 l 257
 237 700 l 257
 418 700 464 626 464 512 c 256
 464 369 394 318 237 318 c 257
 237 457 l 257
EndSplineSet
Layer: 3
EndChar

StartChar: percent
Encoding: 37 37 44
GlifName: P_ercent_sign
Width: 267
VWidth: 0
GlyphClass: 2
Flags: MW
LayerCount: 4
Back
Fore
SplineSet
71 576 m 4
 71 590 83 602 97 602 c 4
 111 602 123 590 123 576 c 4
 123 562 111 550 97 550 c 4
 83 550 71 562 71 576 c 4
26 -23 m 257
 201 716 l 257
 241 716 l 257
 67 -23 l 257
 26 -23 l 257
142 115 m 0
 142 129 154 141 168 141 c 0
 182 141 194 129 194 115 c 0
 194 101 182 89 168 89 c 0
 154 89 142 101 142 115 c 0
EndSplineSet
Layer: 2
SplineSet
-151 575 m 256
 -151 635 -103 683 -43 683 c 256
 17 683 65 635 65 575 c 256
 65 515 17 467 -43 467 c 256
 -103 467 -151 515 -151 575 c 256
-17 -23 m 257
 158 716 l 257
 284 716 l 257
 110 -23 l 257
 -17 -23 l 257
210 117 m 256
 210 177 258 225 318 225 c 256
 378 225 426 177 426 117 c 256
 426 57 378 9 318 9 c 256
 258 9 210 57 210 117 c 256
EndSplineSet
Layer: 3
EndChar

StartChar: Q
Encoding: 81 81 45
GlifName: Q_
Width: 526
VWidth: 0
GlyphClass: 2
Flags: MW
LayerCount: 4
Back
Fore
SplineSet
38 195 m 258
 38 524 l 258
 38 584 103 706 239 705 c 257
 239 667 l 257
 137 667 78 574 78 508 c 258
 78 195 l 258
 78 64 215 33 239 33 c 257
 239 -5 l 257
 172 -5 38 51 38 195 c 258
285 -5 m 257
 285 33 l 257
 305 33 445 66 445 195 c 258
 445 508 l 258
 445 574 387 667 285 667 c 257
 285 705 l 257
 420 706 486 583 486 524 c 258
 486 195 l 258
 486 77 396 27 334 2 c 257
 392 -84 l 257
 360 -107 l 257
 285 -5 l 257
EndSplineSet
Layer: 2
SplineSet
234 -5 m 257
 174 -5 38 51 38 195 c 258
 38 524 l 258
 38 584 103 705 235 705 c 257
 235 564 l 257
 189 563 179 513 179 508 c 258
 179 195 l 258
 179 149 229 137 234 137 c 257
 234 -5 l 257
417 47 m 257
 472 -32 l 257
 360 -107 l 257
 289 -5 l 257
 289 137 l 257
 294 137 344 149 345 195 c 258
 345 508 l 258
 345 513 335 563 289 564 c 257
 289 705 l 257
 420 705 486 583 486 524 c 258
 486 195 l 258
 486 127 456 79 417 47 c 257
EndSplineSet
Layer: 3
EndChar

StartChar: R
Encoding: 82 82 46
GlifName: R_
Width: 505
VWidth: 0
GlyphClass: 2
Flags: MW
LayerCount: 4
Back
Fore
SplineSet
42 0 m 261
 42 700 l 261
 82 700 l 261
 82 0 l 261
 42 0 l 261
127 330 m 261
 127 368 l 261
 225 368 l 262
 343 368 422 411 422 496 c 260
 422 658 289 661 156 661 c 262
 127 661 l 261
 127 700 l 261
 246 700 463 718 463 496 c 260
 463 412 417 375 360 352 c 261
 402 340 456 297 462 217 c 262
 479 0 l 261
 439 0 l 261
 424 178 l 262
 413 305 383 330 127 330 c 261
EndSplineSet
Layer: 2
SplineSet
42 700 m 257
 183 700 l 257
 183 0 l 257
 42 0 l 257
 42 700 l 257
237 411 m 257
 250 411 l 258
 310 411 336 447 336 488 c 256
 336 536 299 567 250 567 c 258
 237 567 l 257
 237 700 l 257
 387 700 463 616 463 496 c 256
 463 428 442 381 396 352 c 257
 432 325 458 266 462 217 c 258
 479 0 l 257
 353 0 l 257
 338 178 l 258
 331 257 308 285 237 286 c 257
 237 411 l 257
EndSplineSet
Layer: 3
EndChar

StartChar: S
Encoding: 83 83 47
GlifName: S_
Width: 481
VWidth: 0
GlyphClass: 2
Flags: MW
LayerCount: 4
Back
Fore
SplineSet
20 158 m 261
 57 171 l 261
 83 42 208 35 208 35 c 261
 208 -3 l 261
 93 -3 21 103 20 158 c 261
28 514 m 260
 28 649 154 700 208 700 c 261
 208 662 l 261
 176 662 68 622 68 508 c 260
 68 387 253 387 333 365 c 260
 402 346 461 311 461 203 c 260
 461 99 368 -3 253 -3 c 261
 253 35 l 261
 306 35 421 100 421 209 c 260
 421 348 214 336 151 360 c 260
 77 388 28 421 28 514 c 260
253 662 m 261
 253 700 l 261
 363 700 425 595 433 553 c 261
 395 541 l 261
 363 658 253 662 253 662 c 261
EndSplineSet
Layer: 2
SplineSet
203 -3 m 257
 94 -3 21 103 20 158 c 257
 147 203 l 257
 149 147 203 127 203 127 c 257
 203 -3 l 257
203 700 m 257
 203 568 l 257
 182 562 162 537 162 513 c 256
 162 446 266 434 333 394 c 256
 394 358 461 311 461 209 c 256
 461 96 366 -3 258 -3 c 257
 258 127 l 257
 282 130 320 150 320 203 c 256
 320 278 211 294 151 323 c 256
 80 357 28 403 28 508 c 256
 28 647 152 699 203 700 c 257
258 700 m 257
 364 700 427 589 433 553 c 257
 303 510 l 257
 298 557 258 568 258 568 c 257
 258 700 l 257
EndSplineSet
Layer: 3
EndChar

StartChar: T
Encoding: 84 84 49
GlifName: T_
Width: 463
VWidth: 0
GlyphClass: 2
Flags: MW
LayerCount: 4
Back
Fore
SplineSet
15 662 m 261
 15 700 l 261
 448 700 l 261
 448 662 l 261
 251 662 l 261
 251 0 l 261
 211 0 l 261
 211 662 l 261
 15 662 l 261
EndSplineSet
Layer: 2
SplineSet
448 700 m 257
 448 562 l 257
 302 562 l 257
 302 0 l 257
 161 0 l 257
 161 562 l 257
 15 562 l 257
 15 700 l 257
 448 700 l 257
EndSplineSet
Layer: 3
EndChar

StartChar: Thorn
Encoding: 267 222 50
GlifName: T_horn
Width: 474
VWidth: 0
GlyphClass: 2
Flags: MW
LayerCount: 4
Back
Fore
SplineSet
76 0 m 257
 76 700 l 257
 116 700 l 257
 116 0 l 257
 76 0 l 257
167 208 m 257
 167 246 l 257
 210 246 l 262
 304 246 408 264 408 398 c 256
 408 531 308 552 208 552 c 262
 167 552 l 257
 167 590 l 257
 376 597 446 548 448 398 c 256
 450 238 344 197 167 208 c 257
EndSplineSet
Layer: 2
SplineSet
26 700 m 257
 167 700 l 257
 167 0 l 257
 26 0 l 257
 26 700 l 257
221 347 m 257
 254 347 l 258
 261 347 305 348 305 398 c 256
 305 449 263 451 254 451 c 258
 221 451 l 257
 221 590 l 257
 402 590 448 516 448 402 c 256
 448 259 378 208 221 208 c 257
 221 347 l 257
EndSplineSet
Layer: 3
EndChar

StartChar: trademark
Encoding: 268 8482 51
GlifName: T_radeM_arkS_ign
Width: 463
VWidth: 0
GlyphClass: 2
Flags: MW
LayerCount: 4
Back
Fore
SplineSet
25.58984375 687.572265625 m 261
 25.58984375 699.200195312 l 261
 158.087890625 699.200195312 l 261
 158.087890625 687.572265625 l 261
 97.8056640625 687.572265625 l 261
 97.8056640625 485 l 261
 85.56640625 485 l 261
 85.56640625 687.572265625 l 261
 25.58984375 687.572265625 l 261
180.8515625 485 m 257
 180.8515625 652.994140625 l 261
 183.606445312 652.994140625 l 261
 193.091796875 629.431640625 l 261
 193.091796875 485 l 257
 180.8515625 485 l 257
180.8515625 692.467773438 m 257
 180.8515625 699.200195312 l 257
 192.173828125 699.200195312 l 257
 272.958007812 503.053710938 l 257
 339.053710938 652.381835938 l 257
 342.114257812 652.381835938 l 257
 342.114257812 628.513671875 l 257
 278.772460938 485 l 257
 267.143554688 485 l 257
 180.8515625 692.467773438 l 257
355.883789062 485 m 257
 355.883789062 699.200195312 l 257
 368.124023438 699.200195312 l 257
 368.124023438 485 l 257
 355.883789062 485 l 257
EndSplineSet
Layer: 2
SplineSet
165 700 m 257
 165 653 l 257
 120 653 l 257
 120 484 l 257
 72 484 l 257
 72 653 l 257
 26 653 l 257
 26 700 l 257
 165 700 l 257
188 484 m 257
 188 628 l 257
 191 628 l 257
 236 522 l 257
 236 484 l 257
 188 484 l 257
188 700 m 257
 225 700 l 257
 281 564 l 257
 313 636 l 257
 317 636 l 257
 317 529 l 257
 298 484 l 257
 265 484 l 257
 188 669 l 257
 188 700 l 257
330 700 m 257
 377 700 l 257
 377 484 l 257
 330 484 l 257
 330 700 l 257
EndSplineSet
Layer: 3
EndChar

StartChar: U
Encoding: 85 85 52
GlifName: U_
Width: 512
VWidth: 0
GlyphClass: 2
Flags: MW
LayerCount: 4
Back
Fore
SplineSet
32 193 m 258
 32 700 l 257
 72 700 l 257
 72 193 l 257
 72 83 192 33 233 33 c 257
 233 -5 l 257
 173 -5 32 49 32 193 c 258
279 -5 m 257
 279 33 l 257
 322 33 439 78 439 193 c 257
 439 700 l 257
 479 700 l 257
 479 193 l 258
 479 48 340 -5 279 -5 c 257
EndSplineSet
Layer: 2
SplineSet
229 -5 m 257
 169 -5 32 49 32 193 c 258
 32 700 l 257
 173 700 l 257
 173 193 l 257
 174 147 224 137 229 137 c 257
 229 -5 l 257
283 -5 m 257
 283 137 l 257
 288 137 338 147 339 193 c 257
 339 700 l 257
 479 700 l 257
 479 193 l 258
 479 48 344 -5 283 -5 c 257
EndSplineSet
Layer: 3
EndChar

StartChar: V
Encoding: 86 86 57
GlifName: V_
Width: 472
VWidth: 0
GlyphClass: 2
Flags: MW
LayerCount: 4
Back
Fore
SplineSet
8 700 m 257
 47 700 l 257
 241 34 l 257
 228 0 l 257
 211 0 l 257
 8 700 l 257
241 165 m 257
 425 700 l 257
 464 700 l 257
 424 569 307 255 265 115 c 257
 255 115 l 257
 241 165 l 257
EndSplineSet
Layer: 2
SplineSet
8 700 m 257
 152 700 l 257
 311 158 l 257
 258 0 l 257
 211 0 l 257
 8 700 l 257
464 700 m 257
 424 569 383 430 341 290 c 257
 331 290 l 257
 265 514 l 257
 320 700 l 257
 464 700 l 257
EndSplineSet
Layer: 3
EndChar

StartChar: W
Encoding: 87 87 58
GlifName: W_
Width: 822
VWidth: 0
GlyphClass: 2
Flags: MW
LayerCount: 4
Back
Fore
SplineSet
265 182 m 5
 403 700 l 1
 442 700 l 1
 289 130 l 5
 279 130 l 5
 265 182 l 5
403 700 m 1
 442 700 l 1
 615 38 l 1
 602 0 l 1
 587 0 l 1
 403 700 l 1
40 700 m 1
 79 700 l 1
 269 44 l 1
 258 0 l 1
 243 0 l 1
 40 700 l 1
620 181 m 1
 773 700 l 1
 812 700 l 1
 645 130 l 1
 635 130 l 1
 620 181 l 1
EndSplineSet
Layer: 2
SplineSet
40 700 m 257
 184 700 l 257
 343 158 l 257
 290 0 l 257
 243 0 l 257
 40 700 l 257
297 514 m 257
 352 700 l 257
 496 700 l 257
 456 569 415 430 373 290 c 257
 363 290 l 257
 297 514 l 257
352 700 m 257
 496 700 l 257
 654 158 l 257
 602 0 l 257
 555 0 l 257
 352 700 l 257
613 514 m 257
 668 700 l 257
 812 700 l 257
 689 290 l 257
 679 290 l 257
 613 514 l 257
EndSplineSet
Layer: 3
EndChar

StartChar: X
Encoding: 88 88 59
GlifName: X_
Width: 442
VWidth: 0
GlyphClass: 2
Flags: MW
LayerCount: 4
Back
Fore
SplineSet
15 0 m 5
 202 362 l 5
 27 700 l 5
 66 700 l 5
 221 398 l 5
 376 700 l 5
 415 700 l 5
 240 362 l 5
 427 0 l 5
 388 0 l 5
 221 325 l 5
 54 0 l 5
 15 0 l 5
EndSplineSet
Layer: 2
SplineSet
415 700 m 257
 291 361 l 257
 427 0 l 257
 282 0 l 257
 221 167 l 257
 160 0 l 257
 15 0 l 257
 151 361 l 257
 27 700 l 257
 164 700 l 257
 221 548 l 257
 278 700 l 257
 415 700 l 257
EndSplineSet
Layer: 3
EndChar

StartChar: Y
Encoding: 89 89 60
GlifName: Y_
Width: 451
VWidth: 0
GlyphClass: 2
Flags: MW
LayerCount: 4
Back
Fore
SplineSet
12 700 m 257
 53 700 l 257
 236 253 l 257
 236 0 l 257
 196 0 l 257
 196 252 l 257
 12 700 l 257
239 357 m 257
 398 700 l 257
 439 700 l 257
 262 311 l 257
 258 311 l 257
 239 357 l 257
EndSplineSet
Layer: 2
SplineSet
12 700 m 257
 159 700 l 257
 289 253 l 257
 289 0 l 257
 143 0 l 257
 143 252 l 257
 12 700 l 257
255 565 m 257
 294 700 l 257
 439 700 l 257
 330 331 l 257
 321 331 l 257
 255 565 l 257
EndSplineSet
Layer: 3
EndChar

StartChar: Z
Encoding: 90 90 63
GlifName: Z_
Width: 400
VWidth: 0
GlyphClass: 2
Flags: MW
LayerCount: 4
Back
Fore
SplineSet
30 0 m 257
 30 35 l 257
 353 662 l 261
 30 662 l 257
 30 700 l 257
 396 700 l 257
 396 665 l 257
 73 38 l 257
 397 38 l 257
 396 0 l 257
 30 0 l 257
EndSplineSet
Layer: 2
SplineSet
186 144 m 257
 396 144 l 257
 396 0 l 257
 30 0 l 257
 30 141 l 257
 240 560 l 257
 30 560 l 257
 30 700 l 257
 396 700 l 257
 396 563 l 257
 186 144 l 257
EndSplineSet
Layer: 3
EndChar

StartChar: a
Encoding: 97 97 65
GlifName: a
Width: 434
VWidth: 0
GlyphClass: 2
Flags: MW
LayerCount: 4
Back
SplineSet
25 121 m 262
 25 167 l 262
 25 200 32 233 74 257 c 260
 128 288 343 316 343 363 c 260
 343 441 275 483 226 483 c 261
 226 519 l 261
 333 519 383 432 383 361 c 262
 383 74 l 262
 383 69 385 40 406 40 c 262
 409 40 l 261
 409 1 l 261
 406 1 l 262
 369 1 355 20 343 39 c 261
 318 14 266 1 226 1 c 261
 226 39 l 261
 278 39 343 56 343 149 c 262
 343 298 l 261
 305 283 113 246 77 210 c 260
 70.3429386833 203.342938683 67.3789161478 186.530020718 66.0592002592 171.000000521 c 6
 65 158.535650005 65 146.897693793 65 142 c 260
 65 138.56738372 65.1203581054 135.234725867 65.3554539472 131.999999422 c 6
 70.3255084985 63.6161149342 126.57446221 39 181 39 c 261
 181 1 l 261
 84 1 25 64 25 121 c 262
32 389 m 261
 31 463 108 519 181 519 c 261
 181 481 l 261
 126 481 69 438 69 375 c 261
 32 389 l 261
EndSplineSet
Fore
SplineSet
25 121 m 258
 25 167 l 258
 25 200 31.0284194415 234.786417121 74 257 c 256
 125.848622504 283.802450787 342.124208028 308.114453272 342 347.471679688 c 1
 342 363 l 256
 342 441 275 483 226 483 c 257
 226 519 l 257
 333 519 383 432 383 361 c 258
 383 74 l 258
 383 66.4803299496 385.60941398 40 409 40 c 257
 409 1 l 257
 369.827395975 1 355.77078523 18.779590053 343 39 c 257
 318 14 266 1 226 1 c 257
 226 39 l 257
 278 39 343 56 343 149 c 258
 343 292 l 257
 279 258.386363636 111.01609951 245.760515347 77 210 c 256
 70.3429386833 203.342938594 66 188.530020405 66 171 c 2
 66 132 l 0
 66.9700545513 63.6161150872 126.57446221 39 181 39 c 257
 181 1 l 257
 84 1 25 64 25 121 c 258
32 389 m 257
 31 463 108 519 181 519 c 257
 181 481 l 257
 126 481 69 438 69 375 c 257
 32 389 l 257
EndSplineSet
Layer: 2
SplineSet
227 519 m 257
 230 519 l 258
 333 519 383 424 383 380 c 258
 383 143 l 258
 383 138 385 114 406 114 c 258
 409 114 l 257
 409 1 l 257
 406 1 l 258
 369 1 340 13 320 30 c 257
 297 12 267 1 231 1 c 258
 228 1 l 257
 228 113 l 257
 231 113 l 258
 261 114 267 146 267 149 c 258
 267 227 l 257
 229 205 152 190 138 183 c 256
 132 180 126 173 126 162 c 258
 126 149 l 258
 126 129 136 113 162 113 c 258
 179 113 l 257
 179 1 l 257
 82 1 25 64 25 121 c 258
 25 167 l 258
 25 200 32 233 74 257 c 256
 117 282 267 311 267 351 c 256
 267 355 267 359 267 363 c 256
 267 387 265 404 230 407 c 256
 227 408 l 257
 227 519 l 257
180 407 m 257
 177 407 l 258
 154 405 137 390 137 353 c 258
 137 349 l 257
 32 389 l 257
 32 391 l 258
 32 462 109 519 177 519 c 258
 180 519 l 257
 180 407 l 257
EndSplineSet
Layer: 3
EndChar

StartChar: acute
Encoding: 180 180 68
GlifName: acute
Width: 308
VWidth: 0
GlyphClass: 2
Flags: MW
LayerCount: 4
Back
Fore
SplineSet
115 605 m 257
 152 757 l 257
 192 757 l 257
 143 605 l 257
 115 605 l 257
EndSplineSet
Layer: 2
SplineSet
170 605 m 257
 79 605 l 257
 116 757 l 257
 243 757 l 257
 170 605 l 257
EndSplineSet
Layer: 3
EndChar

StartChar: ae
Encoding: 272 230 70
GlifName: ae
Width: 435
VWidth: 0
GlyphClass: 2
Flags: MW
LayerCount: 4
Back
Fore
SplineSet
26 121 m 2
 26 157 l 2
 26 316.965479929 343 287.804536711 343 363 c 0
 343 382 l 2
 343 436.308119579 279.256137428 483 203 483 c 0
 135.932869452 483 70 453.433483933 70 375 c 1
 33 389 l 1
 31.8011578165 477.71432158 121.137016509 520 205 520 c 0
 274 520 333.432797287 493.892353134 365 438 c 1
 390 478 438 516 507 516 c 1
 507 478 l 1
 435 478 384 413.76146789 384 359 c 0
 384 334.333333333 384 309.666666667 384 285 c 1
 675 285 l 1
 675 369 l 2
 675 428 613 480 552 480 c 1
 552 516 l 1
 628 516 715 453 715 378 c 2
 715 247 l 1
 384 247 l 1
 384 141 l 2
 384 81.865338884 459.972227579 36 532 36 c 0
 602.965517241 36 662.423260462 74.9668127684 679 133 c 1
 716 120 l 1
 693.753441451 45.0642238351 633.074562842 0 530 0 c 0
 454.549299608 0 397.185189752 28.1111032818 371 73 c 1
 340 19 290 0 227 1 c 1
 227 39 l 1
 283.512820513 39 343 52 343 149 c 2
 343 308 l 1
 303.702529272 263.857812402 66.2671123456 265.70041868 67 162 c 1
 67 142 l 0
 67 66 125 39 182 39 c 1
 182 1 l 1
 85 1 26 64 26 121 c 2
EndSplineSet
Layer: 2
SplineSet
482 402 m 258
 478 402 l 257
 478 516 l 257
 484 516 l 258
 554 516 639 450 639 378 c 258
 639 208 l 257
 384 208 l 257
 384 143 l 258
 384 121 400 109 425 108 c 258
 484 108 l 258
 517 108 536 134 541 157 c 257
 640 120 l 257
 624 55 555 0 484 0 c 258
 425 0 l 258
 380 0 345 9 321 30 c 257
 298 12 268 1 232 1 c 258
 229 1 l 257
 229 113 l 257
 232 113 l 258
 262 114 268 146 268 149 c 258
 268 227 l 257
 230 205 153 190 139 183 c 256
 133 180 127 173 127 162 c 258
 127 149 l 258
 127 129 137 113 163 113 c 258
 180 113 l 257
 180 1 l 257
 83 1 26 53 26 110 c 258
 26 180 l 258
 26 213 33 233 75 257 c 256
 118 282 268 311 268 351 c 258
 268 363 l 258
 268 387 266 407 231 407 c 258
 178 407 l 258
 155 407 138 390 138 353 c 258
 138 349 l 257
 33 389 l 257
 33 391 l 258
 33 462 110 519 178 519 c 258
 233 519 l 258
 273 519 305 504 329 483 c 257
 353 502 385 516 424 516 c 258
 429 516 l 257
 429 400 l 257
 426 400 l 258
 400 400 387 385 384 373 c 258
 384 324 l 257
 525 324 l 257
 525 369 l 258
 525 396 502 402 482 402 c 258
EndSplineSet
Layer: 3
EndChar

StartChar: ampersand
Encoding: 38 38 72
GlifName: ampersand
Width: 658
VWidth: 0
GlyphClass: 2
Flags: HMW
LayerCount: 4
Back
Fore
SplineSet
386.8359375 96 m 1
 352.956749913 57.9132587543 303.329600735 38.8295401575 254.638532168 38.8295401575 c 0
 162.563433675 38.8295401575 70.259765625 103.495170196 70.259765625 213.0859375 c 0
 70.259765625 289.112304688 116.6328125 331.663085938 141 351 c 1
 113 379 l 1
 57.7900390625 334.38671875 30.259765625 275.9296875 30.259765625 213.0859375 c 0
 30.259765625 82.0867837236 137.033761328 -0.708435049774 250.587219912 -0.708435049774 c 0
 307.894424704 -0.708435049774 366.928314059 20.3789620814 414.8359375 67 c 1
 386.8359375 96 l 1
429 549 m 256
 422 598 379 658 314 666 c 257
 314 706 l 257
 391.615234375 695.918945312 453.283203125 636.194335938 468.42578125 559 c 1
 429 549 l 256
259 666.069335938 m 256
 204 661 142 614.25 142 532 c 256
 142 476.26171875 185.339879033 443.307228654 202 426 c 258
 454.091796875 164 l 257
 492 202 527.857421875 280.657226562 528 345 c 257
 568 345 l 257
 568 260 523 175 483 134 c 257
 586 27 l 257
 542 15 l 257
 168 402 l 2
 125.679745896 445.791278979 102 473.58984375 102 532 c 0
 102 620.729492188 168.033203125 693.763671875 259 706.069335938 c 1
 259 666.069335938 l 256
EndSplineSet
Layer: 2
SplineSet
286.916015625 153.731445312 m 5
 272.140625 142.4296875 256.630859375 137.615234375 241.958007812 137.615234375 c 4
 203.434570312 137.615234375 170.557617188 171.34375 170.557617188 208.705078125 c 4
 170.557617188 226.731445312 178.211914062 245.604492188 196.579101562 261.94140625 c 5
 103.740234375 370.9140625 l 5
 58.5302734375 332.30078125 30 275.84375 30 213 c 4
 30 95.4482421875 125.896484375 0 244 0 c 4
 294.713867188 0 341.263671875 17.7412109375 377.614257812 47.2705078125 c 5
 286.916015625 153.731445312 l 5
343 526 m 260
 343 539 338 566 314 575 c 261
 314 706 l 261
 391.615234375 695.918945312 453.283203125 636.194335938 468.42578125 559 c 5
 343 526 l 260
259 574.5 m 260
 245 571.504882812 231 555.25 231 533 c 260
 231 511.26171875 241.6796875 494.875976562 255 477.5 c 261
 414 287 l 261
 424.286132812 299.883789062 434.857421875 320.657226562 438 345 c 261
 581 345 l 261
 571.810546875 271.41796875 548.837890625 222.708984375 513 174 c 261
 628 37 l 261
 487 0 l 261
 156 393 l 5
 114.798828125 446.426757812 102 481.58984375 102 532 c 4
 102 620.729492188 168.033203125 693.763671875 259 706.069335938 c 5
 259 574.5 l 260
EndSplineSet
Layer: 3
SplineSet
351 78 m 5
 339.224609375 66.6982421875 297.672851562 40 244 40 c 4
 155.4765625 40 70 115.638671875 70 213 c 4
 70 271.026367188 101.6328125 317.663085938 130 340 c 5
 103.740234375 370.9140625 l 5
 58.5302734375 332.30078125 30 275.84375 30 213 c 4
 30 95.4482421875 125.896484375 0 244 0 c 4
 294.713867188 0 341.263671875 17.7412109375 377.614257812 47.2705078125 c 5
 351 78 l 5
170 372 m 1
 600 15 l 25
 659 16 l 25
 257 356 l 1049
EndSplineSet
EndChar

StartChar: asciicircum
Encoding: 94 94 74
GlifName: asciicircum
Width: 446
VWidth: 0
GlyphClass: 2
Flags: MW
LayerCount: 4
Back
Fore
SplineSet
60 460 m 261
 209 756 l 261
 237 756 l 261
 386 460 l 261
 345 460 l 261
 222 703 l 261
 101 460 l 261
 60 460 l 261
EndSplineSet
Layer: 2
SplineSet
30 460 m 257
 179 756 l 257
 267 756 l 257
 416 460 l 257
 293 460 l 257
 222 603 l 257
 152 460 l 257
 30 460 l 257
EndSplineSet
Layer: 3
EndChar

StartChar: asciitilde
Encoding: 126 126 75
GlifName: asciitilde
Width: 628
VWidth: 0
GlyphClass: 2
Flags: MW
LayerCount: 4
Back
Fore
SplineSet
80 320 m 261
 80 358 l 261
 125 384 162 393 193 393 c 260
 280 393 329 320 417 320 c 260
 452 320 494 332 548 365 c 261
 548 329 l 261
 492 295 448 283 411 283 c 260
 319 283 269 356 187 356 c 260
 157 356 122 347 80 320 c 261
EndSplineSet
Layer: 2
SplineSet
548 281 m 257
 492 247 448 235 411 235 c 256
 319 235 269 308 187 308 c 256
 157 308 122 299 80 272 c 257
 80 405 l 257
 125 431 162 440 193 440 c 256
 280 440 329 367 417 367 c 256
 452 367 494 379 548 412 c 257
 548 281 l 257
EndSplineSet
Layer: 3
EndChar

StartChar: asterisk
Encoding: 42 42 76
GlifName: asterisk
Width: 305
VWidth: 0
GlyphClass: 2
Flags: MW
LayerCount: 4
Back
Fore
SplineSet
17 705 m 5
 40 737 l 1
 132 679 l 1
 132 785 l 1
 172 785 l 1
 172 674 l 1
 268 737 l 1
 290 705 l 1
 182 633 l 1
 290 559 l 1
 267 527 l 1
 172 595 l 1
 172 478 l 1
 132 478 l 1
 132 595 l 1
 37 531 l 1
 15 563 l 1
 124 634 l 1
 17 705 l 5
EndSplineSet
Layer: 2
SplineSet
188 478 m 261
 117 478 l 261
 117 564 l 261
 49 517 l 261
 8 574 l 261
 95 633 l 261
 7 691 l 261
 49 748 l 261
 117 704 l 261
 117 785 l 261
 188 785 l 261
 188 702 l 261
 259 748 l 261
 301 691 l 261
 213 632 l 261
 300 572 l 261
 259 515 l 261
 188 565 l 261
 188 478 l 261
EndSplineSet
Layer: 3
EndChar

StartChar: at
Encoding: 64 64 77
GlifName: at
Width: 722
VWidth: 0
GlyphClass: 2
Flags: MW
LayerCount: 4
Back
Fore
SplineSet
16 309 m 256
 16 519 188 678 408 678 c 256
 544 678 705 590 705 413 c 256
 705 182 541 161 505 161 c 260
 469 161 430 199 424 219 c 257
 413 202 378 169 329 169 c 256
 270 169 221 229 221 304 c 256
 221 425 316 483 380 483 c 256
 430 483 447 462 459 450 c 257
 465 471 l 257
 504 471 l 257
 463 308 l 258
 460 297 456 280 453 266 c 256
 449 249 470 197 511 197 c 256
 552 197 667 226 667 412 c 256
 667 554 529 640 408 640 c 256
 217 640 56 498 56 309 c 256
 56 119 197 -14 381 -14 c 256
 484 -14 563 19 643 75 c 257
 661 41 l 257
 590 -11 496 -52 381 -52 c 256
 153 -52 16 112 16 309 c 256
EndSplineSet
Layer: 2
SplineSet
627 103 m 261
 677 12 l 261
 618 -45 498 -87 383 -87 c 260
 155 -87 -24 47 -24 309 c 260
 -24 533 151 715 408 715 c 260
 570 715 746 612 746 412 c 260
 746 201 614 116 492 116 c 260
 454 116 423 137 413 161 c 261
 399 139 367 116 304 116 c 260
 228 116 165 193 165 289 c 260
 165 444 287 519 369 519 c 260
 433 519 455 493 470 477 c 261
 478 504 l 261
 562 504 l 261
 512 308 l 262
 509 297 505 280 505 266 c 260
 505 249 509 240 523 240 c 260
 558 240 626 280 626 412 c 260
 626 530 509 602 411 602 c 260
 244 602 96 481 96 312 c 260
 96 122 220 22 374 22 c 260
 461 22 547 47 627 103 c 261
EndSplineSet
Layer: 3
EndChar

StartChar: b
Encoding: 98 98 79
GlifName: b
Width: 430
VWidth: 0
GlyphClass: 2
Flags: MW
LayerCount: 4
Back
Fore
SplineSet
42 0 m 261
 42 699 l 261
 82 699 l 261
 82 0 l 261
 42 0 l 261
127 0 m 261
 127 38 l 261
 245 38 l 262
 293 38 360 86 360 143 c 261
 360 373 l 261
 360 426 300 478 245 478 c 262
 127 478 l 261
 127 516 l 261
 246 516 l 262
 328 516 400 446 400 377 c 261
 400 141 l 262
 400 92 349 0 243 0 c 262
 127 0 l 261
EndSplineSet
Layer: 2
SplineSet
42 0 m 257
 42 699 l 257
 167 699 l 257
 167 0 l 257
 42 0 l 257
282 373 m 257
 282 375 276 397 249 398 c 258
 215 398 l 257
 215 516 l 257
 248 516 l 258
 350 516 399 422 400 377 c 257
 400 141 l 258
 400 97 351 0 248 0 c 258
 215 0 l 257
 215 118 l 257
 248 118 l 258
 276 118 282 142 282 143 c 257
 282 373 l 257
EndSplineSet
Layer: 3
EndChar

StartChar: backslash
Encoding: 92 92 80
GlifName: backslash
Width: 300
VWidth: 0
GlyphClass: 2
Flags: MW
LayerCount: 4
Back
Fore
SplineSet
42 716 m 261
 83 716 l 257
 258 -23 l 257
 216 -23 l 261
 42 716 l 261
EndSplineSet
Layer: 2
SplineSet
258 -23 m 257
 131 -23 l 257
 -43 716 l 257
 83 716 l 257
 258 -23 l 257
EndSplineSet
Layer: 3
EndChar

StartChar: bar
Encoding: 124 124 81
GlifName: bar
Width: 135
VWidth: 0
GlyphClass: 2
Flags: MW
LayerCount: 4
Back
Fore
SplineSet
50 -134 m 261
 50 754 l 261
 85 754 l 261
 85 -134 l 261
 50 -134 l 261
EndSplineSet
Layer: 2
SplineSet
15 754 m 257
 120 754 l 257
 120 -134 l 257
 15 -134 l 257
 15 754 l 257
EndSplineSet
Layer: 3
EndChar

StartChar: braceleft
Encoding: 123 123 82
GlifName: braceleft
Width: 219
VWidth: 0
GlyphClass: 2
Flags: HMW
LayerCount: 4
Back
Fore
SplineSet
15 348 m 261
 51 363 76 370 77 408 c 262
 77 557 l 262
 77 706 116 735 199 735 c 261
 199 701 l 261
 127 701 117 684 117 469 c 261
 117 383 l 262
 117 366 111 354 87 348 c 261
 112 340 117 325 117 304 c 262
 117 207 l 277
 117 10 154 -4 199 -4 c 261
 199 -38 l 261
 118 -38 77 5 77 138 c 262
 77 290 l 262
 77 322 51 329 15 348 c 261
EndSplineSet
Layer: 2
SplineSet
272 735 m 257
 272 635 l 257
 204 635 205 591 204 469 c 257
 204 383 l 258
 204 366 184 354 160 348 c 257
 185 340 204 325 204 304 c 258
 204 207 l 258
 204 86 218 61 272 61 c 257
 272 -38 l 257
 266 -38 260 -38 254 -38 c 256
 165 -38 77 -31 77 192 c 258
 77 290 l 258
 77 322 51 329 15 348 c 257
 51 363 76 370 77 408 c 258
 77 504 l 258
 77 715 163 735 272 735 c 257
EndSplineSet
Layer: 3
EndChar

StartChar: braceright
Encoding: 125 125 83
GlifName: braceright
Width: 219
VWidth: 0
GlyphClass: 2
Flags: MW
LayerCount: 4
Back
Fore
SplineSet
20 -38 m 261
 20 -4 l 257
 65 -4 102 10 102 207 c 265
 102 304 l 258
 102 325 107 340 132 348 c 257
 108 354 102 366 102 383 c 258
 102 469 l 257
 102 684 92 701 20 701 c 257
 20 735 l 257
 103 735 142 706 142 557 c 258
 142 408 l 258
 143 370 168 363 204 348 c 257
 168 329 142 322 142 290 c 258
 142 138 l 258
 142 5 101 -38 20 -38 c 261
EndSplineSet
Layer: 2
SplineSet
-53 735 m 257
 56 735 142 715 142 504 c 258
 142 408 l 258
 143 370 168 363 204 348 c 257
 168 329 142 322 142 290 c 258
 142 192 l 258
 142 -31 54 -38 -35 -38 c 256
 -41 -38 -47 -38 -53 -38 c 257
 -53 61 l 257
 1 61 15 87 15 208 c 258
 15 304 l 258
 15 325 34 340 59 348 c 257
 35 354 15 366 15 383 c 256
 15 384 15 384 15 384 c 256
 15 469 l 258
 14 591 15 635 -53 635 c 257
 -53 735 l 257
EndSplineSet
Layer: 3
EndChar

StartChar: bracketleft
Encoding: 91 91 84
GlifName: bracketleft
Width: 258
VWidth: 0
GlyphClass: 2
Flags: MW
LayerCount: 4
Back
Fore
SplineSet
95 -36 m 261
 95 739 l 261
 175 739 l 261
 175 701 l 261
 136 701 l 261
 133 2 l 261
 175 2 l 261
 175 -36 l 261
 95 -36 l 261
EndSplineSet
Layer: 2
SplineSet
244 739 m 257
 244 629 l 257
 183 629 l 257
 180 74 l 257
 244 74 l 257
 244 -36 l 257
 50 -36 l 257
 50 739 l 257
 244 739 l 257
EndSplineSet
Layer: 3
Colour: ff0000
EndChar

StartChar: bracketright
Encoding: 93 93 85
GlifName: bracketright
Width: 258
VWidth: 0
GlyphClass: 2
Flags: MW
LayerCount: 4
Back
Fore
SplineSet
83 -36 m 261
 83 2 l 257
 125 2 l 257
 122 701 l 257
 83 701 l 257
 83 739 l 257
 163 739 l 257
 163 -36 l 257
 83 -36 l 261
EndSplineSet
Layer: 2
SplineSet
14 739 m 257
 208 739 l 257
 208 -36 l 257
 14 -36 l 257
 14 74 l 257
 78 74 l 257
 75 629 l 257
 14 629 l 257
 14 739 l 257
EndSplineSet
Layer: 3
Colour: ff0000
EndChar

StartChar: breve
Encoding: 162 728 86
GlifName: breve
Width: 244
VWidth: 0
GlyphClass: 2
Flags: MW
LayerCount: 4
Back
Fore
SplineSet
58 526 m 257
 90 526 l 257
 90 508 104 494 122 494 c 256
 140 494 154 508 154 526 c 257
 186 526 l 261
 186 505 166 464 122 464 c 256
 78 464 58 505 58 526 c 257
EndSplineSet
Layer: 2
SplineSet
218 526 m 257
 218 473 175 430 122 430 c 256
 69 430 26 473 26 526 c 257
 90 526 l 257
 90 508 104 494 122 494 c 256
 140 494 154 508 154 526 c 257
 218 526 l 257
EndSplineSet
Layer: 3
EndChar

StartChar: brokenbar
Encoding: 275 166 87
GlifName: brokenbar
Width: 132
VWidth: 0
GlyphClass: 2
Flags: MW
LayerCount: 4
Back
Fore
SplineSet
42 -134 m 257
 42 221 l 257
 82 221 l 257
 82 -134 l 257
 42 -134 l 257
42 399 m 257
 42 754 l 257
 82 754 l 257
 82 399 l 257
 42 399 l 257
EndSplineSet
Layer: 2
SplineSet
1 221 m 257
 123 221 l 257
 123 -134 l 257
 1 -134 l 257
 1 221 l 257
1 754 m 257
 123 754 l 257
 123 399 l 257
 1 399 l 257
 1 754 l 257
EndSplineSet
Layer: 3
EndChar

StartChar: bullet
Encoding: 276 8226 88
GlifName: bullet
Width: 352
VWidth: 0
GlyphClass: 2
Flags: HMW
LayerCount: 4
Back
Fore
SplineSet
116 345 m 260
 116 379 142 405 176 405 c 260
 210 405 236 379 236 345 c 260
 236 311 210 285 176 285 c 260
 142 285 116 311 116 345 c 260
EndSplineSet
Layer: 2
SplineSet
26 344 m 256
 26 428 92 496 176 496 c 256
 260 496 326 428 326 344 c 256
 326 260 260 194 176 194 c 256
 92 194 26 260 26 344 c 256
EndSplineSet
Layer: 3
EndChar

StartChar: c
Encoding: 99 99 89
GlifName: c
Width: 420
VWidth: 0
GlyphClass: 2
Flags: MW
LayerCount: 4
Back
Fore
SplineSet
38 141 m 259
 38 166 38 281 38 372 c 0
 38 431 91 516 198 516 c 257
 198 478 l 257
 127 478 79 414 79 369 c 258
 79 141 l 258
 79 100 127 38 197 38 c 257
 197 0 l 257
 76 0 38 94 38 141 c 259
242 477 m 257
 242 516 l 257
 323 516 389 451 389 372 c 257
 350 358 l 257
 350 363.537748235 349.721792685 368.870261565 349.188478446 374.000004033 c 2
 341.824762022 444.828731415 285.825924792 477 242 477 c 257
241 -1 m 257
 241 37 l 257
 296.818368494 37 352.636736988 83.7353539197 360.14600906 144.999997478 c 6
 360.708565966 149.589636527 361 154.260817626 361 159 c 257
 400 144 l 257
 400 65 321 -1 241 -1 c 257
EndSplineSet
Layer: 2
SplineSet
38 377 m 257
 39 421 88 516 193 516 c 258
 199 516 l 257
 199 400 l 257
 193 400 l 258
 162 400 157 377 157 375 c 258
 157 141 l 258
 157 139 162 115 202 115 c 256
 207 114 l 257
 207 0 l 257
 202 0 l 258
 87 0 38 97 38 141 c 258
 38 377 l 257
274 383 m 257
 269 397 247 399 247 399 c 258
 246 399 245 399 244 399 c 258
 241 399 l 257
 241 516 l 257
 247 516 l 258
 320 516 389 448 389 376 c 258
 389 372 l 257
 278 330 l 257
 278 360 l 258
 278 370 278 375 274 383 c 257
251 -1 m 257
 251 116 l 257
 257 116 l 257
 259 116 280 119 285 132 c 257
 289 140 289 146 289 156 c 258
 289 186 l 257
 400 144 l 257
 400 140 l 258
 400 68 331 -1 258 -1 c 258
 251 -1 l 257
EndSplineSet
Layer: 3
EndChar

StartChar: caron
Encoding: 277 711 90
GlifName: caron
Width: 270
VWidth: 0
GlyphClass: 2
Flags: MW
LayerCount: 4
Back
Fore
SplineSet
43 666 m 261
 79 666 l 261
 135 553 l 261
 190 666 l 261
 226 666 l 261
 151 514 l 261
 119 514 l 261
 43 666 l 261
EndSplineSet
Layer: 2
SplineSet
26 666 m 257
 107 666 l 257
 134 609 l 257
 162 666 l 257
 244 666 l 257
 167 514 l 257
 101 514 l 257
 26 666 l 257
EndSplineSet
Layer: 3
EndChar

StartChar: cedilla
Encoding: 184 184 92
GlifName: cedilla
Width: 399
VWidth: 0
GlyphClass: 2
Flags: MW
LayerCount: 4
Back
Fore
SplineSet
123 -9 m 257
 123 29 l 261
 182 29 224 68 224 123 c 261
 264 123 l 257
 264 67 224 -9 123 -9 c 257
EndSplineSet
Layer: 2
SplineSet
199 123 m 257
 291 123 l 257
 291 47 250 -36 123 -36 c 257
 123 55 l 257
 159 55 199 68 199 123 c 257
EndSplineSet
Layer: 3
EndChar

StartChar: cent
Encoding: 278 162 93
GlifName: cent
Width: 420
VWidth: 0
GlyphClass: 2
Flags: HMW
LayerCount: 4
Back
Fore
SplineSet
242 24 m 1
 265 24 l 1
 265 -61 l 1
 242 -61 l 1
 242 24 l 1
175 24 m 1
 198 24 l 1
 198 -61 l 1
 175 -61 l 1
 175 24 l 1
242 577 m 1
 265 577 l 1
 265 492 l 1
 242 492 l 1
 242 577 l 1
175 577 m 1
 198 577 l 1
 198 492 l 1
 175 492 l 1
 175 577 l 1
38 141 m 259
 38 166 38 281 38 372 c 0
 38 431 91 516 198 516 c 257
 198 478 l 257
 127 478 79 414 79 369 c 258
 79 141 l 258
 79 100 128 38 198 38 c 257
 198 0 l 257
 77 0 38 94 38 141 c 259
242 477 m 257
 242 516 l 257
 323 516 389 451 389 372 c 257
 350 358 l 257
 350 362.112872408 349.846540915 366.112537294 349.549086325 370.000004107 c 2
 343.916068487 443.618534823 286.642621913 477 242 477 c 257
242 -1 m 257
 242 37 l 257
 296.597126093 37 350.366239359 81.7126926646 359.607123093 140.999997508 c 6
 360.521591183 146.867006548 361 152.876742906 361 159 c 257
 400 144 l 257
 400 65 322 -1 242 -1 c 257
EndSplineSet
Layer: 2
SplineSet
164 749 m 257
 235 749 l 257
 235 705 l 257
 235 595 l 257
 235 564 l 257
 189 563 179 523 179 518 c 258
 179 181 l 258
 179 176 189 136 235 136 c 257
 235 86 l 257
 235 -5 l 257
 235 -48 l 257
 164 -48 l 257
 164 7 l 257
 74 40 38 132 38 181 c 258
 38 518 l 258
 38 567 74 660 164 693 c 257
 164 749 l 257
289 136 m 257
 289 136 321 143 331 166 c 256
 336 178 336 189 336 203 c 258
 336 215 l 257
 474 182 l 257
 474 104 423 40 360 11 c 257
 360 -48 l 257
 289 -48 l 257
 289 -5 l 257
 289 86 l 257
 289 136 l 257
289 749 m 257
 360 749 l 257
 360 687 l 257
 423 656 474 587 474 516 c 257
 336 480 l 257
 336 495 l 258
 336 509 336 520 331 532 c 256
 321 555 289 564 289 564 c 257
 289 595 l 257
 289 705 l 257
 289 749 l 257
EndSplineSet
Layer: 3
EndChar

StartChar: circumflex
Encoding: 279 710 94
GlifName: circumflex
Width: 270
VWidth: 0
GlyphClass: 2
Flags: MW
LayerCount: 4
Back
Fore
SplineSet
43 514 m 261
 118 666 l 261
 150 666 l 261
 226 514 l 261
 190 514 l 261
 134 627 l 261
 79 514 l 261
 43 514 l 261
EndSplineSet
Layer: 2
SplineSet
26 514 m 257
 101 666 l 257
 167 666 l 257
 244 514 l 257
 162 514 l 257
 134 571 l 257
 107 514 l 257
 26 514 l 257
EndSplineSet
Layer: 3
EndChar

StartChar: colon
Encoding: 58 58 95
GlifName: colon
Width: 153
VWidth: 0
GlyphClass: 2
Flags: MW
LayerCount: 4
Back
Fore
SplineSet
50 21 m 0
 50 35 62 47 76 47 c 0
 90 47 102 35 102 21 c 0
 102 7 90 -5 76 -5 c 0
 62 -5 50 7 50 21 c 0
51 311 m 4
 51 325 63 337 77 337 c 4
 91 337 103 325 103 311 c 4
 103 297 91 285 77 285 c 4
 63 285 51 297 51 311 c 4
EndSplineSet
Layer: 2
SplineSet
2 70 m 256
 2 112 35 146 77 146 c 256
 119 146 152 112 152 70 c 256
 152 28 119 -5 77 -5 c 256
 35 -5 2 28 2 70 c 256
2 360 m 256
 2 402 35 436 77 436 c 256
 119 436 152 402 152 360 c 256
 152 318 119 285 77 285 c 256
 35 285 2 318 2 360 c 256
EndSplineSet
Layer: 3
EndChar

StartChar: comma
Encoding: 44 44 96
GlifName: comma
Width: 177
VWidth: 0
GlyphClass: 2
Flags: HMW
LayerCount: 4
Back
Fore
SplineSet
51 -23 m 261
 88 129 l 261
 127 129 l 257
 90 -23 l 257
 51 -23 l 261
EndSplineSet
Layer: 2
SplineSet
135 -23 m 257
 8 -23 l 257
 45 129 l 257
 172 129 l 257
 135 -23 l 257
EndSplineSet
Layer: 3
EndChar

StartChar: copyright
Encoding: 280 169 97
GlifName: copyright
Width: 764
VWidth: 0
GlyphClass: 2
Flags: HMW
LayerCount: 4
Back
Fore
SplineSet
35 339 m 0
 35 577 241 696 370 694 c 1
 370 664 l 1
 235 664 64 544 64 339 c 0
 64 174.182499363 197.076948069 17 370 17 c 1
 370 -16 l 1
 192.259511211 -16 35 139.90412546 35 339 c 0
241 247 m 259
 241 267 241 358 241 429 c 0
 241 486 282 565 371 565 c 257
 371 535 l 257
 301 535 273 470 273 426 c 258
 273 247 l 258
 273 195 312 142 371 142 c 257
 371 113 l 257
 269 113 241 199 241 247 c 259
405 -16 m 1
 405 17 l 1
 568.91314919 17 705 175.261858602 705 339 c 0
 705 521 556 664 405 664 c 1
 405 694 l 1
 558 694 734 552 734 339 c 0
 734 138.039250819 569.761328981 -16 405 -16 c 1
405 112 m 257
 405 142 l 257
 449.322887538 142 488.574121243 184.602721864 490.626131327 233.999998329 c 6
 491 243 l 261
 521 232 l 257
 521 170 468 112 405 112 c 257
405 534 m 257
 405 565 l 257
 469 565 519 508 519 446 c 257
 488 435 l 257
 488 437.03937694 488 441 488 441 c 2
 488 498.240251369 440.532821685 534 405 534 c 257
EndSplineSet
Layer: 2
SplineSet
337 16.8125 m 5
 337 -16.26953125 l 5
 186.748046875 5.5078125 40.6142578125 136.36328125 35 327.397460938 c 5
 35 339 l 4
 35 553.502929688 205.884765625 675.873046875 337 693.810546875 c 5
 337 663.959960938 l 5
 199.088867188 645.795898438 64 519.463867188 64 339 c 4
 64 331.706054688 l 5
 67.14453125 171.334960938 189.447265625 38.6728515625 337 16.8125 c 5
432 16.8125 m 5
 582.159179688 39.0517578125 701.880859375 172.635742188 705 331.706054688 c 5
 705 339 l 4
 705 520.795898438 567.380859375 646.116210938 432 663.959960938 c 5
 432 693.811523438 l 5
 565.4140625 675.567382812 734 552.346679688 734 339 c 4
 734 327.397460938 l 5
 728.317382812 134.051757812 579.353515625 5.07421875 432 -16.2685546875 c 5
 432 16.8125 l 5
EndSplineSet
Layer: 3
EndChar

StartChar: currency
Encoding: 164 164 98
GlifName: currency
Width: 598
VWidth: 0
GlyphClass: 2
Flags: MW
LayerCount: 4
Back
Fore
SplineSet
40 164 m 1
 119 236 l 1
 113 250 111 263 111 274 c 2
 111 456 l 2
 111 467 114 481 120 495 c 1
 40 567 l 1
 65 596 l 1
 139 530 l 1
 165 565 211 596 275 596 c 1
 275 558 l 1
 195 558 151 490 151 443 c 2
 151 287 l 2
 151 244 202 170 275 170 c 1
 275 132 l 1
 210 132 165 165 139 201 c 1
 65 135 l 1
 40 164 l 1
316 132 m 1
 316 170 l 1
 391 170 435 241 435 285 c 2
 435 443 l 2
 435 488 391 558 316 558 c 1
 316 596 l 1
 379 596 423 565 448 529 c 1
 523 596 l 1
 548 567 l 1
 467 494 l 1
 472 480 475 467 475 456 c 2
 475 274 l 2
 475 263 472 250 467 236 c 1
 548 164 l 1
 522 135 l 1
 448 201 l 1
 423 165 379 132 316 132 c 1
EndSplineSet
Layer: 2
SplineSet
16 540 m 257
 88 622 l 257
 164 555 l 257
 189 578 225 595 270 595 c 258
 276 595 l 257
 276 477 l 257
 270 477 l 258
 237 477 232 453 232 452 c 258
 232 276 l 258
 232 273 240 251 270 251 c 258
 276 251 l 257
 276 133 l 257
 270 133 l 258
 224 133 188 151 163 175 c 257
 88 109 l 257
 17 190 l 257
 112 275 l 256
 112 275 112 275 112 275 c 256
 112 455 l 256
 112 455 112 455 112 456 c 258
 16 540 l 257
317 477 m 257
 317 595 l 257
 323 595 l 258
 366 595 400 578 425 555 c 257
 500 622 l 257
 572 540 l 257
 476 456 l 258
 476 455 476 455 476 455 c 256
 476 275 l 256
 476 275 476 275 476 275 c 256
 571 190 l 257
 500 109 l 257
 426 174 l 257
 401 150 367 133 323 133 c 258
 317 133 l 257
 317 247 l 257
 323 247 l 258
 354 248 359 272 359 274 c 258
 359 451 l 258
 359 454 353 477 323 477 c 258
 317 477 l 257
EndSplineSet
Layer: 3
EndChar

StartChar: d
Encoding: 100 100 99
GlifName: d
Width: 430
VWidth: 0
GlyphClass: 2
Flags: MW
LayerCount: 4
Back
Fore
SplineSet
30 141 m 262
 30 377 l 261
 30 446 102 516 184 516 c 262
 303 516 l 261
 303 478 l 261
 185 478 l 262
 130 478 70 426 70 373 c 261
 70 143 l 261
 70 86 137 38 185 38 c 262
 303 38 l 261
 303 0 l 261
 187 0 l 262
 81 0 30 92 30 141 c 262
348 0 m 261
 348 699 l 261
 388 699 l 261
 388 0 l 261
 348 0 l 261
EndSplineSet
Layer: 2
SplineSet
184 516 m 258
 214 516 l 257
 214 398 l 257
 184 398 l 257
 157 397 152 375 152 373 c 258
 152 143 l 257
 152 141 158 118 186 118 c 258
 214 118 l 257
 214 0 l 257
 186 0 l 258
 82 0 34 97 34 141 c 258
 34 377 l 257
 35 422 83 516 184 516 c 258
388 0 m 257
 262 0 l 257
 262 698 l 257
 388 698 l 257
 388 0 l 257
EndSplineSet
Layer: 3
EndChar

StartChar: dagger
Encoding: 281 8224 100
GlifName: dagger
Width: 453
VWidth: 0
GlyphClass: 2
Flags: MW
LayerCount: 4
Back
Fore
SplineSet
26 493 m 261
 26 531 l 261
 206 531 l 261
 206 764 l 257
 246 764 l 257
 246 531 l 261
 427 531 l 261
 427 493 l 261
 246 493 l 261
 246 -56 l 257
 206 -56 l 257
 206 493 l 261
 26 493 l 261
EndSplineSet
Layer: 2
SplineSet
427 577 m 257
 427 450 l 257
 297 450 l 257
 297 -56 l 257
 156 -56 l 257
 156 450 l 257
 26 450 l 257
 26 577 l 257
 156 577 l 257
 156 764 l 257
 297 764 l 257
 297 577 l 257
 427 577 l 257
EndSplineSet
Layer: 3
EndChar

StartChar: daggerdbl
Encoding: 282 8225 101
GlifName: daggerdbl
Width: 453
VWidth: 0
GlyphClass: 2
Flags: MW
LayerCount: 4
Back
Fore
SplineSet
26 174 m 257
 26 212 l 257
 207 212 l 257
 207 496 l 261
 26 496 l 261
 26 534 l 261
 207 534 l 261
 207 764 l 257
 247 764 l 257
 247 534 l 261
 427 534 l 261
 427 496 l 261
 247 496 l 261
 247 212 l 257
 427 212 l 257
 427 174 l 257
 247 174 l 257
 247 -56 l 257
 207 -56 l 257
 207 174 l 257
 26 174 l 257
EndSplineSet
Layer: 2
SplineSet
156 764 m 257
 297 764 l 257
 297 577 l 257
 427 577 l 257
 427 450 l 257
 297 450 l 257
 297 258 l 257
 427 258 l 257
 427 131 l 257
 297 131 l 257
 297 -56 l 257
 156 -56 l 257
 156 131 l 257
 26 131 l 257
 26 258 l 257
 156 258 l 257
 156 450 l 257
 26 450 l 257
 26 577 l 257
 156 577 l 257
 156 764 l 257
EndSplineSet
Layer: 3
EndChar

StartChar: degree
Encoding: 176 176 102
GlifName: degree
Width: 209
VWidth: 0
GlyphClass: 2
Flags: MW
LayerCount: 4
Back
Fore
SplineSet
35 583 m 260
 35 621 66 652 104 652 c 260
 142 652 174 621 174 583 c 260
 174 545 142 514 104 514 c 260
 66 514 35 545 35 583 c 260
66 583 m 260
 66 562 83 545 104 545 c 260
 126 545 143 562 143 583 c 260
 143 605 126 622 104 622 c 260
 83 622 66 605 66 583 c 260
EndSplineSet
Layer: 2
SplineSet
-11 583 m 256
 -11 647 41 698 104 698 c 256
 168 698 220 647 220 583 c 256
 220 520 168 468 104 468 c 256
 41 468 -11 520 -11 583 c 256
66 583 m 256
 66 562 83 545 104 545 c 256
 126 545 143 562 143 583 c 256
 143 605 126 622 104 622 c 256
 83 622 66 605 66 583 c 256
EndSplineSet
Layer: 3
EndChar

StartChar: dieresis
Encoding: 168 168 103
GlifName: dieresis
Width: 266
VWidth: 0
GlyphClass: 2
Flags: HMW
LayerCount: 4
Back
Fore
SplineSet
55 679 m 256
 55 694 68 706 83 706 c 256
 98 706 110 694 110 679 c 256
 110 664 98 652 83 652 c 256
 68 652 55 664 55 679 c 256
156 679 m 260
 156 694 169 706 184 706 c 260
 199 706 211 694 211 679 c 260
 211 664 199 652 184 652 c 260
 169 652 156 664 156 679 c 260
EndSplineSet
Layer: 2
SplineSet
-27 678 m 256
 -27 720 6 754 48 754 c 256
 90 754 123 720 123 678 c 256
 123 636 90 603 48 603 c 256
 6 603 -27 636 -27 678 c 256
143 678 m 256
 143 720 176 754 218 754 c 256
 260 754 293 720 293 678 c 256
 293 636 260 603 218 603 c 256
 176 603 143 636 143 678 c 256
EndSplineSet
Layer: 3
EndChar

StartChar: divide
Encoding: 247 247 104
GlifName: divide
Width: 650
VWidth: 0
GlyphClass: 2
Flags: MW
LayerCount: 4
Back
Fore
SplineSet
100 273 m 257
 100 311 l 257
 550 311 l 257
 550 273 l 257
 100 273 l 257
EndSplineSet
Refer: 175 46 N 1 0 0 1 283 376 2
Refer: 175 46 N 1 0 0 1 283 199 2
Layer: 2
SplineSet
550 355 m 257
 550 228 l 257
 100 228 l 257
 100 355 l 257
 550 355 l 257
EndSplineSet
Refer: 175 46 N 1 0 0 1 196 415 2
Refer: 175 46 N 1 0 0 1 196 62 2
Layer: 3
EndChar

StartChar: dollar
Encoding: 36 36 105
GlifName: dollar
Width: 481
VWidth: 0
GlyphClass: 2
Flags: MW
LayerCount: 4
Back
Fore
SplineSet
20 158 m 1
 57 171 l 1
 83 42 208 35 208 35 c 1
 208 -47 l 1
 178 -47 l 1
 178 -1 l 1
 81 15 21 108 20 158 c 1
28 514 m 0
 28 628 118 682 178 696 c 1
 178 750 l 1
 208 750 l 1
 208 662 l 1
 176 662 68 622 68 508 c 0
 68 434 136 405 208 389 c 1
 208 348 l 1
 185 352 165 355 151 360 c 0
 77 388 28 421 28 514 c 0
253 -47 m 5
 253 35 l 1
 306 35 421 100 421 209 c 0
 421 300 332 326 253 340 c 1
 253 380 l 1
 283 375 312 371 333 365 c 0
 402 346 461 311 461 203 c 0
 461 108 384 15 283 -1 c 1
 283 -47 l 1
 253 -47 l 5
253 662 m 1
 253 750 l 1
 283 750 l 1
 283 697 l 1
 374 680 426 591 433 553 c 1
 395 541 l 1
 363 658 253 662 253 662 c 1
EndSplineSet
Layer: 2
SplineSet
202 -47 m 257
 131 -47 l 257
 131 13 l 257
 62 45 20 116 19 158 c 257
 146 203 l 257
 148 147 202 127 202 127 c 257
 202 -47 l 257
202 750 m 257
 202 568 l 257
 181 562 161 537 161 513 c 256
 161 486 178 469 202 454 c 257
 202 302 l 257
 183 309 165 316 150 323 c 256
 79 357 27 403 27 508 c 256
 27 599 80 652 131 679 c 257
 131 750 l 257
 202 750 l 257
257 428 m 257
 283 418 309 407 332 394 c 256
 393 358 460 311 460 209 c 256
 460 122 403 44 328 12 c 257
 328 -47 l 257
 257 -47 l 257
 257 -3 l 256
 257 127 l 257
 281 130 319 150 319 203 c 256
 319 241 292 263 257 280 c 257
 257 428 l 257
328 682 m 257
 391 649 427 580 432 553 c 257
 302 510 l 257
 297 557 257 568 257 568 c 257
 257 750 l 257
 328 750 l 257
 328 682 l 257
EndSplineSet
Layer: 3
EndChar

StartChar: dotaccent
Encoding: 255 729 106
GlifName: dotaccent
Width: 202
VWidth: 0
GlyphClass: 2
Flags: MW
LayerCount: 4
Back
Fore
SplineSet
71 678 m 260
 71 695 84 709 101 709 c 260
 118 709 131 695 131 678 c 260
 131 661 118 648 101 648 c 260
 84 648 71 661 71 678 c 260
EndSplineSet
Layer: 2
SplineSet
26 678 m 256
 26 720 59 754 101 754 c 256
 143 754 176 720 176 678 c 256
 176 636 143 603 101 603 c 256
 59 603 26 636 26 678 c 256
EndSplineSet
Layer: 3
EndChar

StartChar: dotlessi
Encoding: 185 305 107
GlifName: dotlessi
Width: 174
VWidth: 0
GlyphClass: 2
Flags: MW
LayerCount: 4
Back
Fore
SplineSet
68 0 m 261
 68 516 l 261
 108 516 l 261
 108 0 l 261
 68 0 l 261
EndSplineSet
Layer: 2
SplineSet
148 0 m 257
 26 0 l 257
 26 516 l 257
 148 516 l 257
 148 0 l 257
EndSplineSet
Layer: 3
EndChar

StartChar: e
Encoding: 101 101 108
GlifName: e
Width: 448
VWidth: 0
GlyphClass: 2
Flags: MW
LayerCount: 4
Back
Fore
SplineSet
38 141 m 262
 38 377 l 261
 39 425 94 516 201 516 c 261
 201 478 l 261
 129 478 78 410 78 369 c 262
 78 285 l 261
 369 285 l 261
 369 369 l 262
 369 428 307 480 246 480 c 261
 246 516 l 261
 322 516 409 453 409 378 c 262
 409 247 l 261
 78 247 l 261
 78 141 l 262
 78 105 135 38 202 38 c 261
 202 0 l 261
 95 0 38 93 38 141 c 262
246 0 m 261
 246 41 l 261
 317 41 362 98 371 134 c 261
 410 120 l 261
 391 56 334 0 246 0 c 261
EndSplineSet
Layer: 2
SplineSet
252 402 m 258
 248 402 l 257
 248 516 l 257
 254 516 l 258
 324 516 409 450 409 378 c 258
 409 208 l 257
 160 208 l 257
 160 141 l 258
 160 138 167 109 195 108 c 258
 200 108 l 257
 200 0 l 257
 195 0 l 258
 91 0 38 96 38 141 c 258
 38 377 l 257
 39 422 92 516 194 516 c 258
 199 516 l 257
 199 400 l 257
 196 400 l 258
 167 400 160 380 160 369 c 258
 160 324 l 257
 295 324 l 257
 295 369 l 258
 295 396 272 402 252 402 c 258
248 0 m 257
 248 111 l 257
 254 111 l 258
 285 113 306 132 310 153 c 258
 311 157 l 257
 410 120 l 257
 409 118 l 256
 394 54 324 0 254 0 c 258
 248 0 l 257
EndSplineSet
Layer: 3
EndChar

StartChar: eight
Encoding: 56 56 113
GlifName: eight
Width: 475
VWidth: 0
GlyphClass: 2
Flags: MWO
LayerCount: 4
Back
Fore
SplineSet
15 199 m 256
 15 292 65 330 93 349 c 257
 79 352 22 404 22 499 c 256
 22 615 125 698 210 698 c 257
 210 660 l 257
 117 656 61 570 61 499 c 256
 61 420 103 368 209 368 c 257
 209 330 l 257
 144 330 54 311 54 199 c 256
 54 90 173 41 207 38 c 261
 207 0 l 257
 206 0 l 258
 153 0 15 53 15 199 c 256
254 660 m 257
 254 698 l 257
 341 698 441 613 441 499 c 256
 441 399 385 352 371 349 c 257
 399 330 449 300 449 196 c 256
 449 58 317 0 258 0 c 258
 257 0 l 257
 257 38 l 261
 297 38 410 91 410 196 c 256
 410 330 300 330 255 330 c 257
 255 368 l 257
 370 368 402 414 402 499 c 256
 402 574 347 655 254 660 c 257
EndSplineSet
Layer: 2
SplineSet
201 125 m 257
 200 0 l 257
 199 0 l 258
 159 0 15 53 15 199 c 256
 15 269 52 330 80 349 c 257
 66 352 22 415 22 499 c 256
 22 619 133 698 203 698 c 257
 203 571 l 257
 185 568 146 551 146 497 c 256
 146 446 166 424 202 413 c 257
 202 283 l 257
 170 274 143 251 143 201 c 256
 143 165 168 134 201 125 c 257
263 125 m 257
 296 134 321 165 321 201 c 256
 321 251 294 274 262 283 c 257
 262 413 l 257
 298 424 318 446 318 497 c 256
 318 551 279 568 261 571 c 257
 261 698 l 257
 331 698 441 619 441 499 c 256
 441 415 398 352 384 349 c 257
 412 330 449 269 449 199 c 256
 449 53 305 0 265 0 c 258
 264 0 l 257
 263 125 l 257
EndSplineSet
Layer: 3
EndChar

StartChar: emdash
Encoding: 283 8212 114
GlifName: emdash
Width: 906
VWidth: 0
GlyphClass: 2
Flags: MW
LayerCount: 4
Back
Fore
SplineSet
26 274 m 261
 26 312 l 261
 880 312 l 261
 880 274 l 261
 26 274 l 261
EndSplineSet
Layer: 2
SplineSet
880 357 m 257
 880 230 l 257
 26 230 l 257
 26 357 l 257
 880 357 l 257
EndSplineSet
Layer: 3
EndChar

StartChar: endash
Encoding: 284 8211 115
GlifName: endash
Width: 532
VWidth: 0
GlyphClass: 2
Flags: MW
LayerCount: 4
Back
Fore
SplineSet
26 275 m 261
 26 313 l 261
 506 313 l 261
 506 275 l 261
 26 275 l 261
EndSplineSet
Layer: 2
SplineSet
506 357 m 257
 506 230 l 257
 26 230 l 257
 26 357 l 257
 506 357 l 257
EndSplineSet
Layer: 3
EndChar

StartChar: equal
Encoding: 61 61 116
GlifName: equal
Width: 418
VWidth: 0
GlyphClass: 2
Flags: MW
LayerCount: 4
Back
Fore
SplineSet
50 218 m 261
 50 258 l 257
 368 258 l 257
 368 218 l 261
 50 218 l 261
50 325 m 257
 50 365 l 257
 368 365 l 257
 368 325 l 257
 50 325 l 257
EndSplineSet
Layer: 2
SplineSet
368 258 m 257
 368 131 l 257
 50 131 l 257
 50 258 l 257
 368 258 l 257
368 452 m 257
 368 325 l 257
 50 325 l 257
 50 452 l 257
 368 452 l 257
EndSplineSet
Layer: 3
EndChar

StartChar: eth
Encoding: 285 240 117
GlifName: eth
Width: 420
VWidth: 0
GlyphClass: 2
Flags: MW
LayerCount: 4
Back
Fore
SplineSet
28 141 m 6
 28 376 l 6
 28 425 82 516 192 516 c 5
 192 478 l 5
 112 478 68 410 68 363 c 6
 68 154 l 6
 68 111 119 37 192 37 c 5
 192 -1 l 5
 80 -1 28 93 28 141 c 6
192 686 m 5
 192 714 l 5
 242 705 298 683 338 632 c 5
 397 649 l 5
 408 613 l 5
 359 598 l 5
 380 558 392 506 392 436 c 6
 392 141 l 6
 392 92 341 -1 233 -1 c 5
 233 37 l 5
 308 37 352 108 352 152 c 6
 351 373 l 6
 351 418 303 478 233 478 c 5
 233 516 l 5
 283 516 321 497 347 471 c 5
 347 520 336 558 320 587 c 5
 255 567 l 5
 244 604 l 5
 298 620 l 5
 265 658 221 675 192 686 c 5
EndSplineSet
Layer: 2
SplineSet
28 376 m 258
 28 421 79 516 186 516 c 258
 192 516 l 257
 192 398 l 257
 186 398 l 258
 153 398 148 373 148 363 c 258
 148 154 l 258
 148 135 156 117 186 117 c 258
 192 117 l 257
 192 -1 l 257
 186 -1 l 258
 78 -1 28 97 28 141 c 258
 28 376 l 258
267 558 m 257
 210 541 l 257
 192 598 l 257
 242 614 l 257
 230 627 214 637 192 647 c 257
 192 714 l 257
 250 703 297 679 330 641 c 257
 380 657 l 257
 398 599 l 257
 364 588 l 257
 383 548 392 500 392 442 c 258
 392 376 l 257
 392 364 l 257
 392 141 l 258
 392 96 343 -1 239 -1 c 258
 233 -1 l 257
 233 117 l 257
 239 117 l 258
 270 118 275 141 275 152 c 258
 275 363 l 258
 275 380 269 398 239 398 c 258
 233 398 l 257
 233 516 l 257
 239 516 l 258
 251 516 262 515 273 512 c 257
 271 530 270 545 267 558 c 257
EndSplineSet
Layer: 3
EndChar

StartChar: exclam
Encoding: 33 33 118
GlifName: exclam
Width: 146
VWidth: 0
GlyphClass: 2
Flags: HMW
LayerCount: 4
Back
Fore
SplineSet
47 23 m 4
 47 37 59 49 73 49 c 4
 87 49 99 37 99 23 c 4
 99 9 87 -3 73 -3 c 4
 59 -3 47 9 47 23 c 4
53 166 m 257
 53 700 l 257
 93 700 l 257
 93 166 l 257
 53 166 l 257
EndSplineSet
Layer: 2
SplineSet
-4 53 m 256
 -4 95 29 129 71 129 c 256
 113 129 146 95 146 53 c 256
 146 11 113 -22 71 -22 c 256
 29 -22 -4 11 -4 53 c 256
8 166 m 257
 8 700 l 257
 137 700 l 257
 137 166 l 257
 8 166 l 257
EndSplineSet
Layer: 3
EndChar

StartChar: exclamdown
Encoding: 286 161 119
GlifName: exclamdown
Width: 138
VWidth: 0
GlyphClass: 2
Flags: MW
LayerCount: 4
Back
SplineSet
4 647 m 256x30
 4 689 37 722 79 722 c 256
 121 722 154 689 154 647 c 256
 154 605 121 571 79 571 c 256
 37 571 4 605 4 647 c 256x30
16 534 m 257xa8
 145 534 l 257
 145 0 l 257
 16 0 l 257
 16 534 l 257xa8
EndSplineSet
Validated: 1
Fore
SplineSet
20 489 m 260
 20 504 33 516 48 516 c 260
 63 516 75 504 75 489 c 260
 75 474 63 462 48 462 c 260
 33 462 20 474 20 489 c 260
28 -94 m 261
 28 422 l 261
 68 422 l 261
 68 -94 l 261
 28 -94 l 261
EndSplineSet
Layer: 2
Layer: 3
EndChar

StartChar: f
Encoding: 102 102 120
GlifName: f
Width: 208
VWidth: 0
GlyphClass: 2
Flags: MW
LayerCount: 4
Back
Fore
SplineSet
15 439 m 257
 15 477 l 257
 78 477 l 257
 78 552 l 258
 78 597 91 696 197 696 c 258
 208 696 l 257
 199 658 l 257
 194 658 l 2
 128.471807179 655.334131832 118 599.809098637 118 552 c 258
 118 476 l 257
 181 477 l 257
 181 439 l 257
 118 439 l 257
 118 0 l 257
 78 0 l 257
 78 439 l 257
 15 439 l 257
EndSplineSet
Layer: 2
SplineSet
38 552 m 258
 38 597 89 695 192 696 c 258
 253 696 l 257
 226 579 l 257
 193 579 l 257
 165 578 160 555 160 552 c 258
 160 515 l 257
 226 516 l 257
 226 400 l 257
 160 400 l 257
 160 0 l 257
 38 0 l 257
 38 400 l 257
 -25 400 l 257
 -25 516 l 257
 38 516 l 257
 38 552 l 258
EndSplineSet
Layer: 3
EndChar

StartChar: fi
Encoding: 287 64257 121
GlifName: fi
Width: 494
VWidth: 0
GlyphClass: 2
Flags: MW
LayerCount: 4
Back
Fore
SplineSet
66 439 m 1
 66 477 l 1
 129 477 l 1
 129 552 l 2
 129 597 142 696 248 696 c 2
 259 696 l 1
 250 658 l 1
 246.158269054 658 242.494247272 657.828314876 239 657.49568947 c 6
 178.825731063 651.767562903 169 598.310788338 169 552 c 2
 169 476 l 1
 315 476 l 1
 315 0 l 1
 275 0 l 1
 275 439 l 1
 169 439 l 1
 169 0 l 1
 129 0 l 1
 129 439 l 1
 66 439 l 1
267 583 m 0
 267 598 280 610 295 610 c 0
 310 610 322 598 322 583 c 0
 322 568 310 556 295 556 c 0
 280 556 267 568 267 583 c 0
EndSplineSet
Layer: 2
SplineSet
89 552 m 258
 89 597 140 695 243 696 c 258
 304 696 l 257
 277 579 l 257
 244 579 l 258
 216 578 211 555 211 552 c 258
 211 516 l 257
 457 516 l 257
 457 0 l 257
 335 0 l 257
 335 400 l 257
 211 400 l 257
 211 0 l 257
 89 0 l 257
 89 400 l 257
 26 400 l 257
 26 516 l 257
 89 516 l 257
 89 552 l 258
468 630 m 256
 468 591 435 558 395 558 c 256
 355 558 322 591 322 630 c 256
 322 670 355 703 395 703 c 256
 435 703 468 670 468 630 c 256
EndSplineSet
Layer: 3
EndChar

StartChar: five
Encoding: 53 53 122
GlifName: five
Width: 475
VWidth: 0
GlyphClass: 2
Flags: MW
LayerCount: 4
Back
Fore
SplineSet
20 354 m 257
 49 700 l 257
 403 700 l 257
 403 662 l 257
 85 661 l 257
 64 398 l 257
 92 420 137 447 202 447 c 257
 202 409 l 257
 150 409 101 386 59 330 c 257
 20 354 l 257
22 107 m 257
 55 129 l 257
 90 68 128 44 202 38 c 261
 202 0 l 257
 118 0 54 46 22 107 c 257
247 0 m 257
 247 38 l 261
 311 38 421 96 421 224 c 256
 421 366 311 409 247 409 c 257
 247 447 l 261
 395 447 460 333 460 223 c 260
 460 78 352 2 247 0 c 257
EndSplineSet
Layer: 2
SplineSet
403 574 m 257
 165 573 l 257
 153 442 l 257
 166 445 181 447 198 447 c 257
 198 324 l 257
 164 321 142 301 130 286 c 257
 20 354 l 257
 49 700 l 257
 403 700 l 257
 403 574 l 257
125 175 m 257
 141 144 171 131 198 126 c 257
 198 0 l 257
 114 0 54 46 22 107 c 257
 125 175 l 257
252 447 m 257
 395 444 460 333 460 223 c 256
 460 82 357 2 252 0 c 257
 252 126 l 257
 301 135 332 174 332 224 c 256
 332 280 290 319 252 324 c 257
 252 447 l 257
EndSplineSet
Layer: 3
EndChar

StartChar: fl
Encoding: 288 64258 123
GlifName: fl
Width: 314
VWidth: 0
GlyphClass: 2
Flags: MW
LayerCount: 4
Back
Fore
SplineSet
66 439 m 1
 66 477 l 1
 129 477 l 1
 129 552 l 2
 129 597 142 696 248 696 c 0
 333 696 l 1
 333 0 l 1
 293 0 l 1
 293 658 l 1
 276 658 246 658 246 658 c 1
 166 657 169 552 169 552 c 1
 169 476 l 1
 232 477 l 1
 232 439 l 1
 169 439 l 1
 169 0 l 1
 129 0 l 1
 129 439 l 1
 66 439 l 1
EndSplineSet
Layer: 2
SplineSet
457 0 m 257
 331 0 l 257
 331 579 l 257
 244 579 l 258
 216 578 211 555 211 552 c 258
 211 515 l 257
 277 516 l 257
 277 400 l 257
 211 400 l 257
 211 0 l 257
 89 0 l 257
 89 400 l 257
 26 400 l 257
 26 516 l 257
 89 516 l 257
 89 552 l 258
 89 597 140 695 243 696 c 258
 457 696 l 257
 457 0 l 257
EndSplineSet
Layer: 3
EndChar

StartChar: florin
Encoding: 289 402 124
GlifName: florin
Width: 382
VWidth: 0
GlyphClass: 2
Flags: MW
LayerCount: 4
Back
Fore
SplineSet
26 -168 m 257
 36 -130 l 257
 65 -130 l 258
 126 -130 141 -86 141 -43 c 258
 141 438 l 257
 78 438 l 257
 78 476 l 257
 141 476 l 257
 141 535 l 258
 141 606 192 695 295 696 c 258
 356 696 l 257
 347 658 l 257
 320 658 l 262
 220 658 181 608 181 527 c 262
 181 475 l 257
 247 476 l 257
 247 438 l 257
 181 438 l 257
 181 -30 l 258
 181 -92 169 -168 57 -168 c 258
 26 -168 l 257
EndSplineSet
Layer: 2
SplineSet
141 552 m 258
 141 597 192 695 295 696 c 258
 356 696 l 257
 329 579 l 257
 296 579 l 258
 268 578 263 555 263 552 c 258
 263 515 l 257
 329 516 l 257
 329 400 l 257
 263 400 l 257
 263 7 l 257
 263 0 l 257
 263 -30 l 258
 263 -92 221 -168 109 -168 c 258
 26 -168 l 257
 53 -63 l 257
 108 -63 l 258
 136 -62 141 -39 141 -36 c 258
 141 0 l 257
 141 7 l 257
 141 400 l 257
 78 400 l 257
 78 516 l 257
 141 516 l 257
 141 552 l 258
EndSplineSet
Layer: 3
EndChar

StartChar: four
Encoding: 52 52 125
GlifName: four
Width: 497
VWidth: 0
GlyphClass: 2
Flags: HMW
LayerCount: 4
Back
Fore
SplineSet
26 145 m 257
 26 183 l 257
 317 677 l 257
 317 608 l 257
 69 183 l 257
 317 183 l 257
 317 145 l 257
 26 145 l 257
362 0 m 257
 362 701 l 257
 403 701 l 257
 403 183 l 257
 457 183 l 257
 457 145 l 257
 403 145 l 257
 403 0 l 257
 362 0 l 257
EndSplineSet
Layer: 2
SplineSet
216 272 m 257
 216 145 l 257
 26 145 l 257
 26 272 l 257
 216 598 l 257
 216 351 l 257
 170 272 l 257
 216 272 l 257
457 272 m 257
 457 145 l 257
 403 145 l 257
 403 0 l 257
 273 0 l 257
 273 701 l 257
 403 701 l 257
 403 272 l 257
 457 272 l 257
EndSplineSet
Layer: 3
EndChar

StartChar: fraction
Encoding: 290 8260 126
GlifName: fraction
Width: 897
VWidth: 0
GlyphClass: 2
Flags: MW
LayerCount: 4
Back
Fore
SplineSet
53 -2 m 261
 485 702 l 261
 510 702 l 261
 78 -2 l 261
 53 -2 l 261
EndSplineSet
Layer: 2
SplineSet
26 -2 m 257
 458 702 l 257
 534 702 l 257
 109 -2 l 257
 26 -2 l 257
EndSplineSet
Layer: 3
EndChar

StartChar: g
Encoding: 103 103 127
GlifName: g
Width: 419
VWidth: 0
GlyphClass: 2
Flags: MW
LayerCount: 4
Back
Fore
SplineSet
20 -181 m 257
 31 -143 l 257
 211 -143 l 257
 294 -140 343 -82 343 -40 c 258
 343 54 l 257
 333 39 291 0 228 -1 c 257
 228 34 l 257
 280 34 343 88 343 139 c 258
 343 374 l 258
 343 444.675848069 268.131070635 478 228 478 c 257
 228 516 l 257
 280 516 330 484 343 465 c 257
 343 516 l 257
 383 516 l 257
 383 -40 l 258
 383 -83 333 -180 230 -181 c 257
 20 -181 l 257
29 139 m 258
 29 378 l 257
 30 424 77 516 183 516 c 257
 183 478 l 257
 119 478 69 415 69 375 c 258
 69 140 l 258
 69 102 116 37 183 37 c 257
 183 -1 l 257
 74 0 29 94 29 139 c 258
EndSplineSet
Layer: 2
SplineSet
230 -181 m 257
 20 -181 l 257
 48 -69 l 257
 228 -69 l 257
 259 -68 266 -43 266 -40 c 258
 266 3 l 257
 254 0 242 -1 228 -1 c 258
 225 -1 l 257
 225 109 l 257
 228 109 l 258
 259 110 266 136 266 139 c 258
 266 374 l 258
 266 377 259 403 228 403 c 258
 225 403 l 257
 225 516 l 257
 228 516 l 258
 241 516 255 514 266 511 c 257
 266 516 l 257
 383 516 l 257
 383 -40 l 258
 383 -83 333 -180 230 -181 c 257
183 516 m 258
 186 516 l 257
 186 403 l 257
 183 403 l 258
 151 403 144 378 144 375 c 258
 144 140 l 258
 144 137 152 112 183 112 c 258
 186 112 l 257
 186 -1 l 257
 183 -1 l 258
 78 -1 29 96 29 139 c 258
 29 378 l 257
 30 422 79 516 183 516 c 258
EndSplineSet
Layer: 3
EndChar

StartChar: germandbls
Encoding: 223 223 128
GlifName: germandbls
Width: 522
VWidth: 0
GlyphClass: 2
Flags: HMW
LayerCount: 4
Back
Fore
SplineSet
26 0 m 257
 26 457 l 258
 27 531 16 705 226 705 c 256
 396 705 406 575 406 518 c 258
 406 406 l 257
 355 406 l 258
 322 407 305 386 305 371 c 256
 305 349 310 326 391 299 c 256
 441 282 496 247 496 153 c 256
 496 60 420 0 327 0 c 258
 199 0 l 257
 199 38 l 257
 299 38 l 258
 376 38 458 64 458 153 c 256
 458 222 441 233 386 261 c 260
 338 285 265 296 265 371 c 256
 265 432 320 447 366 444 c 257
 366 456 l 262
 366 554 382 667 226 667 c 260
 78 667 66 554 66 498 c 258
 66 0 l 257
 26 0 l 257
EndSplineSet
Layer: 2
SplineSet
155 0 m 257
 26 0 l 257
 26 457 l 258
 27 531 16 705 226 705 c 256
 396 705 406 575 406 518 c 258
 406 405 l 257
 342 406 l 257
 308 400 305 368 305 361 c 256
 305 349 310 326 391 299 c 256
 441 282 496 243 496 160 c 256
 496 57 420 0 327 0 c 258
 199 0 l 257
 199 109 l 257
 327 109 l 258
 342 110 379 120 379 153 c 256
 379 198 331 200 276 228 c 256
 228 252 191 287 191 371 c 256
 191 446 244 489 294 507 c 257
 294 519 l 258
 294 572 259 586 225 586 c 256
 174 586 155 554 155 498 c 258
 155 0 l 257
EndSplineSet
Layer: 3
EndChar

StartChar: grave
Encoding: 96 96 129
GlifName: grave
Width: 259
VWidth: 0
GlyphClass: 2
Flags: MW
LayerCount: 4
Back
Fore
SplineSet
42 757 m 257
 82 757 l 257
 119 605 l 257
 90 605 l 257
 42 757 l 257
EndSplineSet
Layer: 2
SplineSet
28 605 m 257
 -45 757 l 257
 82 757 l 257
 119 605 l 257
 28 605 l 257
EndSplineSet
Layer: 3
EndChar

StartChar: greater
Encoding: 62 62 130
GlifName: greater
Width: 414
VWidth: 0
GlyphClass: 2
Flags: HMW
LayerCount: 4
Back
Fore
SplineSet
30 79 m 257
 30 119 l 257
 338 292 l 261
 30 460 l 257
 30 500 l 257
 384 308 l 257
 384 276 l 257
 30 79 l 257
EndSplineSet
Layer: 2
SplineSet
30 500 m 257
 384 322 l 257
 384 258 l 257
 30 79 l 257
 30 206 l 257
 206 292 l 257
 30 370 l 257
 30 500 l 257
EndSplineSet
Layer: 3
EndChar

StartChar: guillemotleft
Encoding: 291 171 131
GlifName: guillemotleft
Width: 475
VWidth: 0
GlyphClass: 2
Flags: HMW
LayerCount: 4
Back
Fore
SplineSet
27 281 m 257
 27 299 l 257
 238 455 l 257
 238 405 l 257
 82 292 l 257
 238 174 l 257
 238 124 l 257
 27 281 l 257
238 281 m 261
 238 299 l 261
 449 455 l 261
 449 405 l 261
 293 292 l 261
 449 174 l 261
 449 124 l 261
 238 281 l 261
EndSplineSet
Layer: 2
SplineSet
238 477 m 257
 238 352 l 257
 149 292 l 257
 238 224 l 257
 238 102 l 257
 27 259 l 257
 27 321 l 257
 238 477 l 257
449 477 m 257
 449 352 l 257
 360 292 l 257
 449 224 l 257
 449 102 l 257
 238 259 l 257
 238 321 l 257
 449 477 l 257
EndSplineSet
Layer: 3
EndChar

StartChar: guillemotright
Encoding: 292 187 132
GlifName: guillemotright
Width: 457
VWidth: 0
GlyphClass: 2
Flags: HMW
LayerCount: 4
Back
Fore
SplineSet
15 144 m 257
 15 184 l 257
 191 292 l 257
 15 394 l 257
 15 434 l 257
 226 309 l 257
 226 271 l 257
 15 144 l 257
226 144 m 261
 226 184 l 261
 402 292 l 261
 226 394 l 261
 226 434 l 261
 437 309 l 261
 437 271 l 261
 226 144 l 261
EndSplineSet
Layer: 2
SplineSet
15 477 m 257
 226 321 l 257
 226 259 l 257
 15 102 l 257
 15 224 l 257
 104 292 l 257
 15 352 l 257
 15 477 l 257
226 477 m 257
 437 321 l 257
 437 259 l 257
 226 102 l 257
 226 224 l 257
 315 292 l 257
 226 352 l 257
 226 477 l 257
EndSplineSet
Layer: 3
EndChar

StartChar: guilsinglleft
Encoding: 293 8249 133
GlifName: guilsinglleft
Width: 338
VWidth: 0
GlyphClass: 2
Flags: MW
LayerCount: 4
Back
Fore
SplineSet
76 292 m 261
 207 500 l 261
 257 500 l 261
 126 292 l 261
 257 79 l 261
 207 79 l 261
 76 292 l 261
EndSplineSet
Layer: 2
SplineSet
157 500 m 257
 312 500 l 257
 181 292 l 257
 312 79 l 257
 157 79 l 257
 26 292 l 257
 157 500 l 257
EndSplineSet
Layer: 3
EndChar

StartChar: guilsinglright
Encoding: 294 8250 134
GlifName: guilsinglright
Width: 338
VWidth: 0
GlyphClass: 2
Flags: MW
LayerCount: 4
Back
Fore
SplineSet
78 79 m 261
 209 292 l 261
 78 500 l 261
 128 500 l 261
 259 292 l 261
 128 79 l 261
 78 79 l 261
EndSplineSet
Layer: 2
SplineSet
181 500 m 257
 312 292 l 257
 181 79 l 257
 26 79 l 257
 157 292 l 257
 26 500 l 257
 181 500 l 257
EndSplineSet
Layer: 3
EndChar

StartChar: h
Encoding: 104 104 135
GlifName: h
Width: 437
VWidth: 0
GlyphClass: 2
Flags: MW
LayerCount: 4
Back
Fore
SplineSet
42 1 m 257
 42 698 l 257
 81 698 l 257
 81 454 l 257
 98 478 138 511 205 511 c 257
 205 473 l 257
 147 473 82 420 82 365 c 258
 82 1 l 257
 42 1 l 257
250 473 m 257
 250 511 l 257
 349 511 407 443 407 374 c 258
 407 1 l 257
 367 1 l 257
 367 365 l 258
 367 418 330 473 250 473 c 257
EndSplineSet
Layer: 2
SplineSet
157 1 m 257
 42 1 l 257
 42 698 l 257
 156 698 l 257
 156 505 l 257
 159 506 l 258
 171 509 188 511 202 511 c 258
 205 511 l 257
 205 399 l 257
 202 399 l 258
 170 396 157 370 157 365 c 258
 157 1 l 257
250 511 m 257
 253 511 l 256
 350 507 407 444 407 374 c 258
 407 1 l 257
 293 1 l 257
 293 365 l 258
 293 369 287 396 253 399 c 258
 250 399 l 257
 250 511 l 257
EndSplineSet
Layer: 3
EndChar

StartChar: hungarumlaut
Encoding: 295 733 136
GlifName: hungarumlaut
Width: 263
VWidth: 0
GlyphClass: 2
Flags: MW
LayerCount: 4
Back
Fore
Refer: 68 180 N 1 0 0 1 83 0 2
Refer: 68 180 N 1 0 0 1 -5 0 2
Layer: 2
SplineSet
109 605 m 257
 26 605 l 257
 55 757 l 257
 167 757 l 257
 109 605 l 257
252 605 m 257
 169 605 l 257
 198 757 l 257
 310 757 l 257
 252 605 l 257
EndSplineSet
Layer: 3
EndChar

StartChar: hyphen
Encoding: 45 45 137
GlifName: hyphen
Width: 416
VWidth: 0
GlyphClass: 2
Flags: HMW
LayerCount: 4
Back
Fore
SplineSet
50 275 m 261
 50 313 l 261
 366 313 l 261
 366 275 l 261
 50 275 l 261
EndSplineSet
Layer: 2
SplineSet
366 357 m 257
 366 230 l 257
 50 230 l 257
 50 357 l 257
 366 357 l 257
EndSplineSet
Layer: 3
EndChar

StartChar: i
Encoding: 105 105 138
GlifName: i
Width: 139
VWidth: 0
GlyphClass: 2
Flags: MW
LayerCount: 4
Back
Fore
SplineSet
42 583 m 260
 42 598 55 610 70 610 c 260
 85 610 97 598 97 583 c 260
 97 568 85 556 70 556 c 260
 55 556 42 568 42 583 c 260
50 0 m 261
 50 516 l 261
 90 516 l 261
 90 0 l 261
 50 0 l 261
EndSplineSet
Layer: 2
SplineSet
142 630 m 256
 142 591 109 558 69 558 c 256
 29 558 -4 591 -4 630 c 256
 -4 670 29 703 69 703 c 256
 109 703 142 670 142 630 c 256
131 0 m 257
 9 0 l 257
 9 516 l 257
 131 516 l 257
 131 0 l 257
EndSplineSet
Layer: 3
EndChar

StartChar: iacute
Encoding: 237 237 139
GlifName: iacute
Width: 174
VWidth: 0
GlyphClass: 2
Flags: MW
LayerCount: 4
Back
Fore
Refer: 68 180 N 1 0 0 1 -41 -28 2
Refer: 107 305 N 1 0 0 1 0 0 3
Layer: 2
SplineSet
161 0 m 257
 39 0 l 257
 39 516 l 257
 161 516 l 257
 161 0 l 257
144 577 m 257
 54 577 l 257
 90 729 l 257
 218 729 l 257
 144 577 l 257
EndSplineSet
Layer: 3
EndChar

StartChar: idieresis
Encoding: 239 239 141
GlifName: idieresis
Width: 174
VWidth: 0
GlyphClass: 2
Flags: MW
LayerCount: 4
Back
Fore
Refer: 103 168 N 1 0 0 1 -45 -75 2
Refer: 107 305 N 1 0 0 1 0 0 3
Layer: 2
SplineSet
-61 651 m 256
 -61 693 -28 727 14 727 c 256
 56 727 89 693 89 651 c 256
 89 609 56 576 14 576 c 256
 -28 576 -61 609 -61 651 c 256
161 0 m 257
 39 0 l 257
 39 516 l 257
 161 516 l 257
 161 0 l 257
109 651 m 256
 109 693 142 727 184 727 c 256
 226 727 259 693 259 651 c 256
 259 609 226 576 184 576 c 256
 142 576 109 609 109 651 c 256
EndSplineSet
Layer: 3
EndChar

StartChar: igrave
Encoding: 236 236 142
GlifName: igrave
Width: 174
VWidth: 0
GlyphClass: 2
Flags: MW
LayerCount: 4
Back
Fore
Refer: 129 96 N 1 0 0 1 -16.5 -28 2
Refer: 107 305 N 1 0 0 1 0 0 3
Layer: 2
SplineSet
54 577 m 257
 -20 729 l 257
 108 729 l 257
 144 577 l 257
 54 577 l 257
161 0 m 257
 39 0 l 257
 39 516 l 257
 161 516 l 257
 161 0 l 257
EndSplineSet
Layer: 3
EndChar

StartChar: j
Encoding: 106 106 143
GlifName: j
Width: 201
VWidth: 0
GlyphClass: 2
Flags: MW
LayerCount: 4
Back
Fore
SplineSet
-42 -181 m 257
 -33 -143 l 257
 -22 -143 l 257
 33 -140 85 -85 85 -35 c 258
 85 516 l 257
 125 516 l 257
 125 -35 l 258
 125 -82 77 -181 -25 -181 c 258
 -42 -181 l 257
79 583 m 260
 79 598 92 610 107 610 c 260
 122 610 134 598 134 583 c 260
 134 568 122 556 107 556 c 260
 92 556 79 568 79 583 c 260
EndSplineSet
Layer: 2
SplineSet
166 -38 m 258
 166 -85 116 -181 14 -181 c 258
 -43 -181 l 257
 -16 -64 l 257
 11 -64 l 257
 39 -63 44 -40 44 -38 c 258
 44 516 l 257
 166 516 l 257
 166 -38 l 258
177 628 m 256
 177 588 144 556 104 556 c 256
 64 556 31 588 31 628 c 256
 31 668 64 702 104 702 c 256
 144 702 177 668 177 628 c 256
EndSplineSet
Layer: 3
EndChar

StartChar: k
Encoding: 107 107 144
GlifName: k
Width: 460
VWidth: 0
GlyphClass: 2
Flags: MW
LayerCount: 4
Back
Fore
SplineSet
42 0 m 257
 42 698 l 257
 82 698 l 257
 82 0 l 257
 42 0 l 257
104 257 m 257
 380 514 l 257
 440 514 l 257
 164 257 l 257
 440 0 l 257
 380 0 l 261
 104 257 l 257
EndSplineSet
Layer: 2
SplineSet
167 0 m 257
 42 0 l 257
 42 698 l 257
 167 698 l 257
 167 0 l 257
308 0 m 257
 195 257 l 257
 307 514 l 257
 440 514 l 257
 325 257 l 257
 440 0 l 257
 308 0 l 257
EndSplineSet
Layer: 3
EndChar

StartChar: l
Encoding: 108 108 145
GlifName: l
Width: 124
VWidth: 0
GlyphClass: 2
Flags: MW
LayerCount: 4
Back
Fore
SplineSet
42 0 m 261
 42 698 l 261
 82 698 l 261
 82 0 l 261
 42 0 l 261
EndSplineSet
Layer: 2
SplineSet
127 0 m 257
 -4 0 l 257
 -4 698 l 257
 127 698 l 257
 127 0 l 257
EndSplineSet
Layer: 3
EndChar

StartChar: less
Encoding: 60 60 146
GlifName: less
Width: 414
VWidth: 0
GlyphClass: 2
Flags: HMW
LayerCount: 4
Back
Fore
SplineSet
30 276 m 261
 30 308 l 261
 384 500 l 261
 384 460 l 261
 76 292 l 261
 384 119 l 261
 384 79 l 261
 30 276 l 261
EndSplineSet
Layer: 2
SplineSet
384 500 m 257
 384 370 l 257
 208 292 l 257
 384 206 l 257
 384 79 l 257
 30 258 l 257
 30 322 l 257
 384 500 l 257
EndSplineSet
Layer: 3
EndChar

StartChar: logicalnot
Encoding: 296 172 147
GlifName: logicalnot
Width: 501
VWidth: 0
GlyphClass: 2
Flags: MW
LayerCount: 4
Back
Fore
SplineSet
40 368 m 261
 40 406 l 261
 451 406 l 261
 451 208 l 257
 411 208 l 257
 411 368 l 261
 40 368 l 261
EndSplineSet
Layer: 2
SplineSet
490 208 m 257
 372 208 l 257
 372 327 l 257
 40 327 l 257
 40 442 l 257
 490 442 l 257
 490 208 l 257
EndSplineSet
Layer: 3
EndChar

StartChar: lslash
Encoding: 297 322 148
GlifName: lslash
Width: 424
VWidth: 0
GlyphClass: 2
Flags: MW
LayerCount: 4
Back
Fore
SplineSet
107 317 m 5
 293 460 l 5
 318 428 l 5
 132 285 l 5
 107 317 l 5
191 0 m 257
 191 698 l 257
 231 698 l 257
 231 0 l 257
 191 0 l 257
EndSplineSet
Layer: 2
SplineSet
326 536 m 257
 398 443 l 257
 98 209 l 257
 26 302 l 257
 326 536 l 257
EndSplineSet
Refer: 145 108 N 1 0 0 1 117 0 2
Layer: 3
EndChar

StartChar: m
Encoding: 109 109 149
GlifName: m
Width: 700
VWidth: 0
GlyphClass: 2
Flags: MW
LayerCount: 4
Back
Fore
SplineSet
38 0 m 257
 38 377 l 258
 38 429 68 519 181 519 c 257
 181 481 l 257
 117 481 78 431 78 372 c 258
 78 0 l 257
 38 0 l 257
225 481 m 5
 225 519 l 5
 297 519 326 490 350 450 c 5
 374 490 402 519 474 519 c 5
 474 481 l 5
 410 481 370 431 370 372 c 5
 370 0 l 5
 330 0 l 5
 330 372 l 6
 330 431 289 481 225 481 c 5
518 481 m 257
 518 519 l 257
 628 519 662 426 662 377 c 258
 662 0 l 257
 622 0 l 257
 622 372 l 258
 622 433 581 481 518 481 c 257
EndSplineSet
Layer: 2
SplineSet
162 372 m 257
 162 0 l 257
 38 0 l 257
 38 377 l 258
 38 425 92 519 197 519 c 258
 203 519 l 257
 203 398 l 257
 197 398 l 258
 167 398 162 374 162 372 c 257
288 0 m 257
 288 372 l 258
 288 375 281 398 251 398 c 258
 245 398 l 257
 245 519 l 257
 251 519 l 258
 293 519 325 505 350 486 c 257
 375 506 407 519 449 519 c 258
 455 519 l 257
 455 398 l 257
 449 398 l 258
 418 398 412 374 412 372 c 257
 412 0 l 257
 288 0 l 257
538 372 m 257
 538 375 532 398 502 398 c 258
 496 398 l 257
 496 519 l 257
 502 519 l 258
 608 519 662 422 662 377 c 258
 662 0 l 257
 538 0 l 257
 538 372 l 257
EndSplineSet
Layer: 3
EndChar

StartChar: uni00B5
Encoding: 181 181 152
GlifName: mu
Width: 491
VWidth: 0
GlyphClass: 2
Flags: MW
LayerCount: 4
Back
SplineSet
35 0 m 261xb3
 35 698 l 261xb5
 75 698 l 261
 75 316 l 260xb3
 75 288 133 258 196 258 c 262
 201 258 l 261
 201 220 l 261xb5
 196 220 l 262
 127 220 87 250 75 253 c 261
 75 0 l 261
 35 0 l 261xb3
243 220 m 261
 243 258 l 261
 248 258 l 262
 309 258 369 287 369 316 c 262
 369 698 l 261x31
 369 700 l 261x29
 409 700 l 261x29
 409 698 l 261
 409 315 l 262
 409 283 412 261 446 261 c 262
 451 261 l 261
 451 222 l 261
 446 222 l 262
 406 222 391 236 376 257 c 261
 350 237 302 220 248 220 c 262
 243 220 l 261
EndSplineSet
Fore
SplineSet
35 0 m 257
 35 698 l 257
 75 698 l 257
 75 316 l 258
 75 285.983333515 136.528102841 258 201 258 c 257
 201 220 l 257
 131.445978433 220 87.0122679702 250.269288524 75 257 c 257
 75 0 l 257
 35 0 l 257
243 220 m 257
 243 258 l 257
 305.505684157 258 369 284.984898349 369 316 c 258
 369 698 l 257
 369 700 l 257
 409 700 l 257
 409 698 l 257
 409 315 l 258
 409 279.51822374 413.072261775 261 451 261 c 257
 451 222 l 257
 407.840534101 222 392.16678186 234.366505395 376 257 c 261
 348.626526196 235.943481689 299.572459388 220 243 220 c 257
EndSplineSet
Layer: 2
SplineSet
35 698 m 257
 159 698 l 257
 159 356 l 257
 159 326 l 258
 159 323 165 300 196 300 c 258
 201 300 l 257
 201 179 l 257
 196 179 l 258
 183 179 171 180 159 183 c 257
 159 0 l 257
 35 0 l 257
 35 321 l 257
 35 356 l 257
 35 698 l 257
285 700 m 257
 409 700 l 257
 409 698 l 257
 409 328 l 258
 409 325 415 302 446 302 c 258
 451 302 l 257
 451 181 l 257
 446 181 l 258
 406 181 373 194 348 213 c 257
 322 193 289 179 248 179 c 258
 243 179 l 257
 243 300 l 257
 248 300 l 258
 279 300 285 324 285 326 c 258
 285 698 l 257
 285 700 l 257
EndSplineSet
Layer: 3
EndChar

StartChar: multiply
Encoding: 215 215 153
GlifName: multiply
Width: 493
VWidth: 0
GlyphClass: 2
Flags: HMW
LayerCount: 4
Back
Fore
SplineSet
112 229 m 1
 300 417 l 1
 113 605 l 1
 142 635 l 1
 330 447 l 1
 520 636 l 1
 549 606 l 1
 360 417 l 1
 549 227 l 1
 520 197 l 1
 330 388 l 1
 141 199 l 1
 112 229 l 1
EndSplineSet
Layer: 2
SplineSet
243 417 m 257
 83 578 l 257
 172 667 l 257
 332 507 l 257
 491 666 l 257
 580 577 l 257
 421 418 l 257
 580 259 l 257
 490 170 l 257
 332 328 l 257
 173 168 l 257
 84 257 l 257
 243 417 l 257
EndSplineSet
Layer: 3
EndChar

StartChar: n
Encoding: 110 110 154
GlifName: n
Width: 450
VWidth: 0
GlyphClass: 2
Flags: MW
LayerCount: 4
Back
Fore
SplineSet
38 0 m 257
 38 377 l 258
 38 428 94 519 204 519 c 257
 204 479 l 257
 141 479 78 426 78 372 c 258
 78 0 l 257
 38 0 l 257
246 479 m 257
 246 519 l 257
 356 519 412 425 412 377 c 258
 412 0 l 257
 372 0 l 257
 372 372 l 258
 372 405 328 479 246 479 c 257
EndSplineSet
Layer: 2
SplineSet
162 372 m 257
 162 0 l 257
 38 0 l 257
 38 377 l 258
 38 425 92 519 199 519 c 258
 204 519 l 257
 204 398 l 257
 199 398 l 258
 168 398 162 374 162 372 c 257
288 372 m 257
 288 375 281 398 251 398 c 258
 246 398 l 257
 246 519 l 257
 251 519 l 258
 358 519 412 422 412 377 c 258
 412 0 l 257
 288 0 l 257
 288 372 l 257
EndSplineSet
Layer: 3
EndChar

StartChar: nine
Encoding: 57 57 155
GlifName: nine
Width: 512
VWidth: 0
GlyphClass: 2
Flags: MW
LayerCount: 4
Back
Fore
SplineSet
26 485 m 256
 26 610 122 699 223 700 c 257
 223 660 l 257
 111 658 64 550 64 485 c 256
 64 380 124 314 223 314 c 257
 223 274 l 257
 94 274 26 359 26 485 c 256
43 115 m 257
 76 136 l 257
 102 83 160 41 223 41 c 257
 223 1 l 257
 145 1 76 51 43 115 c 257
267 2 m 257
 267 41 l 257
 330 41 437 103 437 366 c 257
 423 348 397 274 267 274 c 257
 267 314 l 257
 368 314 421 380 421 490 c 260
 421 551 375 659 267 660 c 257
 267 700 l 257
 442 700 477 529 477 341 c 256
 477 233 444 0 267 2 c 257
EndSplineSet
Layer: 2
SplineSet
218 274 m 257
 94 274 26 359 26 485 c 256
 26 610 117 699 218 700 c 257
 218 576 l 257
 183 572 145 540 145 491 c 256
 145 409 198 395 217 390 c 257
 218 274 l 257
142 178 m 257
 164 150 175 132 218 127 c 257
 218 1 l 257
 140 1 76 51 43 115 c 257
 142 178 l 257
272 2 m 257
 272 127 l 257
 344 142 349 248 349 300 c 257
 330 285 302 274 272 274 c 257
 272 392 l 257
 273 392 l 256
 293 397 340 413 340 490 c 256
 340 529 310 571 272 575 c 257
 272 700 l 257
 447 700 478 513 478 341 c 256
 478 224 444 6 272 2 c 257
EndSplineSet
Layer: 3
EndChar

StartChar: numbersign
Encoding: 35 35 157
GlifName: numbersign
Width: 890
VWidth: 0
GlyphClass: 2
Flags: MW
LayerCount: 4
Back
Fore
SplineSet
110 218 m 257
 117 256 l 257
 296 256 l 257
 329 446 l 257
 143 446 l 257
 149 484 l 257
 335 484 l 257
 370 682 l 257
 410 682 l 257
 375 484 l 257
 562 484 l 257
 596 682 l 257
 636 682 l 257
 602 484 l 257
 780 484 l 257
 774 445 l 257
 595 446 l 257
 562 255 l 257
 745 255 l 257
 740 217 l 257
 555 218 l 257
 521 22 l 257
 481 22 l 257
 515 218 l 257
 329 218 l 257
 294 22 l 257
 254 22 l 257
 289 218 l 257
 110 218 l 257
336 256 m 257
 522 255 l 257
 555 446 l 257
 369 446 l 257
 336 256 l 257
EndSplineSet
Layer: 2
SplineSet
335 22 m 257
 214 22 l 257
 241 176 l 257
 101 176 l 257
 126 297 l 257
 263 297 l 257
 281 404 l 257
 135 404 l 257
 157 525 l 257
 303 525 l 257
 330 682 l 257
 451 682 l 257
 423 524 l 257
 529 524 l 257
 556 682 l 257
 677 682 l 257
 649 524 l 257
 787 524 l 257
 768 403 l 257
 628 404 l 257
 609 296 l 257
 752 296 l 257
 734 175 l 257
 588 176 l 257
 561 22 l 257
 441 22 l 257
 467 176 l 257
 362 176 l 257
 335 22 l 257
507 404 m 257
 402 404 l 257
 383 297 l 257
 489 296 l 257
 507 404 l 257
EndSplineSet
Layer: 3
Colour: ff0000
EndChar

StartChar: o
Encoding: 111 111 158
GlifName: o
Width: 440
VWidth: 0
GlyphClass: 2
Flags: MW
LayerCount: 4
Back
Fore
SplineSet
38 141 m 262
 38 376 l 262
 38 425 92 516 202 516 c 261
 202 478 l 261
 122 478 78 410 78 363 c 262
 78 154 l 262
 78 111 129 37 202 37 c 261
 202 -1 l 261
 90 -1 38 93 38 141 c 262
243 -1 m 257
 243 37 l 257
 318 37 362 108 362 152 c 258
 362 363 l 258
 362 408 318 478 243 478 c 257
 243 516 l 257
 351 516 402 425 402 376 c 258
 402 141 l 258
 402 92 351 -1 243 -1 c 257
EndSplineSet
Layer: 2
SplineSet
38 376 m 258
 38 421 89 516 196 516 c 258
 202 516 l 257
 202 398 l 257
 196 398 l 258
 163 398 158 373 158 363 c 257
 158 154 l 257
 158 135 166 117 196 117 c 258
 202 117 l 257
 202 -1 l 257
 196 -1 l 258
 88 -1 38 97 38 141 c 258
 38 376 l 258
243 398 m 257
 243 516 l 257
 249 516 l 258
 352 516 402 421 402 376 c 258
 402 141 l 258
 402 96 353 -1 249 -1 c 258
 243 -1 l 257
 243 117 l 257
 249 117 l 258
 280 118 285 141 285 152 c 257
 285 363 l 257
 285 380 279 398 249 398 c 258
 243 398 l 257
EndSplineSet
Layer: 3
EndChar

StartChar: oe
Encoding: 300 339 162
GlifName: oe
Width: 420
VWidth: 0
GlyphClass: 2
Flags: MW
LayerCount: 4
Back
Fore
SplineSet
28 141 m 2
 28 376 l 2
 28 425 82 516 192 516 c 1
 192 478 l 1
 112 478 68 410 68 363 c 2
 68 154 l 2
 68 111 119 37 192 37 c 1
 192 -1 l 1
 80 -1 28 93 28 141 c 2
233 -1 m 1
 233 37 l 1
 308 37 352 108 352 152 c 2
 352 363 l 2
 352 408 308 478 233 478 c 1
 233 516 l 1
 303 516 349 477 373 437 c 1
 398 477 445 516 515 516 c 1
 515 478 l 1
 443 478 392 410 392 369 c 2
 392 285 l 1
 683 285 l 1
 683 369 l 2
 683 428 621 480 560 480 c 1
 560 516 l 1
 636 516 723 453 723 378 c 2
 723 247 l 1
 392 247 l 1
 392 141 l 2
 392 105 449 38 516 38 c 1
 516 0 l 1
 447 0 398 38 373 79 c 1
 349 38 303 -1 233 -1 c 1
560 0 m 1
 560 41 l 1
 631 41 676 98 685 134 c 1
 724 120 l 1
 705 56 648 0 560 0 c 1
EndSplineSet
Layer: 2
SplineSet
26 376 m 258
 26 421 77 516 184 516 c 258
 190 516 l 257
 190 398 l 257
 184 398 l 258
 151 398 146 374 146 373 c 258
 146 142 l 258
 146 139 154 113 184 113 c 258
 190 113 l 257
 190 -1 l 257
 184 -1 l 258
 76 -1 26 97 26 141 c 258
 26 376 l 258
487 402 m 258
 483 402 l 257
 483 516 l 257
 489 516 l 258
 559 516 644 450 644 378 c 258
 644 208 l 257
 395 208 l 257
 395 141 l 258
 395 138 402 109 430 108 c 258
 489 108 l 258
 519 108 541 132 545 153 c 258
 546 157 l 257
 645 120 l 257
 644 118 l 257
 629 54 559 0 489 0 c 258
 430 0 l 258
 390 0 359 14 334 34 c 257
 310 14 277 -1 237 -1 c 258
 231 -1 l 257
 231 113 l 257
 237 113 l 258
 268 114 273 138 273 140 c 258
 273 372 l 258
 273 375 267 398 237 398 c 258
 231 398 l 257
 231 516 l 257
 237 516 l 258
 277 516 309 502 333 482 c 257
 358 502 390 516 429 516 c 258
 434 516 l 257
 434 400 l 257
 431 400 l 258
 402 400 395 380 395 369 c 258
 395 324 l 257
 530 324 l 257
 530 369 l 258
 530 396 507 402 487 402 c 258
EndSplineSet
Layer: 3
EndChar

StartChar: one
Encoding: 49 49 164
GlifName: one
Width: 198
VWidth: 0
GlyphClass: 2
Flags: HMW
LayerCount: 4
Back
Fore
SplineSet
76 624 m 257
 76 667 l 257
 116 700 l 261
 156 700 l 261
 156 0 l 257
 116 0 l 257
 116 624 l 257
 76 624 l 257
EndSplineSet
Layer: 2
SplineSet
-20 514 m 261
 -20 640 l 261
 56 700 l 261
 197 700 l 261
 197 0 l 261
 56 0 l 261
 56 514 l 261
 -20 514 l 261
EndSplineSet
Layer: 3
EndChar

StartChar: onehalf
Encoding: 189 189 165
GlifName: onehalf
Width: 581
VWidth: 0
GlyphClass: 2
Flags: MW
LayerCount: 4
Back
Fore
SplineSet
86 644 m 257
 86 672 l 257
 124 701.5 l 257
 144 701.5 l 261
 144 352 l 261
 124 352 l 257
 124 674 l 257
 86 644 l 257
340.97265625 261 m 261
 345.47265625 303 375.97265625 346.5 428.97265625 351 c 261
 428.97265625 332 l 262
 428.97265625 332 371.47265625 330.5 359.47265625 257 c 261
 340.97265625 261 l 261
350.47265625 1 m 261
 350.47265625 20 l 261
 552.47265625 20 l 261
 552.47265625 1 l 261
 350.47265625 1 l 261
350.47265625 41 m 261
 350.47265625 129.5 454.47265625 165 472.97265625 174 c 260
 500.97265625 187.5 535.47265625 205 535.47265625 248 c 260
 535.47265625 290.5 519.47265625 332 451.47265625 332 c 261
 451.47265625 351 l 261
 530.47265625 351 556.47265625 300.5 555.47265625 248 c 260
 554.47265625 206 531.97265625 183 497.97265625 165.5 c 260
 460.97265625 146.5 370.47265625 116.5 370.47265625 41 c 261
 350.47265625 41 l 261
52 -2 m 261
 484 702 l 261
 509 702 l 261
 77 -2 l 261
 52 -2 l 261
EndSplineSet
Layer: 2
SplineSet
26 -2 m 257
 458 702 l 257
 534 702 l 257
 109 -2 l 257
 26 -2 l 257
114 597 m 257
 76 567 l 257
 76 671 l 257
 114 702 l 257
 182 702 l 257
 182 349 l 257
 114 349 l 257
 114 597 l 257
422 288 m 258
 420 287 400 278 400 250 c 258
 400 248 l 257
 337 261 l 257
 338 263 l 257
 343 306 374 347 422 353 c 257
 424 354 l 257
 424 290 l 257
 424 288 l 257
 422 288 l 258
551 65 m 257
 551 -1 l 257
 346 -1 l 257
 346 65 l 257
 551 65 l 257
448 288 m 257
 448 354 l 257
 453 354 l 258
 531 354 553 290 554 251 c 256
 554 197 529 180 499 159 c 256
 464 134 445 119 428 93 c 257
 427 92 l 257
 348 92 l 257
 349 94 l 258
 379 156 429 184 444 196 c 256
 467 215 490 220 490 251 c 256
 490 275 476 287 449 288 c 258
 448 288 l 257
EndSplineSet
Layer: 3
EndChar

StartChar: onequarter
Encoding: 301 188 166
GlifName: onequarter
Width: 560
VWidth: 0
GlyphClass: 2
Flags: MW
LayerCount: 4
Back
Fore
SplineSet
86 643 m 257
 86 671 l 257
 124 700.5 l 257
 144 700.5 l 261
 144 351 l 261
 124 351 l 257
 124 673 l 257
 86 643 l 257
271 71.5 m 257
 271 90.5 l 257
 416.5 337.5 l 257
 416.5 303 l 261
 292.5 90.5 l 257
 416.5 90.5 l 257
 416.5 71.5 l 257
 271 71.5 l 257
439 -1 m 257
 439 349.5 l 257
 459 349.5 l 257
 459 90.5 l 257
 486.5 90.5 l 257
 486.5 71.5 l 257
 459 71.5 l 257
 459 -1 l 257
 439 -1 l 257
52 -2 m 261
 484 702 l 261
 509 702 l 261
 77 -2 l 261
 52 -2 l 261
EndSplineSet
Layer: 2
SplineSet
26 -2 m 257
 458 702 l 257
 534 702 l 257
 109 -2 l 257
 26 -2 l 257
113 597 m 257
 75 567 l 257
 75 671 l 257
 114 702 l 257
 181 702 l 257
 181 349 l 257
 113 349 l 257
 113 597 l 257
368 137 m 257
 368 71 l 257
 270 71 l 257
 270 137 l 257
 368 305 l 257
 368 175 l 257
 346 137 l 257
 368 137 l 257
488 137 m 257
 488 71 l 257
 461 71 l 257
 461 -1 l 257
 393 -1 l 257
 393 352 l 257
 461 352 l 257
 461 137 l 257
 488 137 l 257
EndSplineSet
Layer: 3
EndChar

StartChar: ordfeminine
Encoding: 302 170 167
GlifName: ordfeminine
Width: 230
VWidth: 0
GlyphClass: 2
Flags: HMW
LayerCount: 4
Back
Fore
SplineSet
20 393 m 261
 20 410 l 261
 208 410 l 261
 208 393 l 261
 20 393 l 261
EndSplineSet
Refer: 65 97 N 0.5 0 0 0.5 3.5 446 2
Layer: 2
SplineSet
26 430 m 257
 201 430 l 257
 201 362 l 257
 26 362 l 257
 26 430 l 257
116 701 m 257
 119 701 l 258
 165 701 188 659 188 639 c 258
 188 535 l 258
 188 533 189 523 197 523 c 258
 200 523 l 257
 200 471 l 257
 197 471 l 258
 181 471 168 476 159 483 c 257
 148 475 136 471 120 471 c 258
 117 471 l 257
 117 523 l 257
 120 523 l 258
 132 523 134 536 134 537 c 258
 134 569 l 257
 115 559 85 554 79 551 c 256
 77 550 75 547 75 543 c 258
 75 537 l 258
 75 529 78 523 89 523 c 258
 99 523 l 257
 99 471 l 257
 97 471 l 258
 54 471 28 494 28 520 c 258
 28 551 l 258
 28 566 31 575 50 586 c 256
 70 598 134 610 134 626 c 258
 134 631 l 258
 134 641 133 648 119 649 c 258
 116 650 l 257
 116 701 l 257
96 649 m 258
 87 648 80 643 80 627 c 258
 80 623 l 257
 31 642 l 257
 31 644 l 258
 31 676 65 701 96 701 c 258
 99 701 l 257
 99 649 l 257
 96 649 l 258
EndSplineSet
Layer: 3
EndChar

StartChar: ordmasculine
Encoding: 303 186 168
GlifName: ordmasculine
Width: 230
VWidth: 0
GlyphClass: 2
Flags: MW
LayerCount: 4
Back
Fore
SplineSet
26 413 m 261
 26 432 l 257
 204 432 l 257
 204 413 l 261
 26 413 l 261
EndSplineSet
Refer: 158 111 N 0.443625 0 0 0.443625 21 471 2
Layer: 2
SplineSet
26 432 m 257
 204 432 l 257
 204 361 l 257
 26 361 l 257
 26 432 l 257
32 637 m 258
 32 658 55 700 103 700 c 258
 108 700 l 257
 108 645 l 257
 103 645 l 258
 90 645 88 636 88 635 c 258
 88 534 l 258
 88 533 91 525 103 525 c 258
 108 525 l 257
 108 470 l 257
 103 470 l 258
 54 470 32 513 32 533 c 258
 32 637 l 258
123 645 m 257
 123 700 l 257
 127 700 l 258
 173 700 196 658 196 637 c 258
 196 533 l 258
 196 513 174 470 127 470 c 258
 123 470 l 257
 123 523 l 257
 127 523 l 258
 139 523 141 532 141 533 c 258
 141 635 l 258
 141 636 139 645 127 645 c 258
 123 645 l 257
EndSplineSet
Layer: 3
EndChar

StartChar: oslash
Encoding: 304 248 169
GlifName: oslash
Width: 420
VWidth: 0
GlyphClass: 2
Flags: MW
LayerCount: 4
Back
Fore
SplineSet
14 68 m 1
 69 118 l 1
 67 126 66 134 66 141 c 2
 66 376 l 2
 66 425 120 516 230 516 c 1
 230 478 l 1
 150 478 106 410 106 363 c 2
 106 152 l 1
 380 404 l 1
 363 441 325 478 271 478 c 1
 271 516 l 1
 343 516 390 476 413 434 c 1
 459 475 l 1
 486 446 l 1
 428 393 l 1
 429 387 430 381 430 376 c 2
 430 141 l 2
 430 92 379 -1 271 -1 c 1
 271 37 l 1
 346 37 390 108 390 152 c 2
 390 358 l 1
 119 110 l 1
 139 73 179 37 230 37 c 1
 230 -1 l 1
 158 -1 110 38 86 79 c 1
 41 38 l 1
 14 68 l 1
EndSplineSet
Layer: 2
SplineSet
445 490 m 257
 498 430 l 257
 431 369 l 257
 431 141 l 258
 431 96 382 -1 278 -1 c 258
 272 -1 l 257
 272 117 l 257
 278 117 l 258
 309 118 314 141 314 152 c 258
 314 261 l 257
 188 145 l 257
 190 130 200 117 225 117 c 258
 231 117 l 257
 231 -1 l 257
 225 -1 l 258
 165 -1 123 29 98 63 c 257
 53 22 l 257
 0 82 l 257
 67 143 l 257
 67 376 l 258
 67 421 118 516 225 516 c 258
 231 516 l 257
 231 398 l 257
 225 398 l 258
 192 398 187 373 187 363 c 258
 187 253 l 257
 314 370 l 257
 312 384 304 398 278 398 c 258
 272 398 l 257
 272 516 l 257
 278 516 l 258
 336 516 378 486 402 451 c 257
 445 490 l 257
EndSplineSet
Layer: 3
EndChar

StartChar: p
Encoding: 112 112 171
GlifName: p
Width: 444
VWidth: 0
GlyphClass: 2
Flags: MW
LayerCount: 4
Back
Fore
SplineSet
42 -182 m 261
 42 516 l 261
 82 516 l 261
 82 -182 l 261
 42 -182 l 261
127 478 m 261
 127 516 l 261
 235 516 l 262
 353 516 408 427 408 375 c 262
 408 139 l 261
 408 86 356 0 243 0 c 262
 134 0 l 261
 134 38 l 261
 245 38 l 262
 323 38 368 92 368 143 c 262
 368 372 l 261
 368 413 321 478 235 478 c 262
 127 478 l 261
EndSplineSet
Layer: 2
SplineSet
42 516 m 257
 167 516 l 257
 167 -182 l 257
 42 -182 l 257
 42 516 l 257
244 0 m 258
 215 0 l 257
 215 118 l 257
 246 118 l 257
 283 119 288 134 288 143 c 258
 288 372 l 257
 288 385 270 398 240 398 c 258
 208 398 l 257
 208 516 l 257
 240 516 l 258
 347 516 408 431 408 375 c 258
 408 139 l 257
 408 86 357 0 244 0 c 258
EndSplineSet
Layer: 3
EndChar

StartChar: paragraph
Encoding: 306 182 172
GlifName: paragraph
Width: 363
VWidth: 0
GlyphClass: 2
Flags: HMW
LayerCount: 4
Back
Fore
SplineSet
35 517 m 256
 35 617 102 705 204 705 c 256
 232 705 206 705 234 705 c 257
 234 -5 l 257
 204 -5 l 257
 204 329 l 257
 100 329 35 403 35 517 c 256
279 -5 m 257
 279 705 l 257
 309 705 l 257
 309 -5 l 257
 279 -5 l 257
EndSplineSet
Layer: 2
SplineSet
228 705 m 257
 228 -5 l 257
 145 -5 l 257
 145 329 l 257
 41 329 -24 403 -24 517 c 256
 -24 617 43 705 145 705 c 256
 173 705 200 705 228 705 c 257
368 705 m 257
 368 -5 l 257
 285 -5 l 257
 285 705 l 257
 368 705 l 257
EndSplineSet
Layer: 3
EndChar

StartChar: parenleft
Encoding: 40 40 173
GlifName: parenleft
Width: 192
VWidth: 0
GlyphClass: 2
Flags: HMW
LayerCount: 4
Back
Fore
SplineSet
40 189 m 261
 40 510 l 261
 40 652 111 676 171 705 c 257
 171 682 l 257
 132 659 80 642 80 522 c 258
 81 241 l 258
 81 239 81 190 81 188 c 256
 81 78 137 40 172 18 c 257
 172 -5 l 257
 63 53 40 99 40 189 c 261
EndSplineSet
Layer: 2
SplineSet
171 735 m 257
 172 648 l 257
 133 625 113 593 112 521 c 257
 112 202 l 262
 112 104 137 73 172 51 c 261
 172 -37 l 257
 30 22 9 93 9 189 c 257
 9 510 l 257
 9 652 72 696 171 735 c 257
EndSplineSet
Layer: 3
EndChar

StartChar: parenright
Encoding: 41 41 174
GlifName: parenright
Width: 200
VWidth: 0
GlyphClass: 2
Flags: MW
LayerCount: 4
Back
Fore
SplineSet
39.998046875 -9 m 257
 39.998046875 14 l 257
 78.315552252 38.0852890941 139.998046875 68.1794771341 139.998046875 208 c 258
 139.998046875 521 l 258
 139.998046875 632 78.998046875 663 39.998046875 686 c 257
 39.998046875 709 l 257
 147.998046875 669 180 601 180 510 c 256
 180 196.000000544 l 0
 179.93581215 167.607552909 176.445973285 47.5281493393 39.998046875 -9 c 257
EndSplineSet
Layer: 2
SplineSet
40 746 m 257
 148 706 219 650 219 510 c 257
 219 189 l 257
 219 93 182 9 40 -47 c 257
 40 51 l 257
 75 73 100 104 100 202 c 256
 100 204 100 206 100 208 c 258
 100 521 l 258
 99 593 78 626 39 649 c 257
 40 746 l 257
EndSplineSet
Layer: 3
EndChar

StartChar: period
Encoding: 46 46 175
GlifName: period
Width: 82
VWidth: 0
GlyphClass: 2
Flags: HMW
LayerCount: 4
Back
Fore
SplineSet
15 4 m 4
 15 18 27 30 41 30 c 4
 55 30 67 18 67 4 c 4
 67 -10 55 -22 41 -22 c 4
 27 -22 15 -10 15 4 c 4
EndSplineSet
Layer: 2
SplineSet
-34 53 m 256
 -34 95 -1 129 41 129 c 256
 83 129 116 95 116 53 c 256
 116 11 83 -22 41 -22 c 256
 -1 -22 -34 11 -34 53 c 256
EndSplineSet
Layer: 3
EndChar

StartChar: perthousand
Encoding: 307 8240 177
GlifName: perthousand
Width: 897
VWidth: 0
GlyphClass: 2
Flags: MW
LayerCount: 4
Back
Fore
SplineSet
90 -2 m 257
 522 702 l 257
 547 702 l 257
 115 -2 l 257
 90 -2 l 257
EndSplineSet
Refer: 229 48 N 0.5 0 0 0.5 635 2 2
Refer: 229 48 S 0.5 0 0 0.5 376 2 2
Refer: 229 48 N 0.5 0 0 0.5 9 352 2
Layer: 2
SplineSet
122 703 m 257
 122 637 l 257
 121 637 l 257
 96 631 94 583 94 551 c 258
 94 522 l 258
 94 476 95 421 121 415 c 257
 122 415 l 257
 122 350 l 257
 120 351 l 257
 86 353 26 378 26 528 c 256
 26 656 75 699 121 702 c 257
 122 703 l 257
67 0 m 257
 497 700 l 257
 570 700 l 257
 147 0 l 257
 67 0 l 257
151 702 m 257
 197 699 246 657 246 528 c 256
 246 378 186 353 152 351 c 257
 150 350 l 257
 150 415 l 257
 151 415 l 257
 177 421 178 476 178 522 c 258
 178 551 l 258
 178 583 176 631 151 637 c 257
 150 637 l 257
 150 703 l 257
 151 702 l 257
490 352 m 257
 490 287 l 257
 488 287 l 257
 463 281 461 233 461 201 c 258
 461 171 l 258
 461 125 462 71 488 65 c 257
 489 65 l 257
 489 0 l 257
 487 0 l 258
 453 2 393 28 393 178 c 256
 393 306 442 349 488 352 c 258
 490 352 l 257
518 352 m 258
 564 349 614 307 614 178 c 256
 614 28 553 2 519 0 c 258
 517 0 l 257
 517 65 l 257
 518 65 l 257
 544 71 546 125 546 171 c 258
 546 201 l 258
 546 233 543 281 518 287 c 257
 516 287 l 257
 516 352 l 257
 518 352 l 258
748 352 m 257
 748 287 l 257
 746 287 l 257
 721 281 719 233 719 201 c 258
 719 171 l 258
 719 125 720 71 746 65 c 257
 747 65 l 257
 747 0 l 257
 745 0 l 258
 711 2 651 28 651 178 c 256
 651 306 700 349 746 352 c 258
 748 352 l 257
776 352 m 258
 822 349 872 307 872 178 c 256
 872 28 811 2 777 0 c 258
 775 0 l 257
 775 65 l 257
 776 65 l 257
 802 71 804 125 804 171 c 258
 804 201 l 258
 804 233 801 281 776 287 c 257
 774 287 l 257
 774 352 l 257
 776 352 l 258
EndSplineSet
Layer: 3
EndChar

StartChar: plus
Encoding: 43 43 178
GlifName: plus
Width: 405
VWidth: 0
GlyphClass: 2
Flags: HMW
LayerCount: 4
Back
Fore
SplineSet
15 275 m 257
 15 313 l 261
 181 313 l 261
 181 498 l 257
 221 498 l 257
 221 313 l 261
 390 313 l 261
 390 275 l 257
 221 275 l 257
 221 87 l 257
 181 87 l 257
 181 275 l 257
 15 275 l 257
EndSplineSet
Layer: 2
SplineSet
390 357 m 257
 390 230 l 257
 265 230 l 257
 265 87 l 257
 138 87 l 257
 138 230 l 257
 15 230 l 257
 15 357 l 257
 138 357 l 257
 138 498 l 257
 265 498 l 257
 265 357 l 257
 390 357 l 257
EndSplineSet
Layer: 3
EndChar

StartChar: plusminus
Encoding: 308 177 179
GlifName: plusminus
Width: 461
VWidth: 0
GlyphClass: 2
Flags: MW
LayerCount: 4
Back
Fore
SplineSet
60 129 m 257
 60 167 l 257
 436 167 l 257
 436 129 l 257
 60 129 l 257
EndSplineSet
Refer: 178 43 N 1 0 0 1 10 161 2
Layer: 2
SplineSet
486 167 m 257
 486 40 l 257
 110 40 l 257
 110 167 l 257
 486 167 l 257
EndSplineSet
Refer: 178 43 N 1 0 0 1 10 161 2
Layer: 3
EndChar

StartChar: q
Encoding: 113 113 180
GlifName: q
Width: 438
VWidth: 0
GlyphClass: 2
Flags: MW
LayerCount: 4
Back
Fore
SplineSet
38 139 m 257
 38 375 l 258
 38 427 85 516 203 516 c 258
 311 516 l 257
 311 478 l 257
 203 478 l 258
 117 478 78 413 78 372 c 257
 78 143 l 258
 78 92 123 38 201 38 c 258
 304 38 l 257
 304 0 l 257
 203 0 l 258
 90 0 38 86 38 139 c 257
356 -182 m 261
 356 516 l 261
 396 516 l 261
 396 -182 l 261
 356 -182 l 261
EndSplineSet
Layer: 2
SplineSet
157 143 m 258
 157 141 161 119 199 118 c 258
 230 118 l 257
 230 0 l 257
 201 0 l 258
 88 0 38 93 37 139 c 257
 37 375 l 258
 37 420 87 516 194 516 c 258
 225 516 l 257
 225 398 l 257
 194 398 l 258
 162 398 157 375 157 373 c 257
 157 143 l 258
396 516 m 257
 397 -182 l 257
 273 -182 l 257
 272 516 l 257
 396 516 l 257
EndSplineSet
Layer: 3
EndChar

StartChar: question
Encoding: 63 63 181
GlifName: question
Width: 460
VWidth: 0
GlyphClass: 2
Flags: MW
LayerCount: 4
Back
Fore
SplineSet
30 611 m 261
 60 649 110 703 218 703 c 260
 346 703 426 620 430 491 c 261
 430 293 215 276 215 276 c 261
 215 71 l 261
 177 71 l 261
 177 316 l 261
 294 318 392 370 392 491 c 260
 392 587 327 663 218 663 c 260
 129 663 78 611 57 583 c 261
 30 611 l 261
171 4 m 4
 171 18 183 30 197 30 c 4
 211 30 223 18 223 4 c 4
 223 -10 211 -22 197 -22 c 4
 183 -22 171 -10 171 4 c 4
EndSplineSet
Layer: 2
SplineSet
112 526 m 257
 30 611 l 257
 60 649 110 703 218 703 c 256
 346 703 426 620 430 491 c 256
 430 488 430 484 430 481 c 256
 430 289 263 276 263 276 c 257
 263 166 l 257
 134 166 l 257
 134 386 l 257
 251 388 302 400 302 493 c 256
 302 545 257 575 210 575 c 256
 167 575 133 554 112 526 c 257
122 53 m 256
 122 95 155 129 197 129 c 256
 239 129 273 95 273 53 c 256
 273 11 239 -22 197 -22 c 256
 155 -22 122 11 122 53 c 256
EndSplineSet
Layer: 3
EndChar

StartChar: questiondown
Encoding: 309 191 182
GlifName: questiondown
Width: 445
VWidth: 0
GlyphClass: 2
Flags: MW
LayerCount: 4
Back
Fore
Refer: 181 63 S -1 1.22461e-16 -1.22461e-16 -1 450 688 2
Layer: 2
SplineSet
167 163 m 257
 188 135 222 114 265 114 c 256
 312 114 357 144 357 196 c 256
 357 289 306 301 189 303 c 257
 189 523 l 257
 318 523 l 257
 318 413 l 257
 318 413 485 400 485 208 c 256
 485 72 404 -14 273 -14 c 256
 165 -14 115 40 85 78 c 257
 167 163 l 257
177 636 m 256
 177 678 210 711 252 711 c 256
 294 711 328 678 328 636 c 256
 328 594 294 560 252 560 c 256
 210 560 177 594 177 636 c 256
EndSplineSet
Layer: 3
EndChar

StartChar: quotedbl
Encoding: 34 34 183
GlifName: quotedbl
Width: 217
VWidth: 0
GlyphClass: 2
Flags: HMW
LayerCount: 4
Back
Fore
SplineSet
42 465 m 257
 42 736 l 257
 82 736 l 257
 82 465 l 257
 42 465 l 257
135 465 m 257
 135 736 l 257
 175 736 l 257
 175 465 l 257
 135 465 l 257
EndSplineSet
Layer: 2
SplineSet
83 465 m 257
 -44 465 l 257
 -44 736 l 257
 83 736 l 257
 83 465 l 257
263 465 m 257
 136 465 l 257
 136 736 l 257
 263 736 l 257
 263 465 l 257
EndSplineSet
Layer: 3
EndChar

StartChar: quotedbl.alt
Encoding: 310 -1 184
GlifName: quotedbl.alt
Width: 359
VWidth: 0
GlyphClass: 2
Flags: MW
LayerCount: 4
Back
Fore
SplineSet
26 476 m 257
 26 700 l 257
 153 700 l 257
 153 476 l 257
 26 476 l 257
206 476 m 257
 206 700 l 257
 333 700 l 257
 333 476 l 257
 206 476 l 257
EndSplineSet
Layer: 2
SplineSet
153 476 m 257
 26 476 l 257
 26 700 l 257
 153 700 l 257
 153 476 l 257
333 476 m 257
 206 476 l 257
 206 700 l 257
 333 700 l 257
 333 476 l 257
EndSplineSet
Layer: 3
EndChar

StartChar: quotesingle
Encoding: 39 39 191
GlifName: quotesingle
Width: 125
VWidth: 0
GlyphClass: 2
Flags: HMW
LayerCount: 4
Back
Fore
SplineSet
43 465 m 261
 43 736 l 261
 83 736 l 257
 83 465 l 257
 43 465 l 261
EndSplineSet
Layer: 2
SplineSet
127 465 m 257
 0 465 l 257
 0 736 l 257
 127 736 l 257
 127 465 l 257
EndSplineSet
Layer: 3
EndChar

StartChar: r
Encoding: 114 114 192
GlifName: r
Width: 223
VWidth: 0
GlyphClass: 2
Flags: MW
LayerCount: 4
Back
Fore
SplineSet
42 0 m 257
 42 516 l 257
 82 516 l 257
 82 431 l 261
 95 464 141 515 212 515 c 258
 213 515 l 257
 203 478 l 257
 143 478 82 390 82 308 c 258
 82 0 l 257
 42 0 l 257
EndSplineSet
Layer: 2
SplineSet
0 516 m 257
 124 516 l 257
 124 454 l 257
 145 481 193 516 248 516 c 258
 281 516 l 257
 253 395 l 257
 186 394 124 331 124 271 c 258
 124 0 l 257
 0 0 l 257
 0 516 l 257
EndSplineSet
Layer: 3
EndChar

StartChar: registered
Encoding: 317 174 193
GlifName: registered
Width: 374
VWidth: 0
GlyphClass: 2
Flags: HMW
LayerCount: 4
Back
SplineSet
161.319335938 382.420898438 m 5
 161.609375 370.228515625 l 5
 93.2119140625 380.504882812 30 446.876953125 30 523 c 4
 30 525 l 4
 30 630.420898438 110.1875 679.676757812 165 687.110351562 c 5
 165 676.030273438 l 5
 101.422851562 667.484375 40 610.540039062 40 525.891601562 c 5
 41.0498046875 453.481445312 94.552734375 393.221679688 161.319335938 382.420898438 c 5
211 382.458007812 m 5
 278.427734375 393.209960938 331.913085938 452.791992188 334 524.782226562 c 5
 334 527 l 4
 334 610.375976562 272.223632812 667.963867188 211 676.009765625 c 5
 211 686.646484375 l 5
 270.158203125 677.119140625 344 622.412109375 344 528 c 4
 344 523 l 4
 344 438.575195312 275.857421875 380.750976562 211 370.52734375 c 5
 211 382.458007812 l 5
EndSplineSet
Fore
SplineSet
30 525 m 0
 30 630 114 687 180 687 c 1
 180 676 l 1
 104 676 40 611 40 526 c 1
 41 454 101 382 176 382 c 1
 177 370 l 1
 96.7967055942 370 30 447.630790345 30 525 c 0
131 432 m 257
 131 627 l 257
 142 627 l 257
 142 432 l 257
 131 432 l 257
154 524 m 257
 154 534 l 257
 182 534 l 258
 215 534 237 546 237 570 c 256
 237 615 199 616 162 616 c 258
 154 616 l 257
 154 627 l 257
 187 627 248 632 248 570 c 256
 248 547 235 536 219 530 c 257
 231 527 246 514 248 492 c 258
 253 432 l 257
 241 432 l 257
 237 481 l 258
 234 516 225 524 154 524 c 257
196 371 m 1
 196 382 l 1
 272.688565253 382 334 453.629515321 334 527 c 0
 334 610 268 676 196 676 c 1
 196 687 l 1
 265 687 344 622 344 528 c 0
 344 435.622713842 273.080263601 371 196 371 c 1
EndSplineSet
Layer: 2
SplineSet
176 396 m 257
 177 354 l 257
 96 355 15 432 15 523 c 256
 15 524 15 524 15 525 c 256
 15 649 118 703 178 703 c 256
 179 703 179 703 180 703 c 257
 180 662 l 257
 121 662 55 609 55 526 c 256
 56 457 111 399 176 396 c 257
136 627 m 257
 175 627 l 257
 175 430 l 257
 136 430 l 257
 136 627 l 257
191 547 m 257
 195 547 l 258
 212 547 219 557 219 568 c 256
 219 582 209 591 195 591 c 258
 191 591 l 257
 191 628 l 257
 233 628 255 604 255 570 c 256
 255 551 249 538 236 530 c 257
 246 522 254 506 255 492 c 258
 255 431 l 257
 220 431 l 257
 220 481 l 258
 220 504 211 511 191 511 c 257
 191 547 l 257
196 396 m 257
 261 399 317 456 319 525 c 256
 319 526 319 526 319 527 c 256
 319 608 255 662 196 662 c 257
 196 703 l 257
 262 702 359 641 359 528 c 256
 359 526 359 525 359 523 c 256
 359 423 273 357 196 354 c 257
 196 396 l 257
EndSplineSet
Layer: 3
EndChar

StartChar: ring
Encoding: 318 730 194
GlifName: ring
Width: 244
VWidth: 0
GlyphClass: 2
Flags: MW
LayerCount: 4
Back
Fore
SplineSet
55 526 m 260
 55 563 85 593 122 593 c 260
 159 593 189 563 189 526 c 260
 189 489 159 459 122 459 c 260
 85 459 55 489 55 526 c 260
90 526 m 256
 90 508 104 494 122 494 c 256
 140 494 154 508 154 526 c 256
 154 544 140 558 122 558 c 256
 104 558 90 544 90 526 c 256
EndSplineSet
Layer: 2
SplineSet
26 526 m 256
 26 579 69 622 122 622 c 256
 175 622 218 579 218 526 c 256
 218 473 175 430 122 430 c 256
 69 430 26 473 26 526 c 256
90 526 m 256
 90 508 104 494 122 494 c 256
 140 494 154 508 154 526 c 256
 154 544 140 558 122 558 c 256
 104 558 90 544 90 526 c 256
EndSplineSet
Layer: 3
EndChar

StartChar: s
Encoding: 115 115 195
GlifName: s
Width: 415
VWidth: 0
GlyphClass: 2
Flags: MW
LayerCount: 4
Back
Fore
SplineSet
20 136 m 257
 59 143 l 257
 59 79 130 33 182 33 c 257
 182 -5 l 257
 85 -5 20 71 20 136 c 257
24 365 m 256
 24 472 117 517 180 517 c 257
 180 479 l 257
 134 479 64 435 64 365 c 260
 64 305 144 301 283 266 c 260
 315 258 395 234 395 153 c 256
 395 57 318 -5 223 -5 c 257
 223 32 l 257
 277 32 355 73 355 153 c 260
 355 223 236 235 123 262 c 260
 92 269 24 289 24 365 c 256
222 478 m 257
 222 517 l 257
 319 517 386 441 386 374 c 257
 347 368 l 257
 347 442 263 478 222 478 c 257
EndSplineSet
Layer: 2
SplineSet
20 134 m 256
 19 136 l 257
 131 157 l 257
 131 154 l 258
 133 135 155 113 179 111 c 256
 182 110 l 257
 182 -5 l 257
 179 -5 l 258
 85 -5 23 70 20 134 c 256
180 406 m 257
 178 406 l 256
 138 402 136 377 136 362 c 256
 136 344 151 323 292 296 c 256
 344 286 395 243 395 160 c 256
 395 57 319 -5 226 -5 c 258
 223 -5 l 257
 223 109 l 257
 226 109 l 258
 241 110 278 120 278 153 c 256
 278 198 166 206 109 232 c 256
 60 256 24 287 24 371 c 256
 24 473 123 517 177 517 c 258
 180 517 l 257
 180 406 l 257
386 376 m 258
 386 374 l 257
 274 355 l 257
 274 358 l 256
 270 399 232 404 224 404 c 258
 221 404 l 257
 222 517 l 257
 225 517 l 258
 319 517 386 440 386 376 c 258
EndSplineSet
Layer: 3
EndChar

StartChar: section
Encoding: 167 167 197
GlifName: section
Width: 602
VWidth: 0
GlyphClass: 2
Flags: HMW
LayerCount: 4
Back
Fore
SplineSet
54 356 m 0
 54 427 88 475 129 504 c 1
 120 523 115 546 115 576 c 0
 115 720 235 760 306 760 c 2
 404 760 l 1
 404 722 l 1
 335 722 l 2
 211 721 155 663 155 578 c 0
 155 510 213 478 278 459 c 1
 278 412 l 1
 262 415 248 418 238 422 c 0
 203 435 174 449 153 470 c 1
 122 446 94 408 94 350 c 0
 94 261 193 238 278 223 c 1
 278 183 l 1
 237 190 199 194 177 202 c 0
 103 230 54 263 54 356 c 0
197 -98 m 5
 262 -98 l 6
 373 -99 447 -47 447 51 c 4
 447 125 388 156 323 173 c 5
 323 215 l 5
 336 213 349 210 359 207 c 4
 396 197 431 182 455 153 c 5
 485 182 508 222 508 271 c 4
 508 369 406 392 323 405 c 5
 323 447 l 5
 360 439 395 434 420 427 c 4
 489 408 548 373 548 265 c 4
 548 208 521 152 477 113 c 5
 484 94 487 72 487 45 c 4
 487 -44 420 -137 292 -137 c 6
 197 -137 l 5
 197 -98 l 5
EndSplineSet
Layer: 2
SplineSet
292 759 m 258
 404 759 l 257
 404 627 l 257
 300 627 l 258
 267 627 246 606 246 576 c 256
 246 555 257 540 273 527 c 257
 273 372 l 257
 260 377 248 381 238 386 c 256
 229 391 220 395 211 400 c 257
 201 392 194 380 194 357 c 256
 194 314 231 290 273 272 c 257
 273 125 l 257
 242 138 208 150 181 166 c 256
 120 202 53 249 53 351 c 256
 53 413 81 465 125 499 c 257
 118 519 115 543 115 571 c 256
 115 710 224 759 292 759 c 258
390 223 m 257
 400 231 407 243 407 266 c 256
 407 310 370 333 327 351 c 257
 327 498 l 257
 358 485 392 473 420 457 c 256
 481 421 548 374 548 272 c 256
 548 210 520 158 476 124 c 257
 483 104 486 80 486 52 c 256
 486 -87 377 -136 309 -136 c 258
 197 -136 l 257
 197 -4 l 257
 301 -4 l 258
 334 -4 355 17 355 47 c 256
 355 68 344 84 327 97 c 257
 327 252 l 257
 340 247 352 242 363 237 c 256
 372 232 381 228 390 223 c 257
EndSplineSet
Layer: 3
EndChar

StartChar: semicolon
Encoding: 59 59 198
GlifName: semicolon
Width: 199
VWidth: 0
GlyphClass: 2
Flags: MW
LayerCount: 4
Back
Fore
SplineSet
50 -23 m 261
 87 129 l 261
 126 129 l 261
 89 -23 l 261
 50 -23 l 261
97 311 m 0
 97 325 109 337 123 337 c 0
 137 337 149 325 149 311 c 0
 149 297 137 285 123 285 c 0
 109 285 97 297 97 311 c 0
EndSplineSet
Layer: 2
SplineSet
133 -23 m 257
 6 -23 l 257
 43 129 l 257
 170 129 l 257
 133 -23 l 257
47 360 m 256
 47 402 80 436 122 436 c 256
 164 436 197 402 197 360 c 256
 197 318 164 285 122 285 c 256
 80 285 47 318 47 360 c 256
EndSplineSet
Layer: 3
EndChar

StartChar: seven
Encoding: 55 55 199
GlifName: seven
Width: 435
VWidth: 0
GlyphClass: 2
Flags: HMW
LayerCount: 4
Back
Fore
SplineSet
429 661 m 257
 429 700 l 257
 30 700 l 257
 30 660 l 257
 429 661 l 257
210 0 m 257
 227 158 272 408 381 616 c 257
 424 616 l 257
 311 406 269 154 253 0 c 257
 210 0 l 257
EndSplineSet
Layer: 2
SplineSet
429 570 m 261
 429 700 l 261
 30 700 l 261
 30 570 l 261
 429 570 l 261
143 0 m 261
 143 198 208 388 276 515 c 261
 419 515 l 261
 337 356 283 174 283 0 c 261
 143 0 l 261
EndSplineSet
Layer: 3
EndChar

StartChar: six
Encoding: 54 54 200
GlifName: six
Width: 509
VWidth: 0
GlyphClass: 2
Flags: HMW
LayerCount: 4
Back
Fore
SplineSet
25 349 m 256
 25 466 55 679 232 697 c 257
 232 659 l 257
 81 635 65 448 65 324 c 257
 101 399 171 425 232 425 c 257
 232 387 l 257
 132 387 79 304 79 211 c 256
 79 164 111 37 232 37 c 257
 232 -1 l 257
 58 6 25 172.997070312 25 349 c 256
287 -1 m 257
 287 37 l 257
 385 37 440 136 440 211 c 256
 440 335 358 389 287 389 c 257
 287 425 l 257
 411 425 479 330 479 212 c 256
 479 87 388 0 287 -1 c 257
286 660 m 257
 286 698 l 257
 364 698 425 651 452 594 c 261
 419 572 l 261
 402 607 363 660 286 660 c 257
EndSplineSet
Layer: 2
SplineSet
451.2578125 593.536132812 m 1
 421.33203125 653.698242188 357.0859375 700 286 700 c 257
 286 570 l 257
 300.334960938 570 334.577148438 559.334960938 344.962890625 521.818359375 c 1
 451.2578125 593.536132812 l 1
286 129 m 257
 324.161132812 138.892578125 343.151367188 175.29296875 343.151367188 211.7578125 c 0
 343.151367188 248.337890625 324.040039062 284.984375 286 295 c 257
 286 425 l 257
 410 425 475 329 475 211 c 256
 475 86 387 -1 286 -1 c 257
 286 129 l 257
232 425 m 5
 232 379 232 295 232 295 c 261
 193.959960938 284.984375 174.848632812 248.337890625 174.848632812 211.7578125 c 4
 174.848632812 175.29296875 193.838867188 138.892578125 232 129 c 261
 232 -1 l 261
 57 -1 30 186 30 358 c 260
 30 475 48 700 232 700 c 261
 232 570 l 261
 166 558 165 462 165 412 c 261
 182 420 212 425 232 425 c 5
EndSplineSet
Layer: 3
SplineSet
232 -1 m 261
 232 37 l 261
 134 37 79 136 79 211 c 260
 79 335 161 389 232 389 c 261
 232 425 l 261
 108 425 40 330 40 212 c 260
 40 87 131 0 232 -1 c 261
EndSplineSet
EndChar

StartChar: slash
Encoding: 47 47 201
GlifName: slash
Width: 315
VWidth: 0
GlyphClass: 2
Flags: HMW
LayerCount: 4
Back
Fore
SplineSet
50 -23 m 257
 225 716 l 257
 265 716 l 261
 91 -23 l 261
 50 -23 l 257
EndSplineSet
Layer: 2
SplineSet
7 -23 m 257
 182 716 l 257
 308 716 l 257
 134 -23 l 257
 7 -23 l 257
EndSplineSet
Layer: 3
EndChar

StartChar: sterling
Encoding: 163 163 203
GlifName: sterling
Width: 372
VWidth: 0
GlyphClass: 2
Flags: HMW
LayerCount: 4
Back
Fore
SplineSet
20 322 m 1
 20 360 l 1
 82 360 l 1
 82 553 l 0
 82 629 128 704 221 704 c 0
 223 704 l 0
 246 704 264 700 281 693 c 1
 315 680 337 655 350 629 c 1
 315 612 l 1
 297 639 270 664 227 664 c 0
 168 664 122 622 122 556 c 0
 122 362 l 1
 268 362 l 1
 268 324 l 1
 122 324 l 1
 122 38 l 1
 352 38 l 1
 352 0 l 1
 82 0 l 1
 82 322 l 1
 20 322 l 1
EndSplineSet
Layer: 2
SplineSet
306.625976562 520 m 257
 296.625976562 551 276.625976562 584 232.625976562 584 c 256
 200.625976562 584 174.625976562 568 174.625976562 517 c 258
 174.625976562 396 l 257
 313.625976562 396 l 257
 313.625976562 289 l 257
 173.625976562 289 l 257
 173.625976562 108 l 257
 397.625976562 108 l 257
 397.625976562 0 l 257
 41.6259765625 0 l 257
 41.6259765625 288 l 257
 -14.3740234375 288 l 257
 -14.3740234375 395 l 257
 41.6259765625 395 l 257
 41.6259765625 514 l 258
 41.6259765625 617 96.6259765625 705 226.625976562 705 c 256
 227.625976562 705 227.625976562 705 228.625976562 705 c 256
 256.625976562 705 280.625976562 700 301.625976562 691 c 256
 359.625976562 668 394.625976562 618 405.625976562 570 c 257
 306.625976562 520 l 257
EndSplineSet
Layer: 3
EndChar

StartChar: t
Encoding: 116 116 204
GlifName: t
Width: 247
VWidth: 0
GlyphClass: 2
Flags: MW
LayerCount: 4
Back
Fore
SplineSet
15 438 m 257
 15 477 l 257
 78 477 l 257
 78 700 l 257
 118 700 l 257
 118 477 l 257
 181 477 l 261
 181 438 l 261
 118 438 l 257
 118 159 l 258
 118 83 143 38 237 38 c 258
 238 38 l 257
 247 0 l 257
 232 0 l 258
 110 1 78 66 78 168 c 258
 78 438 l 257
 15 438 l 257
EndSplineSet
Layer: 2
SplineSet
193 125 m 258
 220 125 l 257
 247 0 l 257
 192 0 l 258
 70 1 38 66 38 168 c 258
 38 398 l 257
 -25 398 l 257
 -25 516 l 257
 38 516 l 257
 38 700 l 257
 160 700 l 257
 160 516 l 257
 220 516 l 257
 220 398 l 257
 160 398 l 257
 160 159 l 258
 160 145 165 126 193 125 c 258
EndSplineSet
Layer: 3
EndChar

StartChar: thorn
Encoding: 320 254 205
GlifName: thorn
Width: 422
VWidth: 0
GlyphClass: 2
Flags: MW
LayerCount: 4
Back
Fore
SplineSet
30 -182 m 257
 30 700 l 257
 70 700 l 257
 70 -182 l 257
 30 -182 l 257
115 478 m 257
 115 516 l 257
 228 516 l 258
 335 516 396 431 396 375 c 258
 396 139 l 258
 396 86 345 0 232 0 c 258
 122 0 l 257
 122 38 l 257
 234 38 l 262
 294 38 356 76 356 158 c 262
 356 364 l 258
 356 434 300 478 228 478 c 258
 115 478 l 257
EndSplineSet
Layer: 2
SplineSet
30 700 m 257
 155 700 l 257
 155 -182 l 257
 30 -182 l 257
 30 700 l 257
232 0 m 258
 203 0 l 257
 203 118 l 257
 234 118 l 258
 271 119 276 134 276 143 c 258
 276 372 l 258
 276 385 258 398 228 398 c 258
 196 398 l 257
 196 516 l 257
 228 516 l 258
 335 516 396 431 396 375 c 258
 396 139 l 258
 396 86 345 0 232 0 c 258
EndSplineSet
Layer: 3
EndChar

StartChar: three
Encoding: 51 51 206
GlifName: three
Width: 484
VWidth: 0
GlyphClass: 2
Flags: MW
LayerCount: 4
Back
Fore
SplineSet
19 176 m 257
 28 92 89 5 195 -4 c 257
 195 34 l 258
 195 34 80 37 56 184 c 257
 19 176 l 257
366.721679688 348 m 1
 429 390 446.514944432 444.728739705 446.514944432 510.52409252 c 0
 446.514944432 614.534934236 380.190289974 699.799952993 250 700 c 1
 250 662 l 1
 343.031336572 662 407.266957974 609.066642428 407.266957974 508.313125279 c 0
 407.266957974 447.936119226 384.24609375 366 245 366 c 1
 245 330 l 1
 384.24609375 330 407.266601562 248.063476562 407.266601562 187.686523438 c 0
 407.266601562 86.93359375 343.03125 34 250 34 c 1
 250 -4 l 1
 380.190429688 -3.7998046875 446.514648438 81.46484375 446.514648438 185.475585938 c 0
 446.514648438 251.271484375 429 305 366.721679688 348 c 1
18.9443359375 520 m 257
 27.9443359375 604 88.9443359375 691 194.944335938 700 c 257
 194.944335938 662 l 258
 194.944335938 662 79.9443359375 659 55.9443359375 512 c 257
 18.9443359375 520 l 257
EndSplineSet
Layer: 2
SplineSet
195 285 m 21
 303 285 324 248.215820312 324 200 c 260
 324 149.69140625 283.028320312 133 250 130 c 261
 250 0 l 261
 331.454101562 0 454 50.8203125 454 199 c 260
 454 284 415 331 387 350 c 261
 415 369 454 416 454 501 c 260
 454 649.1796875 331.454101562 700 250 700 c 261
 250 570 l 261
 283.028320312 567 324 550.30859375 324 500 c 260
 324 452.784179688 302.979492188 415 195 415 c 13
 195 285 l 21
12 179 m 261
 12 88 97 0 195 0 c 261
 195 130 l 261
 178 130 133 145 133 202 c 261
 12 179 l 261
12 521 m 261
 12 612 97 700 195 700 c 261
 195 570 l 261
 178 568 133 555 133 498 c 261
 12 521 l 261
EndSplineSet
Layer: 3
EndChar

StartChar: threequarters
Encoding: 321 190 207
GlifName: threequarters
Width: 584
VWidth: 0
GlyphClass: 2
Flags: MW
LayerCount: 4
Back
Fore
SplineSet
28 397.5 m 257
 44.5 407.5 l 257
 65 374 79.5 369 112.5 367.5 c 257
 112.5 348.5 l 257
 73.5 348.5 45 364 28 397.5 c 257
28 649 m 257
 44.5 677 73.5 698 112.5 698 c 257
 112.5 679 l 257
 94.5 679 63.5 670 44.5 639 c 257
 28 649 l 257
142.5 349 m 261
 142.5 368 l 257
 164 368 223.5 392 223.5 449.5 c 256
 223.5 488.5 207 513.5 159 513.5 c 257
 159 532.5 l 257
 209 532.5 221 558.5 221 598.5 c 256
 221 652.51953125 173.005859375 679 141 679 c 257
 141 698 l 257
 208 696.5 241.5 640 241.5 603 c 256
 241.5 554.5 226 532 210.5 524 c 257
 224.5 514.5 244 491 244 448.5 c 256
 244 385.91015625 183.2265625 349 142.5 349 c 261
295 70.5 m 257
 295 89.5 l 257
 440.5 336.5 l 257
 440.5 302 l 261
 316.5 89.5 l 257
 440.5 89.5 l 257
 440.5 70.5 l 257
 295 70.5 l 257
463 -2 m 257
 463 348.5 l 257
 483 348.5 l 257
 483 89.5 l 257
 510.5 89.5 l 257
 510.5 70.5 l 257
 483 70.5 l 257
 483 -2 l 257
 463 -2 l 257
75 -2 m 261
 507 702 l 261
 532 702 l 261
 100 -2 l 261
 75 -2 l 261
EndSplineSet
Layer: 2
SplineSet
83 431 m 258
 90 421 99 415 113 414 c 258
 114 414 l 257
 114 348 l 257
 113 348 l 258
 74 348 44 364 27 398 c 257
 26 399 l 257
 82 432 l 257
 83 431 l 258
82 616 m 257
 26 649 l 257
 27 651 l 258
 44 679 74 700 114 700 c 257
 114 635 l 257
 113 635 l 258
 99 634 90 628 83 618 c 258
 82 616 l 257
50 -2 m 257
 482 702 l 257
 558 702 l 257
 133 -2 l 257
 50 -2 l 257
142 412 m 258
 163 412 177 431 177 450 c 256
 177 479 167 492 108 492 c 257
 108 557 l 257
 109 557 l 258
 169 557 177 571 177 600 c 256
 177 626 157 636 143 636 c 258
 140 636 l 257
 140 701 l 257
 141 700 l 257
 209 698 243 642 243 604 c 256
 243 557 229 534 214 525 c 257
 229 514 245 491 245 450 c 256
 245 387 185 348 144 348 c 258
 141 348 l 257
 141 412 l 257
 142 412 l 258
392 137 m 257
 392 71 l 257
 294 71 l 257
 294 137 l 257
 392 305 l 257
 392 175 l 257
 370 137 l 257
 392 137 l 257
512 137 m 257
 512 71 l 257
 485 71 l 257
 485 -1 l 257
 417 -1 l 257
 417 352 l 257
 485 352 l 257
 485 137 l 257
 512 137 l 257
EndSplineSet
Layer: 3
EndChar

StartChar: tilde
Encoding: 322 732 208
GlifName: tilde
Width: 333
VWidth: 0
GlyphClass: 2
Flags: MW
LayerCount: 4
Back
Fore
SplineSet
26 136 m 261
 26 175 l 257
 54 191 77 197 96 197 c 256
 147 197 176 156 227 156 c 256
 249 156 274 164 307 184 c 257
 307 146 l 261
 273 125 246 118 223 118 c 260
 170 118 140 158 92 158 c 260
 74 158 52 152 26 136 c 261
EndSplineSet
Layer: 2
SplineSet
307 114 m 257
 273 93 246 86 223 86 c 256
 170 86 140 126 92 126 c 256
 74 126 52 120 26 104 c 257
 26 206 l 257
 54 222 77 228 96 228 c 256
 147 228 176 187 227 187 c 256
 249 187 274 195 307 215 c 257
 307 114 l 257
EndSplineSet
Layer: 3
EndChar

StartChar: two
Encoding: 50 50 209
GlifName: two
Width: 485
VWidth: 0
GlyphClass: 2
Flags: MW
LayerCount: 4
Back
Fore
SplineSet
29.9443359375 520 m 261
 38.9443359375 604 99.9443359375 691 205.944335938 700 c 261
 205.944335938 662 l 262
 205.944335938 662 90.9443359375 659 66.9443359375 512 c 261
 29.9443359375 520 l 261
48.9443359375 0 m 257
 48.9443359375 38 l 257
 452.944335938 38 l 257
 452.944335938 0 l 257
 48.9443359375 0 l 257
48.9443359375 80 m 257
 48.9443359375 257 256.944335938 328 293.944335938 346 c 256
 349.944335938 373 418.944335938 408 418.944335938 494 c 256
 418.944335938 579 386.944335938 662 250.944335938 662 c 257
 250.944335938 700 l 257
 408.944335938 700 460.944335938 599 458.944335938 494 c 256
 456.944335938 410 411.944335938 364 343.944335938 329 c 256
 269.944335938 291 88.9443359375 231 88.9443359375 80 c 257
 48.9443359375 80 l 257
EndSplineSet
Layer: 2
SplineSet
196.055664062 699 m 257
 196.055664062 573 l 258
 195.055664062 573 148.055664062 557 148.055664062 495 c 257
 30.0556640625 520 l 257
 39.0556640625 604 101.055664062 687 196.055664062 699 c 257
453.055664062 127 m 257
 453.055664062 0 l 257
 49.0556640625 0 l 257
 49.0556640625 127 l 257
 453.055664062 127 l 257
251.055664062 574 m 257
 251.055664062 700 l 257
 253.055664062 700 256.055664062 700 258.055664062 700 c 256
 412.055664062 700 458.055664062 574 459.055664062 497 c 256
 459.055664062 496 459.055664062 495 459.055664062 494 c 256
 459.055664062 390 409.055664062 358 348.055664062 315 c 256
 277.055664062 265 237.055664062 232 203.055664062 179 c 257
 51.0556640625 179 l 257
 111.055664062 302 211.055664062 359 241.055664062 384 c 256
 284.055664062 421 335.055664062 433 336.055664062 495 c 256
 336.055664062 496 336.055664062 496 336.055664062 497 c 256
 336.055664062 547 306.055664062 572 251.055664062 574 c 257
EndSplineSet
Layer: 3
EndChar

StartChar: u
Encoding: 117 117 210
GlifName: u
Width: 450
VWidth: 0
GlyphClass: 2
Flags: MW
LayerCount: 4
Back
Fore
SplineSet
38 137 m 258
 38 514 l 257
 78 514 l 257
 78 142 l 262
 78 96 134 35 204 35 c 261
 204 -5 l 257
 91 -5 38 86 38 137 c 258
246 -5 m 257
 246 35 l 261
 318 35 372 94 372 142 c 262
 372 514 l 257
 412 514 l 257
 412 137 l 258
 412 89 358 -5 246 -5 c 257
EndSplineSet
Layer: 2
SplineSet
38 514 m 257
 162 514 l 257
 162 142 l 257
 162 139 168 116 199 116 c 258
 204 116 l 257
 204 -5 l 257
 199 -5 l 258
 92 -5 38 89 38 137 c 258
 38 514 l 257
246 116 m 257
 251 116 l 258
 282 116 288 140 288 142 c 257
 288 514 l 257
 412 514 l 257
 412 137 l 258
 412 92 358 -5 251 -5 c 258
 246 -5 l 257
 246 116 l 257
EndSplineSet
Layer: 3
EndChar

StartChar: underscore
Encoding: 95 95 215
GlifName: underscore
Width: 510
VWidth: 0
GlyphClass: 2
Flags: MW
LayerCount: 4
Back
Fore
SplineSet
30 -167 m 261
 480 -167 l 261
 480 -205 l 261
 30 -205 l 261
 30 -167 l 261
EndSplineSet
Layer: 2
SplineSet
480 -205 m 257
 30 -205 l 257
 30 -98 l 257
 480 -98 l 257
 480 -205 l 257
EndSplineSet
Layer: 3
EndChar

StartChar: twosuperior
Encoding: 178 178 217
GlifName: uni00B_2
Width: 222
VWidth: 0
GlyphClass: 2
Flags: HMW
LayerCount: 4
Back
Fore
Refer: 209 50 S 0.447092 0 0 0.447092 -3.21628 388 2
Layer: 2
SplineSet
82.6123046875 638 m 258
 78.6123046875 636 65.6123046875 629 65.6123046875 608 c 258
 65.6123046875 604 l 257
 6.6123046875 616 l 257
 6.6123046875 619 l 257
 10.6123046875 657 38.6123046875 695 81.6123046875 700 c 257
 85.6123046875 700 l 257
 85.6123046875 645 l 257
 85.6123046875 638 l 257
 82.6123046875 638 l 258
196.612304688 451 m 257
 196.612304688 389 l 257
 14.6123046875 389 l 257
 14.6123046875 451 l 257
 196.612304688 451 l 257
102.612304688 639 m 257
 102.612304688 700 l 257
 109.612304688 700 l 258
 178.612304688 700 199.612304688 643 199.612304688 609 c 256
 199.612304688 560 176.612304688 546 150.612304688 527 c 256
 119.612304688 505 103.612304688 493 89.6123046875 471 c 258
 88.6123046875 469 l 257
 14.6123046875 469 l 257
 17.6123046875 475 l 258
 43.6123046875 529 87.6123046875 553 99.6123046875 563 c 256
 119.612304688 580 139.612304688 584 139.612304688 608 c 256
 139.612304688 629 128.612304688 638 105.612304688 639 c 258
 102.612304688 639 l 257
EndSplineSet
Layer: 3
EndChar

StartChar: threesuperior
Encoding: 179 179 218
GlifName: uni00B_3
Width: 208
VWidth: 0
GlyphClass: 2
Flags: MW
LayerCount: 4
Back
Fore
Refer: 206 51 N 0.42 0 0 0.42 3.08102 400 2
Layer: 2
SplineSet
59.5205078125 467 m 258
 64.5205078125 459 71.5205078125 455 83.5205078125 454 c 258
 86.5205078125 453 l 257
 86.5205078125 392 l 257
 83.5205078125 392 l 258
 48.5205078125 392 22.5205078125 406 7.5205078125 436 c 257
 5.5205078125 439 l 257
 57.5205078125 470 l 257
 59.5205078125 467 l 258
57.5205078125 623 m 257
 5.5205078125 654 l 257
 7.5205078125 657 l 258
 22.5205078125 682 48.5205078125 701 83.5205078125 701 c 258
 86.5205078125 701 l 257
 86.5205078125 640 l 257
 83.5205078125 640 l 258
 71.5205078125 639 64.5205078125 634 59.5205078125 626 c 258
 57.5205078125 623 l 257
108.520507812 452 m 258
 124.520507812 452 136.520507812 467 136.520507812 483 c 256
 136.520507812 507 130.520507812 516 80.5205078125 516 c 258
 76.5205078125 516 l 257
 76.5205078125 577 l 257
 80.5205078125 577 l 258
 131.520507812 577 136.520507812 588 136.520507812 612 c 256
 136.520507812 633 120.520507812 640 109.520507812 640 c 258
 104.520507812 640 l 257
 104.520507812 701 l 257
 107.520507812 701 l 258
 167.520507812 700 198.520507812 650 198.520507812 616 c 256
 198.520507812 578 187.520507812 557 174.520507812 547 c 257
 186.520507812 537 200.520507812 516 200.520507812 482 c 256
 200.520507812 426 146.520507812 392 110.520507812 392 c 258
 105.520507812 392 l 257
 105.520507812 452 l 257
 108.520507812 452 l 258
EndSplineSet
Layer: 3
EndChar

StartChar: onesuperior
Encoding: 323 185 219
GlifName: uni00B_9
Width: 102
VWidth: 0
GlyphClass: 2
Flags: MW
LayerCount: 4
Back
Fore
Refer: 164 49 N 0.45 0 0 0.45 -9.1 379.225 2
Layer: 2
SplineSet
31.7578125 610 m 257
 -1.2421875 584 l 257
 -1.2421875 673 l 257
 33.7578125 700 l 257
 99.7578125 700 l 257
 99.7578125 391 l 257
 31.7578125 391 l 257
 31.7578125 610 l 257
EndSplineSet
Layer: 3
EndChar

StartChar: v
Encoding: 118 118 220
GlifName: v
Width: 400
VWidth: 0
GlyphClass: 2
Flags: MW
LayerCount: 4
Back
Fore
SplineSet
8 515 m 261
 53 515 l 261
 219 31 l 261
 208 0 l 261
 188 0 l 261
 8 515 l 261
213 140 m 261
 347 515 l 261
 392 515 l 261
 241 92 l 261
 229 92 l 261
 213 140 l 261
EndSplineSet
Layer: 2
SplineSet
166 0 m 257
 8 515 l 257
 143 516 l 257
 278 120 l 257
 235 0 l 257
 166 0 l 257
261 516 m 257
 392 515 l 257
 300 208 l 257
 288 208 l 257
 224 394 l 257
 261 516 l 257
EndSplineSet
Layer: 3
EndChar

StartChar: w
Encoding: 119 119 221
GlifName: w
Width: 723
VWidth: 0
GlyphClass: 2
Flags: HMW
LayerCount: 4
Back
Fore
SplineSet
339 516 m 257
 384 516 l 257
 550 32 l 257
 539 1 l 257
 519 1 l 257
 339 516 l 257
544 141 m 257
 668 516 l 257
 713 516 l 257
 572 93 l 257
 560 93 l 257
 544 141 l 257
10 516 m 257
 55 516 l 257
 221 32 l 257
 210 1 l 257
 190 1 l 257
 10 516 l 257
215 141 m 257
 339 516 l 257
 384 516 l 257
 243 93 l 257
 231 93 l 257
 215 141 l 257
EndSplineSet
Layer: 2
SplineSet
160 0 m 257
 8 515 l 257
 144 516 l 257
 261 120 l 257
 222 0 l 257
 160 0 l 257
348 0 m 257
 190 515 l 257
 328 516 l 257
 449 120 l 257
 412 0 l 257
 348 0 l 257
443 516 m 257
 569 515 l 257
 471 208 l 257
 463 208 l 257
 407 394 l 257
 443 516 l 257
EndSplineSet
Layer: 3
EndChar

StartChar: x
Encoding: 120 120 222
GlifName: x
Width: 379
VWidth: 0
GlyphClass: 2
Flags: HMW
LayerCount: 4
Back
Fore
SplineSet
8 0 m 5
 166 262 l 5
 13 516 l 5
 52 516 l 5
 190 293 l 5
 327 515 l 5
 367 515 l 5
 215 262 l 5
 371 0 l 5
 332 0 l 5
 190 232 l 5
 47 0 l 5
 8 0 l 5
EndSplineSet
Layer: 2
SplineSet
122 262 m 257
 12 516 l 257
 137 516 l 257
 190 399 l 257
 242 515 l 257
 368 515 l 257
 259 262 l 257
 372 0 l 257
 247 0 l 257
 190 126 l 257
 133 0 l 257
 8 0 l 257
 122 262 l 257
EndSplineSet
Layer: 3
EndChar

StartChar: y
Encoding: 121 121 223
GlifName: y
Width: 390
VWidth: 0
GlyphClass: 2
Flags: MW
LayerCount: 4
Back
Fore
SplineSet
4 515 m 257
 43 515 l 257
 212 111 l 257
 115 -182 l 257
 76 -182 l 257
 173 111 l 257
 4 515 l 257
213 197 m 257
 347 515 l 257
 386 515 l 257
 235 156 l 257
 230 156 l 257
 213 197 l 257
EndSplineSet
Layer: 2
SplineSet
122 113 m 257
 4 514 l 257
 135 515 l 257
 192 327 l 257
 192 328 193 328 193 329 c 257
 256 111 l 257
 159 -182 l 257
 33 -182 l 257
 122 113 l 257
255 515 m 257
 386 514 l 257
 283 208 l 257
 271 208 l 257
 217 393 l 257
 255 515 l 257
EndSplineSet
Layer: 3
EndChar

StartChar: yen
Encoding: 326 165 226
GlifName: yen
Width: 452
VWidth: 0
GlyphClass: 2
Flags: MW
LayerCount: 4
Back
Fore
SplineSet
21 186 m 1
 436 186 l 1
 436 153 l 1
 21 153 l 1
 21 186 l 1
21 276 m 1
 436 276 l 1
 436 243 l 1
 21 243 l 1
 21 276 l 1
207 0 m 5
 207 288 l 1
 57 698 l 1
 98 698 l 1
 227 343 l 1
 355 698 l 1
 396 698 l 1
 247 288 l 1
 247 0 l 1
 207 0 l 5
EndSplineSet
Layer: 2
SplineSet
28 698 m 257
 165 698 l 257
 228 485 l 257
 288 698 l 257
 425 698 l 257
 337 408 l 257
 447 408 l 257
 447 350 l 257
 320 350 l 257
 306 295 l 257
 447 295 l 257
 447 236 l 257
 295 236 l 257
 295 0 l 257
 158 0 l 257
 158 238 l 257
 5 238 l 257
 5 295 l 257
 148 295 l 257
 132 351 l 257
 5 351 l 257
 5 409 l 257
 117 409 l 257
 28 698 l 257
EndSplineSet
Layer: 3
EndChar

StartChar: z
Encoding: 122 122 227
GlifName: z
Width: 356
VWidth: 0
GlyphClass: 2
Flags: MW
LayerCount: 4
Back
Fore
SplineSet
30 0 m 257
 31 37 l 257
 284 476 l 261
 30 476 l 257
 30 514 l 257
 326 514 l 257
 326 482 l 257
 72 38 l 257
 326 38 l 257
 326 0 l 257
 30 0 l 257
EndSplineSet
Layer: 2
SplineSet
326 400 m 257
 173 118 l 257
 326 117 l 257
 326 0 l 257
 30 0 l 257
 30 116 l 257
 187 394 l 257
 30 394 l 257
 30 514 l 257
 326 514 l 257
 326 400 l 257
EndSplineSet
Layer: 3
EndChar

StartChar: zero
Encoding: 48 48 229
GlifName: zero
Width: 506
VWidth: 0
GlyphClass: 2
Flags: HMW
LayerCount: 4
Back
Fore
SplineSet
40 353 m 260
 40 602 134 693 223 698 c 261
 223 660 l 261
 172 660 85 583 81 398 c 260
 80 371 81 360 81 339 c 260
 81 93 181 39 222 38 c 261
 222 0 l 261
 156 3 40 60 40 353 c 260
283 660 m 261
 283 698 l 261
 372 693 466 602 466 353 c 260
 466 60 350 3 284 0 c 261
 284 38 l 261
 339 46 426 90 426 339 c 260
 426 360 426 371 426 398 c 260
 426 577 335 659 283 660 c 261
EndSplineSet
Layer: 2
SplineSet
223 698 m 257
 223 573 l 257
 170 560 165 461 165 398 c 256
 165 371 165 360 165 339 c 256
 165 248 167 137 222 124 c 257
 222 0 l 257
 156 3 40 60 40 353 c 256
 40 602 134 693 223 698 c 257
283 698 m 257
 372 693 466 602 466 353 c 256
 466 60 350 3 284 0 c 257
 284 124 l 257
 339 137 341 248 341 339 c 256
 341 360 341 371 341 398 c 256
 341 461 336 560 283 573 c 257
 283 698 l 257
EndSplineSet
Layer: 3
EndChar

StartChar: dcroat
Encoding: 392 273 300
Width: 414
VWidth: 0
Flags: MW
LayerCount: 4
Back
Fore
SplineSet
26 141 m 2
 26 377 l 2
 26 446 98 516 180 516 c 2
 299 516 l 1
 299 478 l 1
 181 478 l 2
 126 478 66 426 66 373 c 2
 66 143 l 2
 66 86 133 38 181 38 c 2
 299 38 l 1
 299 0 l 1
 183 0 l 2
 77 0 26 92 26 141 c 2
280 587 m 5
 280 625 l 5
 344 625 l 5
 344 699 l 5
 384 699 l 5
 384 625 l 5
 448 625 l 5
 448 587 l 5
 384 587 l 5
 384 0 l 5
 344 0 l 5
 344 587 l 5
 280 587 l 5
EndSplineSet
Layer: 2
SplineSet
180 516 m 258
 210 516 l 257
 210 398 l 257
 180 398 l 257
 153 397 148 375 148 373 c 258
 148 143 l 257
 148 141 154 118 182 118 c 258
 210 118 l 257
 210 0 l 257
 182 0 l 258
 78 0 30 97 30 141 c 258
 30 377 l 257
 31 422 79 516 180 516 c 258
448 666 m 1
 448 539 l 1
 384 539 l 1
 384 0 l 1
 258 0 l 1
 258 539 l 1
 194 539 l 1
 194 666 l 1
 258 666 l 1
 258 698 l 1
 384 698 l 1
 384 666 l 1
 448 666 l 1
EndSplineSet
Layer: 3
Colour: ffff00
EndChar

StartChar: uni02C9
Encoding: 400 713 309
Width: 416
VWidth: 0
Flags: MW
LayerCount: 4
Back
Fore
SplineSet
50 540 m 261
 50 570 l 261
 366 570 l 261
 366 540 l 261
 50 540 l 261
EndSplineSet
Layer: 2
SplineSet
366 596 m 257
 366 514 l 257
 50 514 l 257
 50 596 l 257
 366 596 l 257
EndSplineSet
Layer: 3
Colour: ffff00
EndChar

StartChar: ogonek
Encoding: 402 731 311
Width: 219
VWidth: 0
Flags: HMW
LayerCount: 4
Back
Fore
SplineSet
106 -172 m 257
 5 -172 -35 -96 -35 -40 c 257
 5 -40 l 257
 5 -95 47 -134 106 -134 c 257
 106 -172 l 257
EndSplineSet
Layer: 2
Refer: 92 184 N -1 0 0 1 229 -163 2
Layer: 3
Colour: ffff00
EndChar

StartChar: pi
Encoding: 403 960 312
Width: 421
VWidth: 0
Flags: MW
LayerCount: 4
Back
Fore
SplineSet
-28 478 m 1
 -28 516 l 1
 452 516 l 1
 452 478 l 1
 358 478 l 1
 358 142 l 2
 358 37 401 34 438 34 c 5
 438 -4 l 1
 339 -4 318 64 318 133 c 2
 318 478 l 1
 108 478 l 1
 108 -4 l 1
 68 -4 l 1
 68 478 l 1
 -28 478 l 1
EndSplineSet
Layer: 2
SplineSet
438 -4 m 1
 435 -4 l 1
 338 0 281 63 281 133 c 2
 281 389 l 1
 148 389 l 1
 148 -4 l 1
 26 -4 l 1
 26 389 l 1
 -28 389 l 1
 -28 516 l 1
 452 516 l 1
 452 389 l 1
 395 389 l 1
 395 142 l 2
 395 138 401 111 435 108 c 2
 438 108 l 1
 438 -4 l 1
EndSplineSet
Layer: 3
Colour: ffff00
EndChar

StartChar: uni2113
Encoding: 405 8467 314
Width: 184
VWidth: 0
Flags: MW
LayerCount: 4
Back
Fore
SplineSet
71 170 m 262
 71 700 l 257
 111 700 l 257
 111 170 l 261
 111 41 184 33 212 33 c 257
 212 -5 l 257
 152 -5 71 26 71 170 c 262
EndSplineSet
Layer: 2
SplineSet
212 -5 m 261
 152 -5 25 49 25 193 c 262
 25 700 l 261
 156 700 l 261
 156 193 l 261
 157 147 207 137 212 137 c 261
 212 -5 l 261
EndSplineSet
Layer: 3
Colour: ff0000
EndChar

StartChar: uni2126
Encoding: 406 8486 315
Width: 420
VWidth: 0
Flags: HMW
LayerCount: 4
Back
Fore
SplineSet
20 -1 m 1
 20 29 l 1
 101 29 l 1
 56 61 35 110 35 141 c 2
 35 376 l 2
 35 425 89 516 199 516 c 1
 199 478 l 1
 119 478 75 410 75 363 c 2
 75 154 l 2
 75 111 126 37 199 37 c 1
 199 -1 l 1
 20 -1 l 1
240 -1 m 1
 240 37 l 1
 315 37 359 108 359 152 c 2
 359 363 l 2
 359 408 315 478 240 478 c 1
 240 516 l 1
 348 516 399 425 399 376 c 2
 399 141 l 2
 399 110 378 61 335 29 c 1
 414 29 l 1
 414 -1 l 1
 240 -1 l 1
EndSplineSet
Layer: 2
SplineSet
35 376 m 2
 35 421 86 516 193 516 c 2
 199 516 l 1
 199 398 l 1
 193 398 l 2
 160 398 155 373 155 363 c 2
 155 154 l 2
 155 135 163 117 193 117 c 2
 199 117 l 1
 199 -1 l 1
 20 -1 l 1
 20 62 l 1
 66.59375 62 l 1
 45.2822265625 89.98828125 35 121.046875 35 141 c 2
 35 376 l 2
414 62 m 1
 414 -1 l 1
 240 -1 l 1
 240 117 l 1
 246 117 l 2
 277 118 282 141 282 152 c 2
 282 363 l 2
 282 380 276 398 246 398 c 2
 240 398 l 1
 240 516 l 1
 246 516 l 2
 349 516 399 421 399 376 c 2
 399 141 l 2
 399 120.692382812 389.020507812 89.7939453125 368.510742188 62 c 1
 414 62 l 1
EndSplineSet
Layer: 3
Colour: ff0000
EndChar

StartChar: estimated
Encoding: 407 8494 316
Width: 449
VWidth: 0
Flags: HMW
LayerCount: 4
Back
Fore
SplineSet
22 141 m 258
 22 377 l 257
 22 432 94 516 214 516 c 257
 214 478 l 257
 134 478 62 417 62 369 c 258
 62 285 l 257
 401 285 l 257
 401 369 l 258
 401 428 320 480 259 480 c 257
 259 516 l 257
 335 516 441 453 441 378 c 258
 441 247 l 257
 62 247 l 257
 62 141 l 258
 62 82 141 38 215 38 c 257
 215 0 l 257
 94 0 22 66 22 141 c 258
259 0 m 257
 259 41 l 257
 330 41 394 92 403 134 c 261
 442 120 l 261
 423 56 347 0 259 0 c 257
EndSplineSet
Layer: 2
SplineSet
265 402 m 258
 261 402 l 257
 261 516 l 257
 267 516 l 258
 337 516 441 450 441 378 c 258
 441 212 l 257
 140 212 l 257
 140 141 l 258
 140 124 180 109 208 108 c 258
 213 108 l 257
 213 0 l 257
 208 0 l 258
 104 0 22 61 22 141 c 258
 22 377 l 257
 22 440 105 516 207 516 c 258
 212 516 l 257
 212 400 l 257
 209 400 l 258
 180 400 140 401 140 369 c 258
 140 324 l 257
 327 324 l 257
 327 369 l 258
 327 396 285 402 265 402 c 258
261 0 m 257
 261 111 l 257
 267 111 l 258
 298 113 338 132 342 153 c 258
 343 157 l 257
 442 120 l 257
 441 118 l 256
 426 54 337 0 267 0 c 258
 261 0 l 257
EndSplineSet
Layer: 3
Colour: ff0000
EndChar

StartChar: partialdiff
Encoding: 408 8706 317
Width: 420
VWidth: 0
Flags: HMW
LayerCount: 4
Back
Fore
SplineSet
28 141 m 2
 28 376 l 2
 28 425 82 516 192 516 c 1
 192 478 l 1
 112 478 68 410 68 363 c 2
 68 154 l 2
 68 111 119 37 192 37 c 1
 192 -1 l 1
 80 -1 28 93 28 141 c 2
70 686 m 5
 70 714 l 1
 290 714 392 648 392 450 c 2
 392 141 l 2
 392 92 341 -1 233 -1 c 1
 233 37 l 1
 308 37 352 108 352 152 c 2
 351 373 l 2
 351 418 303 478 233 478 c 1
 233 516 l 1
 283 516 321 497 347 471 c 1
 347 650 203 686 70 686 c 5
EndSplineSet
Layer: 2
SplineSet
28 376 m 258
 28 421 79 516 186 516 c 258
 192 516 l 257
 192 398 l 257
 186 398 l 258
 153 398 148 373 148 363 c 258
 148 154 l 258
 148 135 156 117 186 117 c 258
 192 117 l 257
 192 -1 l 257
 186 -1 l 258
 78 -1 28 97 28 141 c 258
 28 376 l 258
70 647 m 257
 70 714 l 257
 189 714 276 695 330 641 c 256
 396.030296077 574.969703923 392 512.438114646 392 442 c 258
 392 376 l 257
 392 364 l 257
 392 141 l 258
 392 96 343 -1 239 -1 c 258
 233 -1 l 257
 233 117 l 257
 239 117 l 258
 270 118 275 141 275 152 c 258
 275 363 l 258
 275 380 269 398 239 398 c 258
 233 398 l 257
 233 516 l 257
 239 516 l 258
 251 516 262 515 273 512 c 261
 273 594 182 647 70 647 c 257
EndSplineSet
Layer: 3
Colour: ff0000
EndChar

StartChar: uni2206
Encoding: 409 8710 318
Width: 414
VWidth: 0
Flags: HMW
LayerCount: 4
Back
Fore
SplineSet
12 0 m 261
 399 0 l 261
 218 706 l 261
 194 706 l 261
 12 0 l 261
60 36 m 5
 208 607 l 261
 351 36 l 5
 60 36 l 5
EndSplineSet
Layer: 2
SplineSet
419 0 m 257
 238 706 l 257
 174 706 l 257
 -8 0 l 257
 419 0 l 257
113 97.125 m 1
 206 459 l 257
 299 97.125 l 1
 113 97.125 l 1
EndSplineSet
Layer: 3
Colour: ff0000
EndChar

StartChar: product
Encoding: 410 8719 319
Width: 458
VWidth: 0
Flags: HMW
LayerCount: 4
Back
Fore
SplineSet
2 659 m 1
 63 659 l 1
 63 -140 l 1
 100 -140 l 1
 100 659 l 1
 357 659 l 1
 357 -140 l 1
 394 -140 l 1
 394 659 l 1
 456 659 l 1
 456 694 l 1
 2 694 l 1
 2 659 l 1
EndSplineSet
Layer: 2
SplineSet
327 598 m 1
 327 -140 l 1
 423 -140 l 1
 423 598 l 1
 456 598 l 1
 456 694 l 1
 2 694 l 1
 2 598 l 1
 35 598 l 1
 35 -140 l 1
 131 -140 l 1
 131 598 l 1
 327 598 l 1
EndSplineSet
Layer: 3
Colour: ff0000
EndChar

StartChar: summation
Encoding: 411 8721 320
Width: 676
VWidth: 0
Flags: HMW
LayerCount: 4
Back
Fore
SplineSet
-2 -105 m 257
 -2 -140 l 257
 496 -140 l 257
 496 -105 l 257
 -2 -105 l 257
-2 667 m 257
 288 308 l 257
 -1 -53 l 257
 -1 -63 l 257
 41 -63 l 257
 322 284 l 257
 322 331 l 257
 18 703 l 257
 -2 703 l 257
 -2 667 l 257
80 694 m 261
 102 668 l 261
 496 668 l 257
 496 703 l 257
 80 703 l 261
 80 694 l 261
EndSplineSet
Layer: 2
SplineSet
-2 -28 m 257
 -2 -140 l 257
 496 -140 l 257
 496 -28 l 257
 -2 -28 l 257
-2 703 m 257
 -2 593 l 257
 230 310 l 257
 -1 27 l 261
 -1 17 l 261
 144 17 l 261
 353 261 l 257
 353 358 l 257
 68 703 l 257
 -2 703 l 257
496 703 m 257
 136 703 l 257
 136 694 l 257
 219 591 l 257
 496 591 l 257
 496 703 l 257
EndSplineSet
Layer: 3
Colour: ff0000
EndChar

StartChar: radical
Encoding: 414 8730 323
Width: 560
VWidth: 0
Flags: HMW
LayerCount: 4
Back
Fore
SplineSet
6 513 m 1
 160 568 l 1
 366 58 l 1
 509 819 l 1
 534 819 l 1
 383 -2 l 1
 353 -2 l 1
 141 528 l 1
 15 483 l 1
 6 513 l 1
EndSplineSet
Layer: 2
SplineSet
116.557617188 494 m 1
 22 461 l 1
 6 513 l 1
 181 575 l 1
 358.561523438 133.392578125 l 1
 488 819 l 1
 554 819 l 1
 403 -2 l 1
 316 -2 l 1
 116.557617188 494 l 1
EndSplineSet
Layer: 3
Colour: ff0000
EndChar

StartChar: infinity
Encoding: 415 8734 324
Width: 798
VWidth: 0
Flags: HMW
LayerCount: 4
Back
SplineSet
432 74 m 5
 272 387 l 5
 265.302838149 395.182613519 253.956860562 399 235 399 c 261
 235 517 l 261
 305.629319592 517 355.667130538 482.504271682 377 442.422851562 c 5
 533 131 l 5
 539.50207709 121.704194687 549.863669631 118 568 118 c 261
 568 0 l 261
 500.381469942 0 457.506830165 33.2871348902 432 74 c 5
EndSplineSet
Fore
SplineSet
30 141 m 258
 30 376 l 258
 30 425 84 516 194 516 c 257
 194 478 l 257
 114 478 70 410 70 363 c 258
 70 154 l 258
 70 111 121 37 194 37 c 257
 194 -1 l 257
 82 -1 30 93 30 141 c 258
773 140 m 258
 773 375 l 258
 773 424 719 515 609 515 c 257
 609 477 l 257
 689 477 733 409 733 362 c 258
 733 153 l 258
 733 110 682 36 609 36 c 257
 609 -2 l 257
 721 -2 773 92 773 140 c 258
318 421 m 2
 304 459 266.9375 478 235 478 c 1
 235 516 l 1
 285.404296875 516 336.354492188 482.862304688 354 436 c 2
 401.692082111 311.854961832 l 1
 449 435 l 2
 466.645507812 481.862304688 517.595703125 515 568 515 c 1
 568 477 l 1
 536.0625 477 499 458 485 420 c 2
 422.573313783 257.5 l 1
 485 95 l 2
 499 57 536.062600516 38 568 38 c 1
 568 0 l 1
 517.59574275 0 466.645507812 33.1376953125 449 80 c 2
 401.692082111 203.145038168 l 1
 354 79 l 2
 336.354492188 32.1376953125 285.404296875 -1 235 -1 c 1
 235 37 l 1
 266.9375 37 304 56 318 94 c 2
 380.81085044 257.5 l 1
 318 421 l 2
EndSplineSet
Layer: 2
Layer: 3
EndChar

StartChar: integral
Encoding: 416 8747 325
Width: 285
VWidth: 0
Flags: MW
LayerCount: 4
Back
Fore
SplineSet
1 -144 m 1
 1 -171 l 1
 68 -191 159 -147 159 -3 c 2
 159 625 l 6
 159 757 232 786 282 768 c 1
 282 795 l 5
 222 815 127 769 127 625 c 6
 127 -3 l 1
 127 -148 48 -157 1 -144 c 1
EndSplineSet
Layer: 2
SplineSet
1 -205 m 1
 61 -205 187 -147 187 -3 c 2
 187 625 l 2
 187 744 277 754 282 754 c 1
 282 819 l 1
 222 819 98 769 98 625 c 2
 98 -3 l 1
 98 -116 6 -140 1 -140 c 1
 1 -205 l 1
EndSplineSet
Layer: 3
Colour: ff0000
EndChar

StartChar: approxequal
Encoding: 417 8776 326
Width: 568
VWidth: 0
Flags: HMW
LayerCount: 4
Back
Fore
SplineSet
50 261 m 261
 50 297 l 257
 95 323 132 332 163 332 c 256
 250 332 299 259 387 259 c 256
 422 259 464 271 518 304 c 257
 518 270 l 261
 462 236 418 224 381 224 c 260
 289 224 239 297 157 297 c 260
 127 297 92 288 50 261 c 261
50 402 m 257
 50 439 l 257
 95 465 132 474 163 474 c 256
 250 474 299 401 387 401 c 256
 422 401 464 413 518 446 c 257
 518 411 l 257
 462 377 418 365 381 365 c 256
 289 365 239 438 157 438 c 256
 127 438 92 429 50 402 c 257
EndSplineSet
Layer: 2
SplineSet
518 173 m 261
 462 139 418 127 381 127 c 260
 289 127 239 200 157 200 c 260
 127 200 92 191 50 164 c 261
 50 297 l 261
 95 323 132 332 163 332 c 260
 250 332 299 259 387 259 c 260
 422 259 464 271 518 304 c 261
 518 173 l 261
518 411 m 257
 462 377 418 365 381 365 c 256
 289 365 239 438 157 438 c 256
 127 438 92 429 50 402 c 257
 50 535 l 257
 95 561 132 570 163 570 c 256
 250 570 299 497 387 497 c 256
 422 497 464 509 518 542 c 257
 518 411 l 257
EndSplineSet
Layer: 3
Colour: ff0000
EndChar

StartChar: lessequal
Encoding: 418 8804 327
Width: 414
VWidth: 0
Flags: HMW
LayerCount: 4
Back
Fore
SplineSet
16 342 m 261
 16 374 l 261
 370 566 l 261
 370 526 l 261
 62 358 l 261
 370 185 l 261
 370 145 l 261
 16 342 l 261
27 53 m 257
 27 91 l 257
 384 91 l 257
 384 53 l 257
 27 53 l 257
EndSplineSet
Layer: 2
SplineSet
434 -123 m 261
 -16 -123 l 261
 -16 -16 l 261
 434 -16 l 261
 434 -123 l 261
384 567 m 261
 384 437 l 261
 208 359 l 261
 384 273 l 261
 384 146 l 261
 30 325 l 261
 30 389 l 261
 384 567 l 261
EndSplineSet
Layer: 3
Colour: ff0000
EndChar

StartChar: greaterequal
Encoding: 419 8805 328
Width: 414
VWidth: 0
Flags: MW
LayerCount: 4
Back
Fore
SplineSet
27 53 m 257
 27 91 l 257
 384 91 l 257
 384 53 l 257
 27 53 l 257
30 145 m 261
 30 185 l 261
 338 358 l 261
 30 526 l 261
 30 566 l 261
 384 374 l 261
 384 342 l 261
 30 145 l 261
EndSplineSet
Layer: 2
SplineSet
434 -123 m 257
 -16 -123 l 257
 -16 -16 l 257
 434 -16 l 257
 434 -123 l 257
30 567 m 257
 30 437 l 257
 206 359 l 257
 30 273 l 257
 30 146 l 257
 384 325 l 257
 384 389 l 257
 30 567 l 257
EndSplineSet
Layer: 3
Colour: ff0000
EndChar

StartChar: lozenge
Encoding: 420 9674 329
Width: 427
VWidth: 0
Flags: HMW
LayerCount: 4
Back
Fore
SplineSet
-3 352 m 257
 194 706 l 257
 226 706 l 257
 418 352 l 261
 221 -2 l 257
 189 -2 l 257
 -3 352 l 257
37 352 m 257
 205 44 l 257
 378 352 l 257
 210 660 l 257
 37 352 l 257
EndSplineSet
Layer: 2
SplineSet
-3 352 m 261
 175 706 l 261
 239 706 l 261
 418 352 l 261
 239 -2 l 261
 175 -2 l 261
 -3 352 l 261
-3 352 m 257
 175 706 l 257
 239 706 l 257
 418 352 l 257
 239 -2 l 257
 175 -2 l 257
 -3 352 l 257
291 352 m 261
 205 528 l 261
 127 352 l 261
 205 176 l 261
 291 352 l 261
291 352 m 257
 205 528 l 257
 127 352 l 257
 205 176 l 257
 291 352 l 257
EndSplineSet
Layer: 3
Colour: ff0000
EndChar

StartChar: mnyk
Encoding: 421 -1 330
Width: 952
VWidth: 0
Flags: HMW
LayerCount: 4
Back
Fore
SplineSet
692.599609375 606 m 0
 692.599609375 669.200195312 743.799804688 720.400390625 807 720.400390625 c 0
 870.200195312 720.400390625 921.400390625 669.200195312 921.400390625 606 c 0
 921.400390625 542.799804688 870.200195312 491.599609375 807 491.599609375 c 0
 743.799804688 491.599609375 692.599609375 542.799804688 692.599609375 606 c 0
30.400390625 401 m 0
 30.400390625 574.799804688 171.200195312 715.599609375 345 715.599609375 c 0
 518.799804688 715.599609375 659.599609375 574.799804688 659.599609375 401 c 0
 659.599609375 227.200195312 518.799804688 86.400390625 345 86.400390625 c 0
 171.200195312 86.400390625 30.400390625 227.200195312 30.400390625 401 c 0
EndSplineSet
Layer: 2
Layer: 3
EndChar
